<svg width="83" height="18" viewBox="0 0 83 18" fill="none" xmlns="http://www.w3.org/2000/svg">
<path d="M12.86 10.42C12.8733 10.9667 12.8133 11.5 12.68 12.02C12.56 12.54 12.38 13.04 12.14 13.52C11.9 13.9867 11.6 14.4267 11.24 14.84C10.8933 15.24 10.4933 15.5933 10.04 15.9C9.09333 16.54 8.05333 16.9067 6.92 17C5.78667 17.08 4.70667 16.88 3.68 16.4C3.18667 16.16 2.72667 15.8667 2.3 15.52C1.88667 15.16 1.52 14.76 1.2 14.32C0.893333 13.88 0.633333 13.4067 0.42 12.9C0.22 12.38 0.0933334 11.8467 0.04 11.3C0.0266667 11.1933 0.0133334 11.0933 1.49012e-08 11C1.49012e-08 10.8933 1.49012e-08 10.7867 1.49012e-08 10.68V10.42V2.22C1.49012e-08 1.87333 0.12 1.58 0.36 1.34C0.6 1.1 0.893333 0.979999 1.24 0.979999C1.58667 0.979999 1.88 1.1 2.12 1.34C2.36 1.58 2.48 1.87333 2.48 2.22V5.52V5.5C3.16 4.99333 3.90667 4.62667 4.72 4.4C5.54667 4.16 6.38667 4.09333 7.24 4.2C8.08 4.30667 8.87333 4.57333 9.62 5C10.3667 5.41333 11 5.96 11.52 6.64C11.9333 7.18667 12.2533 7.78667 12.48 8.44C12.7067 9.08 12.8333 9.74 12.86 10.42ZM9.68 12.84C10.2133 12.0933 10.4467 11.2533 10.38 10.32C10.3533 9.82667 10.2333 9.36 10.02 8.92C9.80667 8.46667 9.52667 8.06667 9.18 7.72C9.00667 7.56 8.82 7.42 8.62 7.3C8.43333 7.18 8.23333 7.06667 8.02 6.96C7.51333 6.73333 6.98667 6.62 6.44 6.62C5.89333 6.62 5.36667 6.72667 4.86 6.94C4.35333 7.16667 3.91333 7.48 3.54 7.88C3.16667 8.28 2.88667 8.73333 2.7 9.24C2.46 9.92 2.40667 10.6133 2.54 11.32C2.68667 12.0267 2.99333 12.6533 3.46 13.2C3.82 13.6267 4.24667 13.9467 4.74 14.16C4.86 14.2267 4.98 14.2867 5.1 14.34C5.23333 14.3933 5.36667 14.4467 5.5 14.5C5.39333 14.46 5.28667 14.42 5.18 14.38C5.07333 14.3267 4.96667 14.2733 4.86 14.22C5.7 14.5933 6.56667 14.6533 7.46 14.4C7.91333 14.28 8.32667 14.0867 8.7 13.82C9.08667 13.5533 9.41333 13.2267 9.68 12.84ZM16.067 4.98C16.4137 4.98 16.707 5.10667 16.947 5.36C17.2004 5.6 17.327 5.89333 17.327 6.24V15.7C17.327 16.0467 17.2004 16.3467 16.947 16.6C16.707 16.84 16.4137 16.96 16.067 16.96C15.7204 16.96 15.427 16.84 15.187 16.6C14.947 16.3467 14.827 16.0467 14.827 15.7V6.24C14.827 5.89333 14.947 5.6 15.187 5.36C15.427 5.10667 15.7204 4.98 16.067 4.98ZM16.067 3.5C15.7204 3.5 15.427 3.38 15.187 3.14C14.947 2.88667 14.827 2.58667 14.827 2.24C14.827 1.89333 14.947 1.6 15.187 1.36C15.427 1.10667 15.7204 0.979999 16.067 0.979999C16.4137 0.979999 16.707 1.10667 16.947 1.36C17.2004 1.6 17.327 1.89333 17.327 2.24C17.327 2.58667 17.2004 2.88667 16.947 3.14C16.707 3.38 16.4137 3.5 16.067 3.5ZM25.3422 4.24C26.3689 4.06667 27.3755 4.14 28.3622 4.46C29.3622 4.78 30.2289 5.31333 30.9622 6.06C31.5622 6.66 32.0222 7.36 32.3422 8.16C32.6755 8.94667 32.8355 9.76667 32.8222 10.62C32.8222 11.3 32.7089 11.9667 32.4822 12.62C32.2689 13.26 31.9622 13.8533 31.5622 14.4C30.9089 15.28 30.0822 15.9533 29.0822 16.42C28.0822 16.8733 27.0422 17.0667 25.9622 17C25.4022 16.96 24.8555 16.8467 24.3222 16.66C23.7889 16.4733 23.2889 16.2267 22.8222 15.92C22.3689 15.6133 21.9555 15.2533 21.5822 14.84C21.2089 14.4267 20.8955 13.9667 20.6422 13.46C20.4022 12.9667 20.2222 12.4533 20.1022 11.92C19.9955 11.3867 19.9555 10.8533 19.9822 10.32C20.0089 9.77333 20.0955 9.24 20.2422 8.72C20.4022 8.18667 20.6289 7.68667 20.9222 7.22C21.0155 7.04667 21.1289 6.87333 21.2622 6.7H21.2822C21.7755 6.03333 22.3755 5.49333 23.0822 5.08C23.7889 4.66667 24.5422 4.38667 25.3422 4.24ZM29.6622 12.82C29.9422 12.4067 30.1355 11.96 30.2422 11.48C30.3622 11 30.3889 10.5133 30.3222 10.02C30.2422 9.52667 30.0955 9.09333 29.8822 8.72C29.6155 8.24 29.2689 7.82667 28.8422 7.48C28.4155 7.13333 27.9355 6.89333 27.4022 6.76C26.8822 6.61333 26.3489 6.58 25.8022 6.66C25.2555 6.74 24.7489 6.92667 24.2822 7.22C23.6822 7.60667 23.2155 8.12 22.8822 8.76C22.5489 9.4 22.4022 10.08 22.4422 10.8C22.4689 11.36 22.6089 11.88 22.8622 12.36C22.9289 12.48 22.9889 12.6067 23.0422 12.74C23.1089 12.86 23.1822 12.98 23.2622 13.1C23.1422 12.9 23.0289 12.6933 22.9222 12.48C23.1355 12.8667 23.4089 13.2133 23.7422 13.52C24.0755 13.8133 24.4489 14.0533 24.8622 14.24C25.2889 14.4267 25.7355 14.5333 26.2022 14.56C26.6689 14.5733 27.1222 14.5067 27.5622 14.36C27.9889 14.2267 28.3822 14.0267 28.7422 13.76C29.1022 13.4933 29.4089 13.18 29.6622 12.82ZM41.362 15.76C41.362 16.0933 41.242 16.38 41.002 16.62C40.7754 16.8467 40.4954 16.9733 40.162 17H40.122H40.102H39.982C39.1154 16.9733 38.302 16.7867 37.542 16.44C36.782 16.0933 36.122 15.6333 35.562 15.06C35.002 14.4733 34.5554 13.8 34.222 13.04C33.902 12.2667 33.742 11.44 33.742 10.56V5.36C33.742 5.01333 33.862 4.72 34.102 4.48C34.342 4.24 34.6354 4.12 34.982 4.12C35.3287 4.12 35.622 4.24 35.862 4.48C36.1154 4.72 36.242 5.01333 36.242 5.36L36.222 10.56C36.222 11.0933 36.322 11.5933 36.522 12.06C36.722 12.5267 36.9887 12.94 37.322 13.3C37.6687 13.6467 38.0687 13.9333 38.522 14.16C38.9887 14.3733 39.482 14.4867 40.002 14.5H40.102C40.4487 14.5 40.742 14.6267 40.982 14.88C41.2354 15.12 41.362 15.4133 41.362 15.76ZM54.9958 10.58C54.9824 10.9267 54.8491 11.22 54.5958 11.46C54.3558 11.7 54.0624 11.8267 53.7158 11.84H44.8158C44.8691 12 44.9424 12.1667 45.0358 12.34C45.1024 12.4733 45.1691 12.6 45.2358 12.72C45.3024 12.84 45.3691 12.96 45.4358 13.08C45.3691 12.9733 45.3091 12.8733 45.2558 12.78C45.2024 12.6733 45.1491 12.5667 45.0958 12.46C45.3091 12.8467 45.5824 13.1933 45.9158 13.5C46.2491 13.8067 46.6224 14.0467 47.0358 14.22C47.4758 14.4067 47.9624 14.5133 48.4958 14.54H48.5758C48.9224 14.54 49.2091 14.66 49.4358 14.9C49.6758 15.1267 49.7958 15.4133 49.7958 15.76C49.7958 16.1067 49.6758 16.4 49.4358 16.64C49.2091 16.88 48.9224 17 48.5758 17C48.4958 17 48.4158 17 48.3358 17C48.2691 17 48.2024 16.9933 48.1358 16.98C47.5758 16.94 47.0291 16.8267 46.4958 16.64C45.9624 16.4533 45.4624 16.2133 44.9958 15.92C44.5424 15.6133 44.1291 15.2533 43.7558 14.84C43.3824 14.4267 43.0691 13.9667 42.8158 13.46C42.3224 12.46 42.0958 11.4067 42.1358 10.3C42.1891 9.18 42.5091 8.14667 43.0958 7.2C43.1491 7.12 43.2024 7.04 43.2558 6.96C43.3224 6.86667 43.3891 6.78 43.4558 6.7C43.9491 6.03333 44.5491 5.49333 45.2558 5.08C45.9624 4.65333 46.7158 4.36667 47.5158 4.22C48.5424 4.06 49.5558 4.14 50.5558 4.46C51.5558 4.78 52.4158 5.31333 53.1358 6.06C53.7224 6.66 54.1758 7.34 54.4958 8.1C54.8291 8.86 54.9958 9.66 54.9958 10.5V10.54V10.58ZM46.4558 7.22C46.0691 7.47333 45.7358 7.78667 45.4558 8.16C45.1758 8.52 44.9624 8.91333 44.8158 9.34H52.3358C52.2691 9.14 52.1758 8.92667 52.0558 8.7C51.8024 8.22 51.4558 7.81333 51.0158 7.48C50.5891 7.13333 50.1091 6.88667 49.5758 6.74C49.0558 6.59333 48.5224 6.56667 47.9758 6.66C47.4291 6.74 46.9224 6.92667 46.4558 7.22ZM68.4905 11.06C68.4905 11.0867 68.4838 11.1067 68.4705 11.12C68.4705 11.1867 68.4638 11.2667 68.4505 11.36C68.4371 11.4533 68.4171 11.5667 68.3905 11.7C68.2571 12.4467 67.9971 13.1467 67.6105 13.8C67.2371 14.44 66.7705 15 66.2105 15.48C65.6505 15.9467 65.0105 16.32 64.2905 16.6C63.5838 16.8667 62.8371 17 62.0505 17C61.1705 17 60.3371 16.8333 59.5505 16.5C58.7771 16.1533 58.0971 15.6933 57.5105 15.12C56.9371 14.5333 56.4771 13.8467 56.1305 13.06C55.7971 12.2733 55.6305 11.44 55.6305 10.56C55.6305 9.68 55.7971 8.84667 56.1305 8.06C56.4771 7.27333 56.9371 6.59333 57.5105 6.02C58.0971 5.43333 58.7771 4.97333 59.5505 4.64C60.3371 4.29333 61.1705 4.12 62.0505 4.12C62.7038 4.12 63.3238 4.21333 63.9105 4.4C64.4971 4.58667 65.0438 4.84 65.5505 5.16L65.7705 5.3C66.0638 5.48667 66.2438 5.74667 66.3105 6.08C66.3905 6.41333 66.3371 6.72667 66.1505 7.02C65.9638 7.31333 65.7038 7.5 65.3705 7.58C65.0371 7.66 64.7238 7.60667 64.4305 7.42L63.9505 7.1C63.6705 6.95333 63.3705 6.84 63.0505 6.76C62.7305 6.66667 62.3971 6.62 62.0505 6.62C61.5038 6.62 60.9905 6.72667 60.5105 6.94C60.0438 7.14 59.6305 7.42 59.2705 7.78C58.9105 8.12667 58.6238 8.54 58.4105 9.02C58.2105 9.5 58.1105 10.0133 58.1105 10.56C58.1105 11.1067 58.2105 11.62 58.4105 12.1C58.6238 12.58 58.9105 13 59.2705 13.36C59.6305 13.7067 60.0438 13.9867 60.5105 14.2C60.9905 14.4 61.5038 14.5 62.0505 14.5C62.4771 14.5 62.8838 14.44 63.2705 14.32C63.6571 14.1867 64.0105 14.0067 64.3305 13.78C64.6505 13.5533 64.9305 13.2867 65.1705 12.98C65.4105 12.66 65.6038 12.3133 65.7505 11.94H64.0305C63.6838 11.94 63.3905 11.82 63.1505 11.58C62.9105 11.3267 62.7905 11.0267 62.7905 10.68C62.7905 10.3333 62.9105 10.04 63.1505 9.8C63.3905 9.56 63.6838 9.44 64.0305 9.44H67.1305C67.5171 9.46667 67.8371 9.62667 68.0905 9.92C68.3571 10.2 68.4905 10.5333 68.4905 10.92V11.04V11.06ZM82.6716 10.58C82.6582 10.9267 82.5249 11.22 82.2716 11.46C82.0316 11.7 81.7382 11.8267 81.3916 11.84H72.4916C72.5449 12 72.6182 12.1667 72.7116 12.34C72.7782 12.4733 72.8449 12.6 72.9116 12.72C72.9782 12.84 73.0449 12.96 73.1116 13.08C73.0449 12.9733 72.9849 12.8733 72.9316 12.78C72.8782 12.6733 72.8249 12.5667 72.7716 12.46C72.9849 12.8467 73.2582 13.1933 73.5916 13.5C73.9249 13.8067 74.2982 14.0467 74.7116 14.22C75.1516 14.4067 75.6382 14.5133 76.1716 14.54H76.2516C76.5982 14.54 76.8849 14.66 77.1116 14.9C77.3516 15.1267 77.4716 15.4133 77.4716 15.76C77.4716 16.1067 77.3516 16.4 77.1116 16.64C76.8849 16.88 76.5982 17 76.2516 17C76.1716 17 76.0916 17 76.0116 17C75.9449 17 75.8782 16.9933 75.8116 16.98C75.2516 16.94 74.7049 16.8267 74.1716 16.64C73.6382 16.4533 73.1382 16.2133 72.6716 15.92C72.2182 15.6133 71.8049 15.2533 71.4316 14.84C71.0582 14.4267 70.7449 13.9667 70.4916 13.46C69.9982 12.46 69.7716 11.4067 69.8116 10.3C69.8649 9.18 70.1849 8.14667 70.7716 7.2C70.8249 7.12 70.8782 7.04 70.9316 6.96C70.9982 6.86667 71.0649 6.78 71.1316 6.7C71.6249 6.03333 72.2249 5.49333 72.9316 5.08C73.6382 4.65333 74.3916 4.36667 75.1916 4.22C76.2182 4.06 77.2316 4.14 78.2316 4.46C79.2316 4.78 80.0916 5.31333 80.8116 6.06C81.3982 6.66 81.8516 7.34 82.1716 8.1C82.5049 8.86 82.6716 9.66 82.6716 10.5V10.54V10.58ZM74.1316 7.22C73.7449 7.47333 73.4116 7.78667 73.1316 8.16C72.8516 8.52 72.6382 8.91333 72.4916 9.34H80.0116C79.9449 9.14 79.8516 8.92667 79.7316 8.7C79.4782 8.22 79.1316 7.81333 78.6916 7.48C78.2649 7.13333 77.7849 6.88667 77.2516 6.74C76.7316 6.59333 76.1982 6.56667 75.6516 6.66C75.1049 6.74 74.5982 6.92667 74.1316 7.22Z" fill="#0076FF"/>
</svg>
