<svg width="468" height="369" viewBox="0 0 468 369" fill="none" xmlns="http://www.w3.org/2000/svg">
<path fill-rule="evenodd" clip-rule="evenodd" d="M49.5205 63.3816C54.422 63.3816 58.3942 59.4095 58.3942 54.5079C58.3942 49.6074 54.422 45.6353 49.5205 45.6353C44.619 45.6353 40.6468 49.6074 40.6468 54.5079C40.6468 59.4095 44.619 63.3816 49.5205 63.3816ZM387.822 23.1592C394.216 23.1592 399.402 17.9751 399.402 11.5791C399.402 5.18409 394.216 0 387.822 0C381.426 0 376.242 5.18409 376.242 11.5791C376.242 17.9751 381.426 23.1592 387.822 23.1592ZM75.1284 368.942C33.8078 368.942 0 335.134 0 293.813C0 252.491 33.8078 218.683 75.1273 218.683H75.1284C92.6005 218.683 106.894 204.389 106.894 186.917C106.894 169.446 92.5994 155.15 75.1273 155.15H71.3477C53.1832 155.15 38.3213 140.288 38.3213 122.124C38.3213 103.959 53.1832 89.0972 71.3477 89.0972H82.9454C90.0172 89.0972 95.8016 83.3107 95.8016 76.2399C95.8016 69.1681 90.0172 63.3816 82.9454 63.3816H74.4236C69.5417 63.3816 65.5499 59.3888 65.5499 54.5079C65.5499 49.6271 69.5417 45.6353 74.4236 45.6353H131.71C139.379 45.6353 145.654 39.3604 145.654 31.6913V31.6903C145.654 24.0223 139.379 17.7474 131.71 17.7474H114.582C109.701 17.7474 105.708 13.7535 105.708 8.8737C105.708 3.99389 109.701 0 114.582 0H358.193C364.562 0 369.773 5.211 369.773 11.5791C369.773 17.9472 364.56 23.1592 358.193 23.1592H340.626C330.617 23.1592 322.431 31.3457 322.431 41.3526C322.431 51.3596 330.617 59.5461 340.626 59.5461H415.847C422.216 59.5461 427.426 64.7581 427.426 71.1252V71.1262C427.426 77.4953 422.216 82.7053 415.847 82.7053H404.727C395.5 82.7053 387.95 90.2553 387.95 99.4829C387.95 108.712 395.5 116.262 404.727 116.262H419.86C443.563 116.262 462.956 135.655 462.956 159.357C462.956 183.06 443.563 202.454 419.86 202.454H414.928C392.13 202.454 373.477 221.105 373.477 243.902V243.903C373.477 266.702 392.13 285.355 414.928 285.355H425.609C448.597 285.355 467.405 304.162 467.405 327.148C467.405 350.134 448.597 368.942 425.609 368.942C306.687 368.942 194.053 368.942 75.1284 368.942Z" fill="#C2DCF3"/>
<path fill-rule="evenodd" clip-rule="evenodd" d="M235.416 72.77H95.4509C95.7345 73.8298 95.8866 74.9414 95.8866 76.0881C95.8866 83.1589 90.1022 88.9453 83.0304 88.9453H71.4327C53.2682 88.9453 38.4062 103.807 38.4062 121.972C38.4062 122.069 38.4083 122.163 38.4104 122.261H235.416C249.026 122.261 260.161 111.125 260.161 97.5158V97.5137C260.161 83.9051 249.026 72.77 235.416 72.77Z" fill="#DCEAF8"/>
<path fill-rule="evenodd" clip-rule="evenodd" d="M41.3547 108.146H260.076V368.745H75.1294C33.8078 368.745 0 334.937 0 293.617C0 252.294 33.8078 218.486 75.1274 218.486H75.1294C92.6005 218.486 106.894 204.192 106.894 186.72C106.894 169.249 92.5995 154.953 75.1274 154.953H71.3477C53.1832 154.953 38.3213 140.091 38.3213 121.927C38.3213 117.015 39.409 112.345 41.3547 108.146Z" fill="#CDE0F3"/>
<path fill-rule="evenodd" clip-rule="evenodd" d="M39.1472 129.369H242.26C248.078 129.369 252.833 135.014 252.833 141.914V368.857H75.1294C33.8078 368.857 0 335.049 0 293.728C0 252.406 33.8078 218.598 75.1274 218.598H75.1294C92.6005 218.598 106.894 204.304 106.894 186.832C106.894 169.361 92.5995 155.065 75.1274 155.065H71.3477C55.6992 155.065 42.5046 144.037 39.1472 129.369Z" fill="#C2DCF3"/>
<path fill-rule="evenodd" clip-rule="evenodd" d="M105.267 176.266H252.987V197.614H105.113C106.365 194.212 107.048 190.543 107.048 186.722C107.048 183.062 106.418 179.543 105.267 176.266Z" fill="#CDE0F3"/>
<path fill-rule="evenodd" clip-rule="evenodd" d="M263.332 167.372H100.262C104.496 172.77 107.027 179.559 107.027 186.912C107.027 187.519 107.009 188.121 106.974 188.721H263.332C267.167 188.721 270.301 185.585 270.301 181.75V174.342C270.301 170.509 267.167 167.372 263.332 167.372Z" fill="#DCEAF8"/>
<path fill-rule="evenodd" clip-rule="evenodd" d="M2.9372 272.889H252.833V294.237H0.00621027C0.00517531 294.04 0 293.843 0 293.646C0 286.452 1.02668 279.487 2.9372 272.889Z" fill="#CDE0F3"/>
<path fill-rule="evenodd" clip-rule="evenodd" d="M263.32 263.792H6.34222C3.42882 270.469 1.46241 277.643 0.605469 285.141H263.32C267.155 285.141 270.29 282.005 270.29 278.171V270.761C270.29 266.929 267.155 263.792 263.32 263.792Z" fill="#DCEAF8"/>
<path fill-rule="evenodd" clip-rule="evenodd" d="M263.261 360.415H40.832C51.1433 365.761 62.83 368.788 75.1915 368.788H270.231V367.385C270.231 363.551 267.096 360.415 263.261 360.415Z" fill="white"/>
<path fill-rule="evenodd" clip-rule="evenodd" d="M263.341 97.6333H49.3522C43.396 103.032 39.4053 110.561 38.6094 118.983H263.341C267.175 118.983 270.31 115.846 270.31 112.013V104.604C270.31 100.77 267.175 97.6333 263.341 97.6333Z" fill="#DCEAF8"/>
<path fill-rule="evenodd" clip-rule="evenodd" d="M57.9291 92.1283H240.699C245.647 92.1283 249.696 87.5797 249.696 82.0178C249.696 79.8599 249.085 77.8532 248.05 76.2065C255.196 79.9344 260.185 88.0847 260.185 97.4831H49.3203C51.8642 95.3004 54.7662 93.4841 57.9291 92.1283Z" fill="#CDE0F3"/>
<path fill-rule="evenodd" clip-rule="evenodd" d="M244.19 210.023H213.643C212.21 210.023 211.035 211.194 211.035 212.629V261.343C211.035 262.779 212.21 263.951 213.643 263.951H244.19C245.623 263.951 246.797 262.779 246.797 261.343V212.629C246.797 211.194 245.623 210.023 244.19 210.023Z" fill="#EAEBE6"/>
<path fill-rule="evenodd" clip-rule="evenodd" d="M206.849 210.023H191.338C190.608 210.023 190.012 210.618 190.012 211.347V262.628C190.012 263.356 190.608 263.951 191.338 263.951H206.849C207.575 263.951 208.172 263.356 208.172 262.628V211.347C208.172 210.618 207.575 210.023 206.849 210.023Z" fill="#E7E9E3"/>
<path fill-rule="evenodd" clip-rule="evenodd" d="M193.844 199.714H175.788C174.941 199.714 174.246 200.407 174.246 201.255V262.268C174.246 263.115 174.941 263.809 175.788 263.809H193.844C194.693 263.809 195.386 263.115 195.386 262.268V201.255C195.386 200.407 194.693 199.714 193.844 199.714Z" fill="#B3CEEB"/>
<path fill-rule="evenodd" clip-rule="evenodd" d="M200.472 238.929H169.192C168.191 238.929 167.371 239.749 167.371 240.751V262.084C167.371 263.086 168.191 263.904 169.192 263.904H200.472C201.474 263.904 202.294 263.086 202.294 262.084V240.751C202.294 239.749 201.474 238.929 200.472 238.929Z" fill="#B9D4EF"/>
<path fill-rule="evenodd" clip-rule="evenodd" d="M161.974 218.108H146.46C145.733 218.108 145.137 218.705 145.137 219.431V262.536C145.137 263.263 145.733 263.859 146.46 263.859H161.974C162.7 263.859 163.297 263.263 163.297 262.536V219.431C163.297 218.705 162.7 218.108 161.974 218.108Z" fill="#B9D4EF"/>
<path fill-rule="evenodd" clip-rule="evenodd" d="M238.305 221.949H219.659C218.696 221.949 217.906 222.738 217.906 223.702V233.912C217.906 234.877 218.696 235.665 219.659 235.665H238.305C239.268 235.665 240.057 234.877 240.057 233.912V223.702C240.057 222.738 239.268 221.949 238.305 221.949Z" fill="#E3E2DC"/>
<path fill-rule="evenodd" clip-rule="evenodd" d="M238.582 238.929H219.382C218.57 238.929 217.906 239.593 217.906 240.404V241.816C217.906 242.628 218.57 243.292 219.382 243.292H238.582C239.394 243.292 240.057 242.628 240.057 241.816V240.404C240.057 239.593 239.394 238.929 238.582 238.929Z" fill="#E3E2DC"/>
<path fill-rule="evenodd" clip-rule="evenodd" d="M238.582 247.419H219.382C218.57 247.419 217.906 248.082 217.906 248.894V250.306C217.906 251.118 218.57 251.782 219.382 251.782H238.582C239.394 251.782 240.057 251.118 240.057 250.306V248.894C240.057 248.082 239.394 247.419 238.582 247.419Z" fill="#E3E2DC"/>
<path fill-rule="evenodd" clip-rule="evenodd" d="M154.207 236.503C152.1 236.503 150.391 238.532 150.391 241.032C150.391 243.533 152.1 245.56 154.207 245.56C156.314 245.56 158.023 243.533 158.023 241.032C158.023 238.532 156.314 236.503 154.207 236.503Z" fill="#B3CEEB"/>
<path fill-rule="evenodd" clip-rule="evenodd" d="M162.486 159.084H154.273C153.696 159.084 153.223 159.557 153.223 160.134V166.268C153.223 166.845 153.696 167.317 154.273 167.317H162.486C163.063 167.317 163.535 166.845 163.535 166.268V160.134C163.535 159.557 163.063 159.084 162.486 159.084Z" fill="#DCEAF8"/>
<path fill-rule="evenodd" clip-rule="evenodd" d="M149.233 145.743H126.694C125.831 145.743 125.125 146.449 125.125 147.313V165.708C125.125 166.572 125.831 167.278 126.694 167.278H149.233C150.097 167.278 150.803 166.572 150.803 165.708V147.313C150.803 146.449 150.097 145.743 149.233 145.743Z" fill="#B9D4EF"/>
<path fill-rule="evenodd" clip-rule="evenodd" d="M138.514 152.615H123.163C122.574 152.615 122.094 153.095 122.094 153.684V166.213C122.094 166.801 122.574 167.283 123.163 167.283H138.514C139.103 167.283 139.583 166.801 139.583 166.213V153.684C139.583 153.095 139.103 152.615 138.514 152.615Z" fill="#B3CEEB"/>
<path fill-rule="evenodd" clip-rule="evenodd" d="M127.833 132.604H114.533C113.909 132.604 113.398 133.114 113.398 133.739V166.2C113.398 166.824 113.909 167.336 114.533 167.336H127.833C128.456 167.336 128.967 166.824 128.967 166.2V133.739C128.967 133.114 128.456 132.604 127.833 132.604Z" fill="#DCEAF8"/>
<path fill-rule="evenodd" clip-rule="evenodd" d="M211.087 143.116H210.223V141.498H210.518C211.056 141.498 211.496 140.975 211.496 140.337V140.336C211.496 139.699 211.056 139.176 210.518 139.176H209.451V132.348C209.451 131.71 209.01 131.188 208.473 131.188H208.472C207.934 131.188 207.495 131.71 207.495 132.348V139.176H206.426C205.888 139.176 205.448 139.699 205.448 140.336V140.337C205.448 140.975 205.888 141.498 206.426 141.498H206.722V143.116H205.856C205.257 143.116 204.766 143.7 204.766 144.412V165.92C204.766 166.633 205.257 167.215 205.856 167.215H211.087C211.688 167.215 212.18 166.633 212.18 165.92V144.412C212.18 143.7 211.688 143.116 211.087 143.116Z" fill="#B3CEEB"/>
<path fill-rule="evenodd" clip-rule="evenodd" d="M219.726 145.707H218.951V144.257H219.216C219.698 144.257 220.092 143.79 220.092 143.219C220.092 142.647 219.698 142.18 219.216 142.18H218.261V136.068C218.261 135.496 217.866 135.029 217.385 135.029C216.903 135.029 216.51 135.496 216.51 136.068V142.18H215.554C215.072 142.18 214.677 142.647 214.677 143.219C214.677 143.79 215.072 144.257 215.554 144.257H215.818V145.707H215.044C214.506 145.707 214.066 146.229 214.066 146.865V166.117C214.066 166.755 214.506 167.276 215.044 167.276H219.726C220.264 167.276 220.703 166.755 220.703 166.117V146.865C220.703 146.229 220.264 145.707 219.726 145.707Z" fill="#B3CEEB"/>
<path fill-rule="evenodd" clip-rule="evenodd" d="M234.129 144.53H221.23C220.624 144.53 220.129 145.026 220.129 145.631V166.202C220.129 166.808 220.624 167.304 221.23 167.304H234.129C234.735 167.304 235.231 166.808 235.231 166.202V145.631C235.231 145.026 234.735 144.53 234.129 144.53Z" fill="#DCEAF8"/>
<path fill-rule="evenodd" clip-rule="evenodd" d="M231.575 149.583H223.701C223.294 149.583 222.961 149.915 222.961 150.322V154.635C222.961 155.043 223.294 155.375 223.701 155.375H231.575C231.983 155.375 232.315 155.043 232.315 154.635V150.322C232.315 149.915 231.983 149.583 231.575 149.583Z" fill="#F6F9F8"/>
<path fill-rule="evenodd" clip-rule="evenodd" d="M231.691 156.658H223.583C223.241 156.658 222.961 156.939 222.961 157.281V157.878C222.961 158.221 223.241 158.5 223.583 158.5H231.691C232.034 158.5 232.315 158.221 232.315 157.878V157.281C232.315 156.939 232.034 156.658 231.691 156.658Z" fill="#F6F9F8"/>
<path fill-rule="evenodd" clip-rule="evenodd" d="M231.691 160.297H223.583C223.241 160.297 222.961 160.577 222.961 160.92V161.517C222.961 161.86 223.241 162.139 223.583 162.139H231.691C232.034 162.139 232.315 161.86 232.315 161.517V160.92C232.315 160.577 232.034 160.297 231.691 160.297Z" fill="#F6F9F8"/>
<path fill-rule="evenodd" clip-rule="evenodd" d="M218.219 153.222H210.294C209.921 153.222 209.617 153.526 209.617 153.899V166.539C209.617 166.911 209.921 167.215 210.294 167.215H218.219C218.591 167.215 218.895 166.911 218.895 166.539V153.899C218.895 153.526 218.591 153.222 218.219 153.222Z" fill="#B9D4EF"/>
<path fill-rule="evenodd" clip-rule="evenodd" d="M201.398 133.008H174.517C173.255 133.008 172.223 134.04 172.223 135.302V164.925C172.223 166.186 173.255 167.219 174.517 167.219H201.398C202.66 167.219 203.692 166.186 203.692 164.925V135.302C203.692 134.04 202.66 133.008 201.398 133.008Z" fill="#B9D4EF"/>
<path fill-rule="evenodd" clip-rule="evenodd" d="M206.498 153.222H198.571C198.199 153.222 197.895 153.526 197.895 153.899V166.539C197.895 166.911 198.199 167.215 198.571 167.215H206.498C206.871 167.215 207.174 166.911 207.174 166.539V153.899C207.174 153.526 206.871 153.222 206.498 153.222Z" fill="#DCEAF8"/>
<path fill-rule="evenodd" clip-rule="evenodd" d="M81.2156 145.743H103.754C104.617 145.743 105.324 146.449 105.324 147.313V165.708C105.324 166.572 104.617 167.278 103.754 167.278H100.244C95.2754 160.943 87.9635 156.526 79.6445 155.361V147.313C79.6445 146.449 80.3493 145.743 81.2156 145.743Z" fill="#B3CEEB"/>
<path fill-rule="evenodd" clip-rule="evenodd" d="M92.03 152.615H107.381C107.97 152.615 108.451 153.095 108.451 153.684V166.213C108.451 166.801 107.97 167.283 107.381 167.283H100.238C97.6985 164.044 94.547 161.308 90.9609 159.249V153.684C90.9609 153.095 91.4422 152.615 92.03 152.615Z" fill="#B9D4EF"/>
<path fill-rule="evenodd" clip-rule="evenodd" d="M87.761 156.86H92.8643C93.1023 156.86 93.2979 157.056 93.2979 157.295V160.686C91.4402 159.386 89.4407 158.277 87.3242 157.392V157.295C87.3242 157.056 87.5209 156.86 87.761 156.86Z" fill="#F2F4F1"/>
<path fill-rule="evenodd" clip-rule="evenodd" d="M54.6614 137.253H42.2461C45.3603 143.155 50.2132 148.013 56.1083 151.137V138.7C56.1083 137.904 55.4562 137.253 54.6614 137.253Z" fill="#EAEBE6"/>
<path fill-rule="evenodd" clip-rule="evenodd" d="M51.3283 144.125H46.8945C48.5142 145.928 50.3264 147.553 52.3011 148.966V145.098C52.3011 144.562 51.8634 144.125 51.3283 144.125Z" fill="#E3E2DC"/>
<path fill-rule="evenodd" clip-rule="evenodd" d="M64.5324 225.93H63.1704V223.382H63.6361C64.4817 223.382 65.1741 222.559 65.1741 221.554V221.552C65.1741 220.548 64.4817 219.726 63.6361 219.726H62.0506C59.8978 220.108 57.7772 220.587 55.6907 221.149C55.6659 221.279 55.6535 221.414 55.6535 221.552V221.554C55.6535 222.559 56.3448 223.382 57.1904 223.382H57.6582V225.93H56.2962C55.3512 225.93 54.5781 226.848 54.5781 227.97V261.827C54.5781 262.948 55.3512 263.866 56.2962 263.866H64.5324C65.4763 263.866 66.2494 262.948 66.2494 261.827V227.97C66.2494 226.848 65.4763 225.93 64.5324 225.93Z" fill="#B3CEEB"/>
<path fill-rule="evenodd" clip-rule="evenodd" d="M77.8375 229.852H76.6194V227.571H77.0354C77.793 227.571 78.4129 226.835 78.4129 225.934C78.4129 225.034 77.793 224.299 77.0354 224.299H75.5296V218.513C75.394 218.515 75.2584 218.518 75.1239 218.518H75.1218C74.3363 218.518 73.5538 218.535 72.7745 218.558V224.299H71.2676C70.509 224.299 69.8891 225.034 69.8891 225.934C69.8891 226.835 70.509 227.571 71.2676 227.571H71.6847V229.852H70.4676C69.62 229.852 68.9297 230.673 68.9297 231.675V261.983C68.9297 262.987 69.62 263.808 70.4676 263.808H77.8375C78.6831 263.808 79.3765 262.987 79.3765 261.983V231.675C79.3765 230.673 78.6831 229.852 77.8375 229.852Z" fill="#DEDED8"/>
<path fill-rule="evenodd" clip-rule="evenodd" d="M100.673 228.014H80.3643C79.4121 228.014 78.6328 228.794 78.6328 229.747V262.133C78.6328 263.087 79.4121 263.867 80.3643 263.867H100.673C101.626 263.867 102.407 263.087 102.407 262.133V229.747C102.407 228.794 101.626 228.014 100.673 228.014Z" fill="#FAFBFD"/>
<path fill-rule="evenodd" clip-rule="evenodd" d="M96.639 236.099H84.2414C83.6018 236.099 83.0781 236.624 83.0781 237.264V244.053C83.0781 244.693 83.6018 245.218 84.2414 245.218H96.639C97.2786 245.218 97.8023 244.693 97.8023 244.053V237.264C97.8023 236.624 97.2786 236.099 96.639 236.099Z" fill="#F6F9F8"/>
<path fill-rule="evenodd" clip-rule="evenodd" d="M96.8222 247.217H84.0582C83.518 247.217 83.0781 247.658 83.0781 248.197V249.137C83.0781 249.677 83.518 250.118 84.0582 250.118H96.8222C97.3624 250.118 97.8023 249.677 97.8023 249.137V248.197C97.8023 247.658 97.3624 247.217 96.8222 247.217Z" fill="#F6F9F8"/>
<path fill-rule="evenodd" clip-rule="evenodd" d="M96.8222 252.877H84.0582C83.518 252.877 83.0781 253.316 83.0781 253.857V254.796C83.0781 255.336 83.518 255.776 84.0582 255.776H96.8222C97.3624 255.776 97.8023 255.336 97.8023 254.796V253.857C97.8023 253.316 97.3624 252.877 96.8222 252.877Z" fill="#F6F9F8"/>
<path fill-rule="evenodd" clip-rule="evenodd" d="M75.601 241.759H63.1246C62.5388 241.759 62.0586 242.239 62.0586 242.823V262.724C62.0586 263.309 62.5388 263.788 63.1246 263.788H75.601C76.1878 263.788 76.666 263.309 76.666 262.724V242.823C76.666 242.239 76.1878 241.759 75.601 241.759Z" fill="#EAEBE6"/>
<path fill-rule="evenodd" clip-rule="evenodd" d="M6.26562 263.745C6.41776 263.763 6.57197 263.774 6.73136 263.774H49.0465C51.0336 263.774 52.6585 262.148 52.6585 260.163V221.949C31.8684 228.524 14.9147 243.946 6.26562 263.745Z" fill="#C2DCF3"/>
<path fill-rule="evenodd" clip-rule="evenodd" d="M57.2064 241.759H44.728C44.1422 241.759 43.6641 242.239 43.6641 242.823V262.724C43.6641 263.309 44.1422 263.788 44.728 263.788H57.2064C57.7922 263.788 58.2724 263.309 58.2724 262.724V242.823C58.2724 242.239 57.7922 241.759 57.2064 241.759Z" fill="#C2DCF3"/>
<path fill-rule="evenodd" clip-rule="evenodd" d="M109.666 348.489H121.573C122.41 348.489 123.095 349.173 123.095 350.009V358.902C123.095 359.739 122.41 360.424 121.573 360.424H109.666C108.829 360.424 108.145 359.739 108.145 358.902V350.009C108.145 349.173 108.829 348.489 109.666 348.489Z" fill="#EAEBE6"/>
<path fill-rule="evenodd" clip-rule="evenodd" d="M128.811 329.285H161.488C162.741 329.285 163.764 330.309 163.764 331.561V358.232C163.764 359.484 162.741 360.508 161.488 360.508H128.811C127.559 360.508 126.535 359.484 126.535 358.232V331.561C126.535 330.309 127.559 329.285 128.811 329.285Z" fill="#EAEBE6"/>
<path fill-rule="evenodd" clip-rule="evenodd" d="M144.463 339.19H166.721C167.574 339.19 168.27 339.888 168.27 340.742V358.906C168.27 359.759 167.574 360.457 166.721 360.457H144.463C143.611 360.457 142.914 359.759 142.914 358.906V340.742C142.914 339.888 143.611 339.19 144.463 339.19Z" fill="#E1E1D9"/>
<path fill-rule="evenodd" clip-rule="evenodd" d="M159.919 310.082H179.2C180.106 310.082 180.846 310.822 180.846 311.727V358.791C180.846 359.697 180.106 360.437 179.2 360.437H159.919C159.013 360.437 158.273 359.697 158.273 358.791V311.727C158.273 310.822 159.013 310.082 159.919 310.082Z" fill="#B9D4EF"/>
<path fill-rule="evenodd" clip-rule="evenodd" d="M38.976 325.558H40.2293V323.21H39.8019C39.0215 323.21 38.3829 322.454 38.3829 321.529V321.528C38.3829 320.601 39.0215 319.845 39.8019 319.845H41.3502V309.946C41.3502 309.02 41.9887 308.263 42.7691 308.263C43.5484 308.263 44.187 309.02 44.187 309.946V319.845H45.7353C46.5157 319.845 47.1543 320.601 47.1543 321.528V321.529C47.1543 322.454 46.5157 323.21 45.7353 323.21H45.3069V325.558H46.5602C47.4296 325.558 48.1427 326.403 48.1427 327.436V358.616C48.1427 359.651 47.4296 360.496 46.5602 360.496H40.783C39.6363 359.902 38.5061 359.277 37.3945 358.624V358.616V327.436C37.3945 326.403 38.1056 325.558 38.976 325.558Z" fill="#DEDED8"/>
<path fill-rule="evenodd" clip-rule="evenodd" d="M26.6825 329.199H27.8044V327.099H27.4204C26.7228 327.099 26.1515 326.421 26.1515 325.592C26.1515 324.763 26.7228 324.086 27.4204 324.086H28.8083V315.224C28.8083 314.397 29.3785 313.721 30.0771 313.721C30.7747 313.721 31.346 314.397 31.346 315.224V324.086H32.7328C33.4314 324.086 34.0017 324.763 34.0017 325.592C34.0017 326.421 33.4314 327.099 32.7328 327.099H32.3478V329.199H33.4687C34.2491 329.199 34.8866 329.956 34.8866 330.879V357.088C31.4837 354.917 28.2691 352.476 25.2656 349.802V330.879C25.2656 329.956 25.9021 329.199 26.6825 329.199Z" fill="#DEDED8"/>
<path fill-rule="evenodd" clip-rule="evenodd" d="M8.08594 327.466H24.4672C25.3448 327.466 26.063 328.183 26.063 329.061V350.479C18.6766 344.075 12.5424 336.259 8.08594 327.466Z" fill="#FAFBFD"/>
<path fill-rule="evenodd" clip-rule="evenodd" d="M12.332 334.944H20.7751C21.3661 334.944 21.8474 335.428 21.8474 336.019V342.27C21.8474 342.861 21.3661 343.343 20.7751 343.343H18.7456C16.419 340.702 14.2757 337.895 12.332 334.944Z" fill="#F6F9F8"/>
<path fill-rule="evenodd" clip-rule="evenodd" d="M20.6172 345.254H21.0486C21.5369 345.254 21.9349 345.652 21.9349 346.141V346.618C21.4892 346.169 21.0507 345.714 20.6172 345.254Z" fill="#F6F9F8"/>
<path fill-rule="evenodd" clip-rule="evenodd" d="M28.8736 340.201H40.3648C40.9051 340.201 41.347 340.642 41.347 341.181V359.509C41.347 359.935 41.0696 360.302 40.6857 360.434C36.1318 358.065 31.8481 355.242 27.8945 352.027V341.181C27.8945 340.642 28.3334 340.201 28.8736 340.201Z" fill="#EAEBE6"/>
<path fill-rule="evenodd" clip-rule="evenodd" d="M53.2571 310.891H92.2282C94.057 310.891 95.5546 312.387 95.5546 314.217V357.166C95.5546 358.995 94.057 360.492 92.2282 360.492H53.2571C51.4262 360.492 49.9297 358.995 49.9297 357.166V314.217C49.9297 312.387 51.4262 310.891 53.2571 310.891Z" fill="#EAEBE6"/>
<path fill-rule="evenodd" clip-rule="evenodd" d="M45.8561 340.201H57.3482C57.8874 340.201 58.3283 340.642 58.3283 341.181V359.509C58.3283 360.048 57.8874 360.489 57.3482 360.489H45.8561C45.3169 360.489 44.875 360.048 44.875 359.509V341.181C44.875 340.642 45.3169 340.201 45.8561 340.201Z" fill="#FAFBFD"/>
<path fill-rule="evenodd" clip-rule="evenodd" d="M246.699 348.489H234.792C233.955 348.489 233.27 349.173 233.27 350.009V358.902C233.27 359.739 233.955 360.424 234.792 360.424H246.699C247.536 360.424 248.22 359.739 248.22 358.902V350.009C248.22 349.173 247.536 348.489 246.699 348.489Z" fill="#EAEBE6"/>
<path fill-rule="evenodd" clip-rule="evenodd" d="M227.593 329.285H194.915C193.664 329.285 192.641 330.309 192.641 331.561V358.232C192.641 359.484 193.664 360.508 194.915 360.508H227.593C228.845 360.508 229.869 359.484 229.869 358.232V331.561C229.869 330.309 228.845 329.285 227.593 329.285Z" fill="#EAEBE6"/>
<path fill-rule="evenodd" clip-rule="evenodd" d="M211.795 339.19H189.54C188.686 339.19 187.988 339.888 187.988 340.742V358.906C187.988 359.759 188.686 360.457 189.54 360.457H211.795C212.65 360.457 213.346 359.759 213.346 358.906V340.742C213.346 339.888 212.65 339.19 211.795 339.19Z" fill="#E1E1D9"/>
<path fill-rule="evenodd" clip-rule="evenodd" d="M217.85 345.457H210.452C210.105 345.457 209.82 345.739 209.82 346.087V359.79C209.82 360.136 210.105 360.42 210.452 360.42H217.85C218.197 360.42 218.482 360.136 218.482 359.79V346.087C218.482 345.739 218.197 345.457 217.85 345.457Z" fill="#F2F4F1"/>
<path fill-rule="evenodd" clip-rule="evenodd" d="M46.0631 244.589H18.3522C9.94831 254.296 3.98075 266.162 1.41406 279.21C2.37657 279.744 3.48087 280.05 4.65347 280.05H46.0631C49.7569 280.05 52.78 277.026 52.78 273.332V251.306C52.78 247.611 49.7569 244.589 46.0631 244.589Z" fill="#331B38"/>
<path fill-rule="evenodd" clip-rule="evenodd" d="M70.1566 244.589H28.7481C25.0533 244.589 22.0312 247.611 22.0312 251.306V273.332C22.0312 277.026 25.0533 280.05 28.7481 280.05H70.1566C73.8524 280.05 76.8755 277.026 76.8755 273.332V251.306C76.8755 247.611 73.8524 244.589 70.1566 244.589Z" fill="#4F3F56"/>
<path fill-rule="evenodd" clip-rule="evenodd" d="M68.1304 242.972H61.0814C60.1728 242.972 59.4297 243.716 59.4297 244.626V248.919C59.4297 249.828 60.1728 250.571 61.0814 250.571H68.1304C69.0391 250.571 69.7822 249.828 69.7822 248.919V244.626C69.7822 243.716 69.0391 242.972 68.1304 242.972Z" fill="#331B38"/>
<path fill-rule="evenodd" clip-rule="evenodd" d="M68.0575 242.972H62.4956C61.5869 242.972 60.8438 243.716 60.8438 244.626V248.919C60.8438 249.828 61.5869 250.571 62.4956 250.571H68.0575C68.9652 250.571 69.7093 249.828 69.7093 248.919V244.626C69.7093 243.716 68.9652 242.972 68.0575 242.972Z" fill="#4F3F56"/>
<path fill-rule="evenodd" clip-rule="evenodd" d="M67.0862 246.206C66.7529 246.206 66.4807 246.477 66.4807 246.81V249.591H64.2773V246.81C64.2773 246.477 64.0051 246.206 63.6719 246.206C63.3386 246.206 63.0664 246.477 63.0664 246.81V254.23C63.0664 254.783 63.5197 255.236 64.0724 255.236H66.6856C67.2383 255.236 67.6916 254.783 67.6916 254.23V251.243V250.596V246.81C67.6916 246.477 67.4194 246.206 67.0862 246.206Z" fill="#3F2C44"/>
<path fill-rule="evenodd" clip-rule="evenodd" d="M38.6188 242.972H31.5708C30.6621 242.972 29.918 243.716 29.918 244.626V248.919C29.918 249.828 30.6621 250.571 31.5708 250.571H38.6188C39.5275 250.571 40.2695 249.828 40.2695 248.919V244.626C40.2695 243.716 39.5275 242.972 38.6188 242.972Z" fill="#331B38"/>
<path fill-rule="evenodd" clip-rule="evenodd" d="M38.7478 242.972H33.188C32.2793 242.972 31.5352 243.716 31.5352 244.626V248.919C31.5352 249.828 32.2793 250.571 33.188 250.571H38.7478C39.6565 250.571 40.3996 249.828 40.3996 248.919V244.626C40.3996 243.716 39.6565 242.972 38.7478 242.972Z" fill="#4F3F56"/>
<path fill-rule="evenodd" clip-rule="evenodd" d="M37.7775 246.206C37.4432 246.206 37.172 246.477 37.172 246.81V249.591H34.9676V246.81C34.9676 246.477 34.6965 246.206 34.3622 246.206C34.03 246.206 33.7578 246.477 33.7578 246.81V254.23C33.7578 254.783 34.2101 255.236 34.7638 255.236H37.377C37.9296 255.236 38.3829 254.783 38.3829 254.23V251.243V250.596V246.81C38.3829 246.477 38.1097 246.206 37.7775 246.206Z" fill="#5A4A60"/>
<path fill-rule="evenodd" clip-rule="evenodd" d="M71.6674 257.93H27.2841C26.6186 257.93 26.0742 258.475 26.0742 259.141C26.0742 259.807 26.6186 260.353 27.2841 260.353H71.6674C72.3328 260.353 72.8783 259.807 72.8783 259.141C72.8783 258.475 72.3328 257.93 71.6674 257.93Z" fill="#331B38"/>
<path fill-rule="evenodd" clip-rule="evenodd" d="M71.6674 263.186H27.2841C26.6186 263.186 26.0742 263.729 26.0742 264.396C26.0742 265.063 26.6186 265.607 27.2841 265.607H71.6674C72.3328 265.607 72.8783 265.063 72.8783 264.396C72.8783 263.729 72.3328 263.186 71.6674 263.186Z" fill="#331B38"/>
<path fill-rule="evenodd" clip-rule="evenodd" d="M71.6674 268.239H27.2841C26.6186 268.239 26.0742 268.785 26.0742 269.45V269.451C26.0742 270.117 26.6186 270.662 27.2841 270.662H71.6674C72.3328 270.662 72.8783 270.117 72.8783 269.451V269.45C72.8783 268.785 72.3328 268.239 71.6674 268.239Z" fill="#331B38"/>
<path fill-rule="evenodd" clip-rule="evenodd" d="M71.6674 273.293H27.2841C26.6186 273.293 26.0742 273.838 26.0742 274.504V274.505C26.0742 275.171 26.6186 275.716 27.2841 275.716H71.6674C72.3328 275.716 72.8783 275.171 72.8783 274.505V274.504C72.8783 273.838 72.3328 273.293 71.6674 273.293Z" fill="#331B38"/>
<path fill-rule="evenodd" clip-rule="evenodd" d="M26.8974 279.559H80.5638C85.3525 279.559 89.2698 283.476 89.2698 288.265V316.812C89.2698 321.6 85.3525 325.517 80.5638 325.517H26.8974C22.1087 325.517 18.1914 321.6 18.1914 316.812V288.265C18.1914 283.476 22.1087 279.559 26.8974 279.559Z" fill="#331B38"/>
<path fill-rule="evenodd" clip-rule="evenodd" d="M1.33406 279.559H49.2276C54.0164 279.559 57.9337 283.476 57.9337 288.265V316.812C57.9337 321.6 54.0164 325.517 49.2276 325.517H7.15568C2.57186 315.822 0 305.009 0 293.623C0 288.818 0.461589 284.118 1.33406 279.559Z" fill="#4F3F56"/>
<path fill-rule="evenodd" clip-rule="evenodd" d="M1.90508 277.538H7.67904C8.85577 277.538 9.8193 278.5 9.8193 279.679V285.245C9.8193 286.422 8.85577 287.386 7.67904 287.386H0.402344C0.687988 284.037 1.19201 280.75 1.90508 277.538Z" fill="#331B38"/>
<path fill-rule="evenodd" clip-rule="evenodd" d="M1.9051 277.538H5.75204C6.92982 277.538 7.89336 278.5 7.89336 279.679V285.245C7.89336 286.423 6.92982 287.386 5.75204 287.386H0.402344C0.687992 284.037 1.19202 280.75 1.9051 277.538Z" fill="#4F3F56"/>
<path fill-rule="evenodd" clip-rule="evenodd" d="M0.409844 285.915V286.172H3.2653V282.567C3.2653 282.136 3.61822 281.783 4.04876 281.783C4.48138 281.783 4.8343 282.136 4.8343 282.567V292.184C4.8343 292.9 4.24644 293.488 3.53128 293.488H0.143859C0.0952162 293.488 0.0465732 293.485 0 293.479C0.0113846 290.928 0.149034 288.404 0.409844 285.915Z" fill="#3F2C44"/>
<path fill-rule="evenodd" clip-rule="evenodd" d="M36.5056 277.538H45.6391C46.8169 277.538 47.7804 278.5 47.7804 279.679V285.245C47.7804 286.422 46.8169 287.386 45.6391 287.386H36.5056C35.3279 287.386 34.3633 286.422 34.3633 285.245V279.679C34.3633 278.5 35.3279 277.538 36.5056 277.538Z" fill="#331B38"/>
<path fill-rule="evenodd" clip-rule="evenodd" d="M36.5056 277.538H43.7119C44.8897 277.538 45.8532 278.5 45.8532 279.679V285.245C45.8532 286.423 44.8897 287.386 43.7119 287.386H36.5056C35.3278 287.386 34.3633 286.423 34.3633 285.245V279.679C34.3633 278.5 35.3278 277.538 36.5056 277.538Z" fill="#4F3F56"/>
<path fill-rule="evenodd" clip-rule="evenodd" d="M37.7767 281.783C38.2093 281.783 38.5632 282.136 38.5632 282.567V286.172H41.4166V282.567C41.4166 282.136 41.7695 281.783 42.2021 281.783C42.6326 281.783 42.9866 282.136 42.9866 282.567V292.184C42.9866 292.9 42.4008 293.488 41.6826 293.488H38.2952C37.579 293.488 36.9922 292.9 36.9922 292.184V288.313V287.476V282.567C36.9922 282.136 37.3461 281.783 37.7767 281.783Z" fill="#3F2C44"/>
<path fill-rule="evenodd" clip-rule="evenodd" d="M0.203125 296.943H51.2855C52.1486 296.943 52.8545 297.65 52.8545 298.513C52.8545 299.377 52.1486 300.084 51.2855 300.084H0.402872C0.313866 299.042 0.248663 297.994 0.203125 296.943Z" fill="#331B38"/>
<path fill-rule="evenodd" clip-rule="evenodd" d="M0.808594 303.614H51.3154C52.1785 303.614 52.8844 304.319 52.8844 305.182C52.8844 306.046 52.1785 306.753 51.3154 306.753H1.29295C1.10976 305.713 0.949348 304.665 0.808594 303.614Z" fill="#331B38"/>
<path fill-rule="evenodd" clip-rule="evenodd" d="M1.82031 310.284H51.139C52.0022 310.284 52.708 310.99 52.708 311.854C52.708 312.717 52.0022 313.423 51.139 313.423H2.60377C2.3202 312.385 2.05732 311.338 1.82031 310.284Z" fill="#331B38"/>
<path fill-rule="evenodd" clip-rule="evenodd" d="M3.64062 316.753H51.1317C51.9948 316.753 52.7006 317.459 52.7006 318.322C52.7006 319.187 51.9948 319.892 51.1317 319.892H4.74182C4.3506 318.856 3.98527 317.81 3.64062 316.753Z" fill="#331B38"/>
<path fill-rule="evenodd" clip-rule="evenodd" d="M132.503 304.85C132.503 304.85 135.893 316.136 137.568 329.818H63.523C63.2508 320.265 64.0519 312.667 66.6569 309.249C77.5146 294.993 124.783 296.051 132.503 304.85Z" fill="#03304B"/>
<path fill-rule="evenodd" clip-rule="evenodd" d="M124.9 271.893C124.826 277.924 124.936 283.303 125.366 285.854C120.422 283.678 114.876 287.415 115.089 291.533C115.366 296.91 114.717 300.433 121.579 310.818C124.792 315.683 127.642 317.128 129.761 317.293C126.526 319.762 122.813 321.96 119.996 322.491C119.996 322.491 119.449 322.742 118.66 321.583C117.874 320.423 114.719 307.999 112.586 305.032C111.908 304.088 112.456 295.621 113.516 284.518C102.429 288.123 84.1705 287.396 75.8671 284.55C75.1116 283.235 74.7203 282.422 74.799 282.262C75.1002 281.634 80.9694 272.907 87.975 262.983C94.1174 272.661 99.4299 280.709 99.4299 280.709L124.9 271.893Z" fill="#064268"/>
<path fill-rule="evenodd" clip-rule="evenodd" d="M74.5493 278.145C74.806 277.198 74.9954 276.35 75.0989 275.629C75.2293 274.713 75.2893 273.646 75.28 272.468C76.1235 262.999 74.9209 254.144 70.9415 244.125C64.2578 227.294 54.3802 199.522 54.375 199.507C54.7921 199.081 55.2092 198.676 55.6335 198.293C56.6146 197.174 58.0129 196.213 59.5436 195.402C62.4963 193.665 65.6953 192.666 69.2825 192.033L69.3466 192.019C69.3466 192.019 69.3984 192.01 69.4936 191.996C76.909 190.718 85.9918 190.948 98.0097 189.404C98.7476 189.427 99.2071 189.518 99.8954 189.526C108.41 189.638 131.94 218.977 128.212 234.048C128.212 234.048 126.327 242.026 125.585 253.327C124.844 264.639 124.362 284.488 125.661 287.271C126.958 290.052 141.488 317.825 142.251 319.721C145.589 328.012 86.2309 331.174 66.7944 314.257C67.8325 306.686 69.1904 299.128 70.9415 293.214C72.5353 287.831 73.7659 282.875 74.5493 278.145Z" fill="white"/>
<path fill-rule="evenodd" clip-rule="evenodd" d="M74.5494 278.012C74.8061 277.066 74.9955 276.217 75.099 275.496C75.2294 274.58 75.2894 273.513 75.2801 272.333C76.1236 262.864 74.9199 254.01 70.9415 243.992C64.2578 227.161 54.3822 199.394 54.375 199.374C54.7921 198.949 55.2092 198.544 55.6335 198.16C56.6146 197.041 58.0129 196.08 59.5456 195.269C62.4963 193.532 65.6943 192.534 69.2835 191.9L69.3477 191.886C69.3477 191.886 69.3984 191.877 69.4936 191.863C71.3348 191.545 73.6273 190.238 75.6951 190.057C78.624 189.801 81.4515 190.71 84.9269 190.482C84.9269 190.482 65.1199 205.554 85.3957 243.763C95.1937 262.229 86.1802 274.039 74.0878 280.564C74.2575 279.706 74.4097 278.855 74.5494 278.012Z" fill="#FEF2F1"/>
<path fill-rule="evenodd" clip-rule="evenodd" d="M76.2704 165.149L76.7548 171.607C76.7548 171.607 77.1791 184.858 77.2433 186.868C77.2702 187.721 76.6037 188.702 75.3793 189.589C74.097 190.521 80.02 193.377 77.6686 193.853C77.6293 193.861 87.4509 193.814 93.8686 193.716C97.9049 193.653 100.042 197.565 99.2659 188.937C99.2628 188.89 99.1738 188.899 99.1282 188.879C97.6876 188.274 98.3386 188.89 97.0956 187.802C96.9176 187.647 96.7261 187.466 96.5191 187.252C94.2288 184.91 93.9845 174.141 96.1083 171.254C98.2299 168.367 76.2704 165.149 76.2704 165.149Z" fill="#E9675B"/>
<path fill-rule="evenodd" clip-rule="evenodd" d="M152.193 214.001L157.784 213.055C157.784 213.055 161.911 220.003 154.944 233.083C154.944 233.083 151.99 228.908 151.677 226.61C151.362 224.314 152.193 214.001 152.193 214.001Z" fill="#F8CFBF"/>
<path fill-rule="evenodd" clip-rule="evenodd" d="M108.211 191.71C123.988 197.837 144.986 208.48 160.914 215.765C165.395 217.816 169.346 219.597 170.242 215.901C172.251 207.61 173.546 190.186 174.122 179.22C174.268 176.453 171.215 173.583 170.451 172.011C170.046 171.177 175.591 169.043 176.411 169.256C179.339 170.005 183.156 167.299 184.544 169.403C184.282 170.623 183.477 174.008 183.594 178.221C183.85 187.398 185.388 203.262 180.834 227.367C180.768 227.554 181.705 224.097 180.656 227.941C179.838 230.932 176.132 233.718 172.885 234.174C166.864 235.024 130.177 222.905 123.761 219.685C120.046 217.819 116.738 215.814 113.747 213.756C116.2 207.601 106.198 197.358 108.211 191.71Z" fill="#F5AE85"/>
<path fill-rule="evenodd" clip-rule="evenodd" d="M182.165 169.242C183.39 169.235 184.074 168.953 184.629 169.793C184.367 171.013 183.353 174.049 183.47 178.263C183.724 187.439 185.263 203.304 180.708 227.409C180.643 227.596 181.58 224.138 180.53 227.982C179.713 230.973 176.007 233.758 172.76 234.216C169.867 234.624 159.892 232.038 149.599 228.884C148.953 224.212 148.574 221.051 148.574 221.051L154.737 216.193C154.737 216.193 157.81 224.997 160.391 227.129C162.97 229.26 172.147 230.436 174.873 229.305C177.601 228.173 181.104 202.439 180.938 191.262C180.773 180.086 179.971 176.485 178.995 174.353C178.342 172.924 180.359 171.754 182.165 169.242Z" fill="#F08770"/>
<path fill-rule="evenodd" clip-rule="evenodd" d="M105.719 192.099L107.545 191.224C107.545 191.224 128.19 198.362 157.904 212.994C156.229 214.968 151.797 226.549 155.064 233.022L134.029 230.601L105.719 192.099Z" fill="white"/>
<path fill-rule="evenodd" clip-rule="evenodd" d="M105.719 192.099L107.545 191.224L107.552 191.226L107.563 191.229H107.564L107.586 191.239L107.608 191.247L107.617 191.249L107.656 191.264L107.681 191.273L107.706 191.28L107.786 191.309L107.828 191.322L107.903 191.35L107.919 191.356L107.986 191.38L108.077 191.411L108.082 191.414L108.177 191.448L108.272 191.481L108.283 191.485L108.401 191.527L108.491 191.56L108.526 191.572L108.658 191.622L108.739 191.651L108.801 191.671L108.95 191.726L109.015 191.748L109.108 191.783L109.273 191.844L109.316 191.86L109.448 191.907L109.63 191.973L109.647 191.98L109.818 192.043L110.006 192.112L110.017 192.116L110.222 192.192L110.39 192.255L110.437 192.269L110.658 192.353L110.8 192.406L110.887 192.438L111.123 192.527L111.236 192.569L111.369 192.617L111.62 192.714L111.701 192.742L111.88 192.81L112.148 192.911L112.187 192.926L112.422 193.016L112.702 193.121L112.706 193.124L112.994 193.233L113.242 193.326L113.293 193.348L113.597 193.464L113.806 193.543L113.909 193.584L114.227 193.705L114.395 193.768L114.553 193.831L114.596 193.848L115.227 194.093L115.576 194.228L115.646 194.254L115.931 194.366L116.293 194.508L116.307 194.512L116.661 194.652L116.993 194.782L117.036 194.8L117.42 194.951L117.809 195.105L118.205 195.263L118.432 195.353L118.607 195.424L119.017 195.585L119.186 195.655L119.433 195.753L119.856 195.923L120.173 196.051L120.286 196.096L120.721 196.272L120.761 196.289L121.165 196.453L121.583 196.622L121.614 196.636L122.068 196.82L122.426 196.965L122.53 197.01L122.999 197.201L123.29 197.321L123.473 197.397L123.954 197.595C125.668 202.647 128.416 208.389 132.824 213.627C140.636 222.91 150.029 221.471 155.039 219.727C153.839 224.003 153.207 229.333 155.058 233.012L119.605 228.867L105.719 192.099Z" fill="#FEF2F1"/>
<path fill-rule="evenodd" clip-rule="evenodd" d="M36.8079 248.632L34.9688 249.578C34.9688 249.578 35.1581 251.777 41.0584 255.792C46.9576 259.805 51.6025 261.518 51.6025 261.518L51.7929 256.804L36.8079 248.632Z" fill="#F8CFBF"/>
<path fill-rule="evenodd" clip-rule="evenodd" d="M101.185 189.68C121.787 210.38 93.7013 221.35 80.5119 204.777C72.285 194.443 68.5416 192.114 68.5416 192.114C68.5416 192.114 68.2383 191.842 67.6774 191.927C67.1165 192.012 62.4364 193.67 61.9272 193.858C61.417 194.045 61.3662 194.342 61.3662 194.342C61.3662 194.342 87.1169 214.311 67.5594 238.734C67.5594 238.734 83.3849 259.209 67.813 292.843C67.813 292.843 55.4215 319.393 61.9199 325.531C68.4184 331.668 144.731 321.559 144.731 321.559C144.731 321.559 132.625 298.619 129.835 292.967C127.041 287.317 124.796 281.53 125.748 266.686C126.702 251.844 129.578 235.133 128.956 225.717C128.337 216.305 109.367 193.749 108.414 192.183C107.46 190.616 102.125 189.276 101.185 189.68Z" fill="#E67070"/>
<path fill-rule="evenodd" clip-rule="evenodd" d="M75.0171 221.343C73.888 229.766 70.245 236.017 67.729 238.652C67.729 238.652 83.5555 259.128 67.9836 292.761C67.9836 292.761 57.1383 315.211 60.1666 324.397C63.1948 333.581 69.7813 322.887 74.539 322.845C75.1993 294.777 79.337 239.554 127.033 254.096C127.744 247.356 128.54 240.745 128.945 235.066C110.982 242.011 77.6676 249.114 75.0171 221.343Z" fill="#D95051"/>
<path fill-rule="evenodd" clip-rule="evenodd" d="M53.4823 200.553C51.0408 204.772 29.0222 265.793 31.2929 277.99C33.5615 290.189 50.6776 312.406 59.5544 318.401C59.5544 318.401 60.5541 319.009 61.1089 317.567C61.6636 316.127 63.6652 316.42 65.7185 315.2C56.4392 299.074 51.6484 293.535 45.8661 275.698C42.7043 265.939 63.4241 239.865 67.0557 233.681C75.6924 218.964 58.8351 191.308 53.4823 200.553Z" fill="#F5AE85"/>
<path fill-rule="evenodd" clip-rule="evenodd" d="M77.315 319.983C77.4092 316.283 74.4586 313.176 70.7576 313.081L64.3129 312.914C60.6109 312.819 57.5029 315.77 57.4098 319.471V319.472C57.4036 319.644 57.4057 319.813 57.415 319.983H77.315Z" fill="#F5AE85"/>
<path fill-rule="evenodd" clip-rule="evenodd" d="M40.4529 116.773C32.5168 118.966 27.8616 127.177 30.0537 135.113C32.2457 143.049 40.4581 147.704 48.3941 145.512C56.3291 143.318 60.9854 135.108 58.7934 127.172C56.6003 119.235 48.3889 114.58 40.4529 116.773Z" fill="#3F2C44"/>
<path fill-rule="evenodd" clip-rule="evenodd" d="M64.1101 110.27C64.1101 110.27 52.8343 105.386 46.8171 116.969C42.0532 126.139 38.6813 138.617 43.0819 153.137C43.735 155.166 51.8728 179.02 73.2964 176.408C95.6669 173.682 105.988 155.027 105.988 155.027C129.117 138.108 89.895 83.1859 64.1101 110.27Z" fill="#3F2C44"/>
<path fill-rule="evenodd" clip-rule="evenodd" d="M42.7218 127.171C40.6664 134.623 40.1655 143.338 43.0675 152.947C43.5932 154.602 51.6856 178.903 73.2975 176.268C70.6335 162.279 68.2138 152.142 68.2138 152.142L90.544 139.184L89.745 120.273C59.635 159.865 42.7311 127.187 42.7218 127.171Z" fill="#331B38"/>
<path fill-rule="evenodd" clip-rule="evenodd" d="M105.252 155.864C99.4319 145.705 66.8928 154.796 66.8928 154.796L60.1532 149.987C60.1532 149.987 48.1539 152.909 52.4924 168.842C57.2501 173.64 63.9856 177.377 73.1615 176.259C92.4293 173.91 102.757 159.748 105.252 155.864Z" fill="#331B38"/>
<path fill-rule="evenodd" clip-rule="evenodd" d="M56.4335 151.672C52.688 152.199 50.0799 155.663 50.6067 159.409C51.1335 163.154 54.5985 165.762 58.344 165.235C62.0895 164.709 64.6987 161.244 64.1708 157.499C63.6441 153.754 60.179 151.145 56.4335 151.672Z" fill="#E9675B"/>
<path fill-rule="evenodd" clip-rule="evenodd" d="M76.3874 113.832C63.6109 115.63 54.6306 127.554 56.4283 140.331L59.3986 161.441C61.1974 174.216 73.1221 183.197 85.8976 181.399H85.8986C98.6741 179.6 107.655 167.676 105.858 154.901L102.885 133.791C101.087 121.014 89.1629 112.034 76.3874 113.832Z" fill="#F5AE85"/>
<path fill-rule="evenodd" clip-rule="evenodd" d="M57.2915 130.018C56.2648 133.251 55.9264 136.751 56.4283 140.319L59.3986 161.431C61.1974 174.205 73.1211 183.187 85.8977 181.387H85.8987C86.6573 181.281 87.4004 181.137 88.1321 180.962C62.7643 180.313 57.4902 151.311 67.935 148.576C80.8419 145.197 91.2732 133.147 91.2732 133.147C93.7913 136.543 99.674 138.397 103.663 139.301L102.885 133.779C101.27 122.31 91.4968 113.9 80.2706 113.603C76.5499 114.57 73.2474 115.739 71.5563 115.976C67.1256 116.6 61.5669 124.707 58.1298 129.084C57.9197 129.356 57.634 129.667 57.2915 130.018Z" fill="#F08770"/>
<path fill-rule="evenodd" clip-rule="evenodd" d="M82.2696 165.557C82.7436 168.926 85.8599 171.272 89.2286 170.798C92.5995 170.325 94.9447 167.208 94.4717 163.839L94.4614 163.84C94.3796 163.262 93.8394 162.854 93.2587 162.935L83.1855 164.354C82.606 164.435 82.1982 164.976 82.28 165.555L82.2696 165.557Z" fill="white"/>
<path fill-rule="evenodd" clip-rule="evenodd" d="M100.351 156.489C98.4952 156.751 97.2015 158.468 97.4634 160.323C97.7252 162.18 99.4411 163.473 101.298 163.212C103.154 162.95 104.446 161.234 104.184 159.378C103.923 157.522 102.207 156.229 100.351 156.489Z" fill="#E9675B"/>
<path fill-rule="evenodd" clip-rule="evenodd" d="M71.4439 160.532C69.5872 160.793 68.2945 162.51 68.5574 164.366C68.8182 166.222 70.5352 167.515 72.3909 167.254C74.2465 166.992 75.5402 165.276 75.2784 163.42C75.0165 161.564 73.2996 160.27 71.4439 160.532Z" fill="#E9675B"/>
<path fill-rule="evenodd" clip-rule="evenodd" d="M55.1836 151.966L59.8749 149.179C59.8749 149.179 63.4041 154.849 59.0139 157.603L58.6061 154.71C58.4033 153.259 57.4501 151.647 55.1836 151.966Z" fill="#331B38"/>
<path fill-rule="evenodd" clip-rule="evenodd" d="M89.7047 120.423C89.7047 120.423 89.6736 138.158 56.5271 151.753L53.3633 126.568L69.2095 111.69L86.6961 111.581C86.6961 111.581 96.6668 119.978 97.7142 121.152C98.7626 122.33 106.504 134.235 106.504 134.235L103.478 137.481C103.478 137.481 95.606 135.181 89.7047 120.423Z" fill="#3F2C44"/>
<path fill-rule="evenodd" clip-rule="evenodd" d="M89.7952 120.273C89.7952 120.273 89.7641 138.008 56.6167 151.603L54.9805 138.569C62.9703 141.8 74.7315 140.082 89.7952 120.273Z" fill="#331B38"/>
<path fill-rule="evenodd" clip-rule="evenodd" d="M44.4517 122.212L44.4392 122.245L44.4258 122.278C44.1608 122.958 43.9062 123.651 43.6641 124.357C63.3924 143.1 82.3445 127.698 91.2897 105.842C88.1227 104.177 84.7891 103.128 81.4224 102.889C77.4099 124.788 57.1288 135.083 44.4517 122.212Z" fill="#4F3F56"/>
<path fill-rule="evenodd" clip-rule="evenodd" d="M75.9091 155.63C75.9732 156.103 76.411 156.431 76.883 156.365C77.3559 156.299 77.6851 155.862 77.6178 155.39C77.4574 154.255 76.8498 153.289 75.9991 152.647C75.1453 152.005 74.0493 151.688 72.9139 151.847C71.7796 152.007 70.814 152.614 70.1733 153.465C69.5285 154.321 69.2129 155.416 69.3733 156.55C69.4385 157.023 69.8763 157.352 70.3462 157.285C70.8202 157.218 71.1483 156.781 71.082 156.31C70.9889 155.643 71.1721 155.001 71.5447 154.504C71.9234 154.005 72.4885 153.651 73.1561 153.558C73.8226 153.463 74.4632 153.647 74.961 154.021C75.4589 154.399 75.8139 154.964 75.9091 155.63Z" fill="#331B38"/>
<path fill-rule="evenodd" clip-rule="evenodd" d="M99.561 152.195C99.6262 152.667 100.065 152.996 100.535 152.929C101.008 152.863 101.337 152.426 101.271 151.955C101.11 150.819 100.503 149.853 99.6531 149.213C98.7983 148.57 97.7022 148.252 96.5669 148.411C95.4325 148.572 94.4669 149.179 93.8252 150.03C93.1815 150.884 92.8658 151.98 93.0252 153.115C93.0904 153.587 93.5292 153.916 93.9991 153.85C94.4721 153.784 94.8012 153.346 94.7339 152.874C94.6418 152.207 94.825 151.567 95.1976 151.069C95.5754 150.571 96.1415 150.215 96.809 150.122C97.4756 150.028 98.1152 150.212 98.614 150.585C99.1118 150.962 99.4668 151.528 99.561 152.195Z" fill="#331B38"/>
<path fill-rule="evenodd" clip-rule="evenodd" d="M103.925 157.969C104.245 157.915 105.752 157.58 105.53 156.005L104.154 146.22C104.146 146.17 104.142 146.121 104.142 146.07C104.123 145.926 103.997 145.425 103.2 145.538L91.2075 147.226C90.2792 147.358 90.4551 148.034 90.4561 148.037C90.4706 148.093 90.4789 148.151 90.4841 148.207L90.5483 148.669C91.1133 152.749 92.0676 159.632 96.8749 158.956L103.832 157.977L103.925 157.969ZM68.9529 162.887L77.3743 161.702C82.1817 161.024 81.1985 154.144 80.6148 150.068L80.5485 149.606C80.5382 149.55 80.531 149.493 80.5289 149.434C80.5278 149.433 80.5123 148.732 79.5819 148.863L66.1265 150.757C65.3285 150.87 65.3461 151.384 65.3668 151.528C65.3803 151.576 65.3917 151.626 65.3989 151.676L65.669 153.599L66.7754 161.461C66.9969 163.035 68.539 162.941 68.8608 162.905L68.9529 162.887ZM63.6478 154.992L56.4342 156.008C55.8339 156.093 55.2802 155.675 55.1943 155.074C55.1105 154.474 55.5286 153.919 56.1288 153.834L63.3435 152.819L63.2224 151.973C63.1189 151.41 62.8498 149.002 65.8212 148.584L79.2766 146.69C82.397 146.25 82.6868 148.912 82.7137 149.303L82.7799 149.764L82.8617 150.349L88.4659 149.56L88.3842 148.974L88.32 148.515C88.2372 148.132 87.7808 145.493 90.9032 145.054L102.893 143.365C105.863 142.947 106.27 145.336 106.325 145.906L107.705 155.699C108.201 159.238 104.985 160.001 104.25 160.128L104.137 160.151L97.1792 161.13C91.4021 161.943 89.6261 156.425 88.8002 151.729L83.138 152.526C83.642 157.267 83.4578 163.061 77.6797 163.875L75.5684 164.173L69.2583 165.061L69.1444 165.071C68.4044 165.151 65.1009 165.305 64.602 161.766L63.6478 154.992Z" fill="#331B38"/>
<path d="M153.352 261.771H149.582V276.948H153.352V261.771Z" fill="#331B38"/>
<path fill-rule="evenodd" clip-rule="evenodd" d="M163.266 253.281H139.558C138.291 253.281 137.254 254.317 137.254 255.585V262.86C137.254 264.127 138.291 265.164 139.558 265.164H163.266C164.535 265.164 165.571 264.127 165.571 262.86V255.585C165.571 254.317 164.535 253.281 163.266 253.281Z" fill="#331B38"/>
<path fill-rule="evenodd" clip-rule="evenodd" d="M163.16 254.898C163.475 254.898 163.738 255.163 163.738 255.478V262.752C163.738 263.068 163.475 263.332 163.16 263.332H139.45C139.135 263.332 138.871 263.068 138.871 262.752V255.478C138.871 255.163 139.135 254.898 139.45 254.898H163.16Z" fill="white"/>
<path fill-rule="evenodd" clip-rule="evenodd" d="M153.823 274.505H124.888C122.125 274.505 119.867 276.765 119.867 279.525V319.296C119.867 322.055 122.125 324.315 124.888 324.315H153.823C156.584 324.315 158.842 322.055 158.842 319.296V279.525C158.842 276.765 156.584 274.505 153.823 274.505Z" fill="#4F3F56"/>
<path fill-rule="evenodd" clip-rule="evenodd" d="M106.934 299.59V325.059C106.934 328.588 109.821 331.474 113.349 331.474H165.61C169.138 331.474 172.026 328.588 172.026 325.059V299.59C172.026 298.022 170.744 296.741 169.175 296.741H109.784C108.215 296.741 106.934 298.022 106.934 299.59Z" fill="#3F2C44"/>
<path fill-rule="evenodd" clip-rule="evenodd" d="M114.008 292.315V317.781C114.008 321.313 116.895 324.199 120.423 324.199H158.627C162.154 324.199 165.042 321.313 165.042 317.781V292.315C165.042 290.746 163.76 289.464 162.191 289.464H116.858C115.29 289.464 114.008 290.746 114.008 292.315Z" fill="#3F2C44"/>
<path fill-rule="evenodd" clip-rule="evenodd" d="M164.873 314.415V292.315C164.873 290.746 163.591 289.464 162.022 289.464H119.867V308.01C119.867 311.539 122.757 314.426 126.283 314.426H164.486C164.616 314.426 164.745 314.423 164.873 314.415Z" fill="#4F3F56"/>
<path fill-rule="evenodd" clip-rule="evenodd" d="M126.249 274.505V280.023C126.249 282.783 128.507 285.041 131.268 285.041H158.844V289.581H119.867V279.524C119.867 276.765 122.126 274.505 124.889 274.505H126.249Z" fill="#3F2C44"/>
<path fill-rule="evenodd" clip-rule="evenodd" d="M167.054 296.741V314.611C167.054 316.18 168.335 317.461 169.905 317.461H171.919V319.903H164.543C164.768 319.252 164.89 318.555 164.89 317.828V314.462V296.741H167.054Z" fill="#331B38"/>
<path fill-rule="evenodd" clip-rule="evenodd" d="M111.798 296.741V314.611C111.798 316.18 110.516 317.461 108.947 317.461H106.934V319.903H114.309C114.084 319.252 113.962 318.555 113.962 317.828V314.462V296.741H111.798Z" fill="#331B38"/>
<path fill-rule="evenodd" clip-rule="evenodd" d="M161.387 292.294H139.77C139.053 292.294 138.465 292.881 138.465 293.6C138.465 294.318 139.053 294.905 139.77 294.905H161.387C162.105 294.905 162.692 294.318 162.692 293.6C162.692 292.881 162.105 292.294 161.387 292.294Z" fill="#3F2C44"/>
<path fill-rule="evenodd" clip-rule="evenodd" d="M134.11 292.294H135.286C136.004 292.294 136.592 292.881 136.592 293.6C136.592 294.318 136.004 294.905 135.286 294.905H134.11C133.392 294.905 132.805 294.318 132.805 293.6C132.805 292.881 133.392 292.294 134.11 292.294Z" fill="white"/>
<path fill-rule="evenodd" clip-rule="evenodd" d="M160.856 298.762H152.108C151.276 298.762 150.594 299.442 150.594 300.275V309.803C150.594 310.636 151.276 311.316 152.108 311.316H160.856C161.689 311.316 162.368 310.636 162.368 309.803V300.275C162.368 299.442 161.689 298.762 160.856 298.762Z" fill="white"/>
<path fill-rule="evenodd" clip-rule="evenodd" d="M147.497 298.762H124.553C124.2 298.762 123.91 299.049 123.91 299.402C123.91 299.755 124.2 300.043 124.553 300.043H147.497C147.851 300.043 148.138 299.755 148.138 299.402C148.138 299.049 147.851 298.762 147.497 298.762Z" fill="#3F2C44"/>
<path fill-rule="evenodd" clip-rule="evenodd" d="M147.497 302.603H124.553C124.2 302.603 123.91 302.89 123.91 303.244C123.91 303.597 124.2 303.885 124.553 303.885H147.497C147.851 303.885 148.138 303.597 148.138 303.244C148.138 302.89 147.851 302.603 147.497 302.603Z" fill="#3F2C44"/>
<path fill-rule="evenodd" clip-rule="evenodd" d="M147.497 306.242H124.553C124.2 306.242 123.91 306.529 123.91 306.882C123.91 307.235 124.2 307.523 124.553 307.523H147.497C147.851 307.523 148.138 307.235 148.138 306.882C148.138 306.529 147.851 306.242 147.497 306.242Z" fill="#3F2C44"/>
<path fill-rule="evenodd" clip-rule="evenodd" d="M147.497 310.082H124.553C124.2 310.082 123.91 310.371 123.91 310.723V310.724C123.91 311.076 124.2 311.363 124.553 311.363H147.497C147.851 311.363 148.138 311.076 148.138 310.724V310.723C148.138 310.371 147.851 310.082 147.497 310.082Z" fill="#3F2C44"/>
<path fill-rule="evenodd" clip-rule="evenodd" d="M293.841 337.775H14.3516C28.0399 356.597 50.2221 368.894 75.1396 368.894H293.841C296.315 368.894 298.338 366.87 298.338 364.396V342.275C298.338 339.8 296.315 337.775 293.841 337.775Z" fill="#E9675B"/>
<path fill-rule="evenodd" clip-rule="evenodd" d="M204.932 368.902H201.559H197.647V345.861H204.932V368.902ZM184.76 368.902H172.434V345.861H184.76V368.902ZM152.821 368.902H82.5676V345.861H152.821V368.902ZM75.1977 368.902C71.4211 368.902 67.7087 368.615 64.0781 368.072V345.861H76.4044V368.902H75.1977ZM231.783 368.902H228.726H223.296H222.162V345.861H231.783V368.902Z" fill="#F08770"/>
<path fill-rule="evenodd" clip-rule="evenodd" d="M293.841 337.775H14.3516C18.1281 342.969 22.5474 347.665 27.4955 351.743H298.338V342.274C298.338 339.8 296.315 337.775 293.841 337.775Z" fill="#331B38"/>
<path fill-rule="evenodd" clip-rule="evenodd" d="M340.29 319.987H4.85156C8.60224 329.967 14.4239 338.953 21.7845 346.419H340.29C342.438 346.419 344.198 344.66 344.198 342.513V323.895C344.198 321.746 342.44 319.987 340.29 319.987Z" fill="#F5C7B4"/>
<path fill-rule="evenodd" clip-rule="evenodd" d="M142.896 319.987H125.575V346.419H142.896V319.987ZM292.187 319.987H154.402V346.419H292.187V319.987ZM318.168 319.987H300.847V346.419H318.168V319.987ZM107.468 319.987H97.2305V346.419H107.468V319.987Z" fill="#F4BBA2"/>
<path fill-rule="evenodd" clip-rule="evenodd" d="M291.248 358.596C290.039 358.596 289.059 359.576 289.059 360.784C289.059 361.991 290.039 362.971 291.248 362.971C292.455 362.971 293.437 361.991 293.437 360.784C293.437 359.576 292.455 358.596 291.248 358.596Z" fill="#331B38"/>
<path fill-rule="evenodd" clip-rule="evenodd" d="M7.96455 327.25H80.9609L89.2271 332.024C89.3357 332.087 89.4558 332.117 89.5748 332.117V332.118H344.138V330.717H89.7559L81.5477 325.977C81.4328 325.897 81.2931 325.849 81.142 325.849H7.27734C7.50089 326.319 7.72962 326.786 7.96455 327.25Z" fill="white"/>
<path fill-rule="evenodd" clip-rule="evenodd" d="M198.325 201.161C198.325 201.161 193.987 203.247 189.925 213.718C185.864 224.191 173.256 286.055 173.646 294.589C174.033 303.122 200.443 351.466 200.443 351.466C200.443 351.466 205.731 342.771 206.032 338.614C206.334 334.453 202.624 328.311 202.624 328.311C202.624 328.311 193.905 298.9 191.874 287.607C189.843 276.312 205.959 252.4 205.959 252.4L218.25 220.117C218.25 220.117 207.3 196.368 198.325 201.161Z" fill="#97B2BD"/>
<path fill-rule="evenodd" clip-rule="evenodd" d="M191.813 287.501C189.781 276.207 205.897 252.294 205.897 252.294L210.085 241.299C208.883 233.179 207.56 226.87 206.851 228.753C205.537 232.249 193.59 267.145 191.813 272.928C190.037 278.709 191.813 287.501 191.813 287.501Z" fill="#7E949E"/>
<path fill-rule="evenodd" clip-rule="evenodd" d="M195.464 342.052C198.42 347.634 200.465 351.376 200.465 351.376C200.465 351.376 205.754 342.681 206.055 338.523C206.356 334.363 202.647 328.22 202.647 328.22C202.647 328.22 194.744 301.563 192.234 289.262C193.7 296.851 199.487 326.768 200.097 329.233C200.684 331.609 199.839 337.017 195.464 342.052Z" fill="#7E949E"/>
<path fill-rule="evenodd" clip-rule="evenodd" d="M283.263 212.412L295.663 203.555C297.793 206.266 299.423 209.361 300.632 212.176C303.221 219.363 306.552 230.158 308.669 242.86C312.547 266.132 316.425 298.132 315.262 308.605C314.099 319.077 287.336 346.616 284.232 347.005C281.128 347.392 279.965 338.277 279.965 338.277C279.965 338.277 295.092 315.781 297.031 306.86C298.972 297.938 283.456 248.679 283.456 248.679L283.263 212.412Z" fill="#7E949E"/>
<path fill-rule="evenodd" clip-rule="evenodd" d="M203.576 334.137C203.576 334.137 199.697 348.202 199.309 368.806H287.357C287.357 368.806 290.073 352.269 285.125 340.053L203.576 334.137Z" fill="#331B38"/>
<path fill-rule="evenodd" clip-rule="evenodd" d="M203.576 334.137C203.576 334.137 199.697 348.202 199.309 368.806H287.357C287.357 368.806 290.073 352.269 285.125 340.053L203.576 334.137Z" stroke="#03304B" stroke-width="0.00070625" stroke-miterlimit="1.41421" stroke-linecap="round" stroke-linejoin="round"/>
<path fill-rule="evenodd" clip-rule="evenodd" d="M206.421 310.891C206.421 310.891 203.075 330.181 202.397 334.351C201.717 338.521 201.281 343.763 216.409 349C231.536 354.236 268.287 355.883 280.7 349.873C280.7 349.873 287.438 346.989 286.855 340.976C286.274 334.963 281.377 316.516 281.377 316.516L206.421 310.891Z" fill="white"/>
<path fill-rule="evenodd" clip-rule="evenodd" d="M206.421 310.891C206.421 310.891 203.075 330.181 202.397 334.351C201.793 338.051 201.384 342.596 211.871 347.232C210.621 343.34 209.97 338.774 210.78 334.781C212.46 326.487 218.035 321.571 223.761 321.991C229.486 322.41 252.985 322.969 270.675 322.969C276.739 322.969 280.894 324.199 283.735 325.817C282.5 320.746 281.377 316.516 281.377 316.516L206.421 310.891Z" fill="#E6E4EC"/>
<path fill-rule="evenodd" clip-rule="evenodd" d="M280.686 307.29C280.686 307.29 282.239 309.231 282.529 316.503C282.529 316.503 282.094 318.539 279.96 319.023C277.827 319.508 235.501 324.633 205.829 314.547C205.829 314.547 203.258 313.481 202.629 311.686C201.998 309.892 205.053 303.007 205.053 303.007L280.686 307.29Z" fill="#5F6879"/>
<path fill-rule="evenodd" clip-rule="evenodd" d="M198.301 201.003C198.301 201.003 243.42 171.17 290.478 198.528C293.406 200.437 295.757 203.236 297.612 206.207C298.768 212.532 300.457 226.545 297.208 244.059C292.749 268.106 283.633 294.675 283.05 306.505C283.05 306.505 282.663 311.063 277.815 311.643C272.965 312.226 218.277 314.973 204.897 304.307C204.897 304.307 203.401 302.781 203.784 300.715C208.398 275.842 203.39 273.162 203.556 255.979C203.556 255.979 213.848 211.989 198.301 201.003Z" fill="#97B2BD"/>
<path fill-rule="evenodd" clip-rule="evenodd" d="M198.301 201.003C198.301 201.003 243.42 171.17 290.478 198.528C293.406 200.437 295.757 203.236 297.612 206.207C298.488 210.996 299.669 220.202 298.779 231.994C291.512 231.11 279.283 232.575 261.2 243.773C233.146 261.147 210.689 265.785 213.727 308.348C210.022 307.282 206.964 305.955 204.897 304.307C204.897 304.307 203.401 302.781 203.784 300.715C208.398 275.842 203.39 273.162 203.556 255.979C203.556 255.979 213.848 211.989 198.301 201.003Z" fill="#8EA7B0"/>
<path fill-rule="evenodd" clip-rule="evenodd" d="M209.903 307.106C207.9 306.306 206.203 305.397 204.899 304.359C204.899 304.359 203.404 302.833 203.786 300.767C208.4 275.894 203.392 273.214 203.559 256.031C203.559 256.031 206.695 242.619 206.888 228.758L206.89 228.753C208.205 225.259 211.64 249.972 212.477 262.12C213.164 272.078 208.689 294.334 209.903 307.106Z" fill="#7E949E"/>
<path fill-rule="evenodd" clip-rule="evenodd" d="M255.434 107.116C255.434 107.116 238.952 99.8909 228.091 112.884C217.229 125.879 224.598 142.75 222.853 157.684C221.108 172.616 193.568 197.634 224.987 212.373C224.987 212.373 230.028 213.536 231.386 221.489C232.744 229.439 245.543 248.058 269.205 234.095C292.865 220.13 301.785 192.591 285.107 167.574C268.428 142.556 290.538 107.116 255.434 107.116Z" fill="#4F3F56"/>
<path fill-rule="evenodd" clip-rule="evenodd" d="M230.835 110.166C229.94 110.941 229.069 111.822 228.232 112.824C220.935 121.553 221.867 132.03 222.734 142.495C228.985 151.985 237.882 159.933 250.289 160.677C263.533 161.47 273.199 158.873 279.996 155.54C279.415 153.322 278.994 151.081 278.683 148.842C265.075 153.477 232.702 159.246 230.835 110.166Z" fill="#56455B"/>
<path fill-rule="evenodd" clip-rule="evenodd" d="M223.062 155.043C223.017 155.878 222.949 156.709 222.853 157.534C221.108 172.467 193.568 197.485 224.987 212.223C224.987 212.223 230.028 213.387 231.386 221.339C232.744 229.29 245.543 247.909 269.205 233.945C292.865 219.98 301.785 192.441 285.107 167.424C284.859 167.055 284.623 166.682 284.396 166.309C280.617 203.353 226.146 194.861 223.063 155.041L223.062 155.043Z" fill="#3F2C44"/>
<path fill-rule="evenodd" clip-rule="evenodd" d="M222.982 156.254C222.945 156.691 222.904 157.124 222.853 157.557C221.108 172.489 193.568 197.507 224.987 212.246C224.987 212.246 230.028 213.409 231.386 221.362C232.744 229.312 245.543 247.931 269.205 233.968C292.865 220.003 301.785 192.464 285.107 167.447C285.107 167.447 296.505 185.745 280.867 203.896C265.563 221.659 224.72 213.134 222.982 156.254Z" fill="#331B38"/>
<path fill-rule="evenodd" clip-rule="evenodd" d="M197.756 201.533L197.775 201.645C199.61 203.175 212.913 215.797 204.679 254.434C204.105 255.342 203.381 256.511 202.568 257.875C202.708 257.248 202.85 256.61 202.997 255.959C212.26 214.941 197.551 203.123 196.802 202.551C196.758 202.522 196.718 202.486 196.684 202.448C197.112 202.034 197.475 201.739 197.756 201.533Z" fill="#526776"/>
<path fill-rule="evenodd" clip-rule="evenodd" d="M416.516 191.65C416.516 190.487 413.98 173.638 413.98 173.638C413.98 173.638 428.733 180.207 437.266 196.497C445.8 212.788 455.498 262.824 451.618 280.667C447.739 298.508 425.242 314.411 425.242 314.411L416.516 191.65Z" fill="#E67070"/>
<path fill-rule="evenodd" clip-rule="evenodd" d="M416.516 191.65C416.516 190.487 413.98 173.638 413.98 173.638C413.98 173.638 428.733 180.207 437.266 196.497C438.121 198.129 438.988 200.105 439.852 202.347C436.055 203.879 432.961 206.969 432.094 212.653C429.581 229.129 432.934 273.808 438.517 283.583C441.396 288.622 445.615 289.131 449.481 286.989C442.655 302.099 425.242 314.411 425.242 314.411L416.516 191.65Z" fill="#D95051"/>
<path fill-rule="evenodd" clip-rule="evenodd" d="M317.37 351.962C317.37 351.962 315.527 355.774 317.37 368.754H416.763C416.763 368.754 423.066 364.375 422.678 348.084L317.37 351.962Z" fill="#331B38"/>
<path fill-rule="evenodd" clip-rule="evenodd" d="M317.122 344.738C317.122 344.738 314.504 351.14 315.281 353.661C316.056 356.182 323.62 364.328 349.995 365.296C376.37 366.266 403.715 363.745 413.8 357.734C423.884 351.721 425.728 348.425 424.757 339.988C423.787 331.552 317.122 344.738 317.122 344.738Z" fill="white"/>
<path fill-rule="evenodd" clip-rule="evenodd" d="M335.749 183.95L322.368 179.298C322.368 179.298 308.598 192.483 298.903 214.98C289.205 237.478 278.345 266.567 277.568 275.488C276.794 284.409 291.533 318.93 319.46 330.179C347.386 341.427 328.381 311.173 328.381 311.173C328.381 311.173 308.211 280.531 307.434 275.102C306.66 269.67 319.46 259.782 319.46 259.782C319.46 259.782 359.799 242.131 358.247 236.702C356.695 231.271 335.749 183.95 335.749 183.95Z" fill="#E67070"/>
<path fill-rule="evenodd" clip-rule="evenodd" d="M307.417 275.155C306.643 269.724 319.443 259.836 319.443 259.836C319.443 259.836 324.923 257.437 331.769 254.136C334.659 226.348 333.016 211.697 331.094 220.035C328.86 229.73 320.204 241.896 312.244 259.069C304.286 276.243 307.417 275.155 307.417 275.155ZM277.539 276.79C278.031 287.302 292.679 319.453 319.443 330.232C324.698 332.349 328.288 332.995 330.659 332.651C329.36 325.687 328.547 318.336 328.147 310.896C326.756 308.774 318.91 296.748 313.276 287.058C310.527 300.307 297.81 305.371 289.347 296.908C280.564 288.124 277.636 277.163 277.539 276.79Z" fill="#D95051"/>
<path fill-rule="evenodd" clip-rule="evenodd" d="M364.722 83.6855C373.983 83.6855 381.562 91.2459 381.562 100.487V134.014C381.562 143.255 373.983 150.816 364.722 150.816C355.46 150.816 347.883 143.255 347.883 134.014V100.487C347.883 91.2459 355.46 83.6855 364.722 83.6855Z" fill="#F5AE85"/>
<path fill-rule="evenodd" clip-rule="evenodd" d="M363.819 130.986H383.539C385.079 130.986 386.339 132.247 386.339 133.787V172.079C386.339 173.618 385.079 174.879 383.539 174.879H363.819C362.279 174.879 361.02 173.618 361.02 172.079V133.787C361.02 132.247 362.279 130.986 363.819 130.986Z" fill="#F19576"/>
<path fill-rule="evenodd" clip-rule="evenodd" d="M344.561 108.782C344.561 108.782 333.421 107.161 330.991 96.223C328.559 85.2856 334.84 69.6878 357.12 76.7782C357.12 76.7782 366.46 76.7782 375.647 76.7782C388.151 76.7782 398.489 79.2746 404.574 87.5366C414.428 100.922 411.943 130.838 399.868 142.719C386.102 156.267 363.763 149.3 363.891 131.026V131.025C365.444 129.473 366.405 127.326 366.405 124.957C366.405 122.262 365.168 119.851 363.221 118.284C360.889 116.409 357.821 116.881 357.821 125.09V132.324C357.821 132.324 352.859 131.211 352.859 125.842C352.859 120.475 352.859 108.119 344.561 108.782Z" fill="#3F2C44"/>
<path fill-rule="evenodd" clip-rule="evenodd" d="M354.352 76.0044C355.209 76.2197 356.088 76.467 356.998 76.7568H370.505C373.609 102.487 396.102 108.213 410.527 109.201C410.566 111.036 410.523 112.889 410.394 114.743C374.643 117.26 359.843 90.9729 354.352 76.0044Z" fill="#4F3F56"/>
<path fill-rule="evenodd" clip-rule="evenodd" d="M344.561 108.676C344.561 108.676 333.421 107.055 330.99 96.1164C330.109 92.1494 330.374 87.5718 332.131 83.6855C332.072 83.9836 329.227 98.4813 339.591 98.4813C350.064 98.4813 366.259 99.8774 368.912 109.79C371.439 119.232 379.538 145.391 407.565 129.522C405.755 134.764 403.17 139.364 399.868 142.613C386.102 156.16 363.763 149.193 363.891 130.92V130.919C365.444 129.366 366.405 127.22 366.405 124.851C366.405 122.156 365.168 119.744 363.221 118.177C360.889 116.302 357.821 116.774 357.821 124.983V132.218C357.821 132.218 352.859 131.104 352.859 125.736C352.859 120.368 352.859 108.012 344.561 108.676Z" fill="#331B38"/>
<path fill-rule="evenodd" clip-rule="evenodd" d="M344.066 168.981C344.066 168.981 329.035 172.665 322.246 179.258C322.246 179.258 343.773 220.179 319.337 259.742C319.337 259.742 312.742 326.842 313.13 334.213C313.516 341.582 314.875 345.267 319.337 349.34C323.796 353.412 352.111 360.975 385.856 356.709C419.6 352.443 426.001 342.163 426.776 337.897C427.551 333.63 431.238 306.674 428.524 262.845C425.807 219.014 430.521 176.674 410.419 172.147C390.318 167.62 344.066 168.981 344.066 168.981Z" fill="#E67070"/>
<path fill-rule="evenodd" clip-rule="evenodd" d="M344.113 169.18C344.113 169.18 335.748 171.23 328.68 175.008C328.926 174.911 337.094 171.733 340.395 178.747C343.746 185.867 339.37 226.605 386.934 226.605C386.934 226.605 371.39 187.52 371.39 181.259C371.39 178.117 365.895 173.154 360.417 168.989C350.906 168.98 344.113 169.18 344.113 169.18Z" fill="#D95051"/>
<path fill-rule="evenodd" clip-rule="evenodd" d="M330.986 220.044C330.739 232.305 327.789 246.151 319.337 259.836C319.337 259.836 312.742 326.936 313.13 334.307C313.516 341.676 314.875 345.361 319.337 349.434C321.294 351.222 327.854 353.682 337.451 355.52C326.813 332.287 325.985 296.288 329.872 268.702C335.08 231.724 333.223 210.34 330.988 220.035L330.986 220.044Z" fill="#D95051"/>
<path fill-rule="evenodd" clip-rule="evenodd" d="M344.043 169.175C344.043 169.175 348.017 168.98 350.345 172.859C352.673 176.738 352.383 222.894 381.279 226.579C399.657 228.924 409.72 208.985 412.017 190.919C413.911 176.008 409.284 156.53 386.657 157.286C386.537 157.291 386.307 157.27 386.307 157.392V160.593C384.761 167.379 374.692 165.837 369.835 162.875C361.863 158.01 351.294 153.906 344.043 169.175Z" fill="white"/>
<path fill-rule="evenodd" clip-rule="evenodd" d="M388.679 157.272C388.051 157.259 387.408 157.263 386.749 157.284C386.629 157.29 386.4 157.269 386.4 157.39V160.591C385.026 166.618 376.93 166.075 371.734 163.804C395.503 179.293 398.532 158.449 388.679 157.272Z" fill="#F8CFBF"/>
<path fill-rule="evenodd" clip-rule="evenodd" d="M59.0386 197.447L56.4513 197.288C56.4513 197.288 53.3133 199.332 52.477 201.53C51.6387 203.73 40.5368 230.978 34.9688 249.557C34.9688 249.557 48.5318 251.236 51.6025 261.498C51.6025 261.498 69.2847 237.726 70.243 233.783C71.2004 229.838 74.1241 211.875 59.0386 197.447Z" fill="white"/>
<path fill-rule="evenodd" clip-rule="evenodd" d="M59.0071 197.447L56.4197 197.288C56.4197 197.288 55.0918 198.152 53.9348 199.361C71.7422 205.699 61.1029 236.629 54.6613 246.172C51.7158 250.535 48.2539 252.544 45.2773 253.418C47.9879 255.208 50.4635 257.796 51.5709 261.498C51.5709 261.498 69.2532 237.726 70.2115 233.783C71.1689 229.838 74.0926 211.875 59.0071 197.447Z" fill="#FEF2F1"/>
<path fill-rule="evenodd" clip-rule="evenodd" d="M155.523 212.016L156.713 212.597C154.163 216.235 149.802 224.25 153.145 232.983L151.682 232.814C148.612 223.923 152.876 215.855 155.523 212.016ZM153.08 210.832C150.473 214.432 145.498 223.023 148.937 232.498L150.415 232.669C146.657 223.324 151.807 214.756 154.281 211.412L153.08 210.832Z" fill="#3F2C44"/>
<path fill-rule="evenodd" clip-rule="evenodd" d="M35.7693 246.754C35.6348 247.18 35.5044 247.603 35.375 248.022C39.5345 248.586 48.8605 250.814 53.0335 259.549L53.9091 258.354C49.4266 249.741 40.1731 247.392 35.7693 246.754ZM36.5911 244.185C40.6585 244.67 50.8611 246.805 55.5536 256.099L54.6739 257.308C50.2991 247.818 39.8967 245.858 36.1802 245.458C36.3158 245.035 36.4534 244.611 36.5911 244.185Z" fill="#3F2C44"/>
<path fill-rule="evenodd" clip-rule="evenodd" d="M93.7646 193.886C93.4603 215.674 63.314 188.896 76.5201 188.596C76.5201 188.596 80.336 193.156 93.7646 193.886Z" fill="#3F2C44"/>
<path fill-rule="evenodd" clip-rule="evenodd" d="M96.9869 187.888C96.9869 187.888 99.1541 192.396 93.793 193.8C93.793 193.8 95.7729 199.782 99.6374 198.82C103.504 197.86 102.204 186.615 96.9869 187.888Z" fill="#3F2C44"/>
<path fill-rule="evenodd" clip-rule="evenodd" d="M83.5221 222.149L92.3813 221.347C92.9598 221.295 93.4328 221.729 93.4328 222.311V225.167C93.4328 225.749 92.9598 226.267 92.3813 226.321L83.5221 227.123C82.9456 227.175 82.4727 226.741 82.4727 226.158V223.303C82.4727 222.721 82.9456 222.202 83.5221 222.149Z" fill="white"/>
<path fill-rule="evenodd" clip-rule="evenodd" d="M189.076 64.4824H138.813C134.62 64.4824 131.188 67.9143 131.188 72.108V125.896C131.188 126.249 131.388 126.548 131.713 126.682C132.038 126.817 132.393 126.746 132.641 126.498L145.636 113.504H189.076C193.27 113.504 196.7 110.073 196.7 105.879V72.108C196.7 67.9133 193.268 64.4824 189.076 64.4824Z" fill="white"/>
<path fill-rule="evenodd" clip-rule="evenodd" d="M253.223 35.3745H303.484C307.678 35.3745 311.11 38.8064 311.11 43.0001V96.7877C311.11 97.1396 310.91 97.4397 310.582 97.5753C310.261 97.7098 309.906 97.6384 309.656 97.3911L296.663 84.3972H253.223C249.03 84.3972 245.598 80.9653 245.598 76.7717V43.0001C245.598 38.8054 249.031 35.3745 253.223 35.3745Z" fill="white"/>
<path fill-rule="evenodd" clip-rule="evenodd" d="M112.829 57.9673C112.829 57.5461 112.486 57.2056 112.066 57.2056C111.645 57.2056 111.303 57.5461 111.303 57.9673V59.7598H109.512C109.09 59.7598 108.75 60.1003 108.75 60.5205C108.75 60.9417 109.09 61.2822 109.512 61.2822H111.303V63.0758C111.303 63.496 111.645 63.8365 112.066 63.8365C112.486 63.8365 112.829 63.496 112.829 63.0758V61.2822H114.621C115.04 61.2822 115.382 60.9417 115.382 60.5205C115.382 60.1003 115.04 59.7598 114.621 59.7598H112.829V57.9673Z" fill="white"/>
<path fill-rule="evenodd" clip-rule="evenodd" d="M315.37 146.1C315.37 145.68 315.028 145.338 314.609 145.338C314.187 145.338 313.846 145.68 313.846 146.1V147.893H312.054C311.635 147.893 311.293 148.233 311.293 148.654C311.293 149.076 311.635 149.416 312.054 149.416H313.846V151.209C313.846 151.63 314.187 151.97 314.609 151.97C315.028 151.97 315.37 151.63 315.37 151.209V149.416H317.163C317.583 149.416 317.925 149.076 317.925 148.654C317.925 148.233 317.583 147.893 317.163 147.893H315.37V146.1Z" fill="white"/>
<path fill-rule="evenodd" clip-rule="evenodd" d="M293.543 13.6998C293.543 13.2786 293.203 12.937 292.781 12.937C292.362 12.937 292.02 13.2786 292.02 13.6998V15.4913H290.228C289.806 15.4913 289.465 15.8318 289.465 16.252C289.465 16.6733 289.806 17.0148 290.228 17.0148H292.02V18.8074C292.02 19.2276 292.362 19.5701 292.781 19.5701C293.203 19.5701 293.543 19.2276 293.543 18.8074V17.0148H295.336C295.756 17.0148 296.097 16.6733 296.097 16.252C296.097 15.8318 295.756 15.4913 295.336 15.4913H293.543V13.6998Z" fill="white"/>
<path fill-rule="evenodd" clip-rule="evenodd" d="M191.867 28.8594C191.867 28.4392 191.525 28.0977 191.106 28.0977C190.684 28.0977 190.343 28.4392 190.343 28.8594V30.6509H188.551C188.13 30.6509 187.789 30.9925 187.789 31.4127C187.789 31.8339 188.13 32.1754 188.551 32.1754H190.343V33.968C190.343 34.3882 190.684 34.7287 191.106 34.7287C191.525 34.7287 191.867 34.3882 191.867 33.968V32.1754H193.659C194.08 32.1754 194.422 31.8339 194.422 31.4127C194.422 30.9925 194.08 30.6509 193.659 30.6509H191.867V28.8594Z" fill="white"/>
<path fill-rule="evenodd" clip-rule="evenodd" d="M426.953 156.814C426.953 156.393 426.611 156.052 426.192 156.052C425.769 156.052 425.429 156.393 425.429 156.814V158.606H423.637C423.217 158.606 422.875 158.948 422.875 159.368C422.875 159.789 423.217 160.131 423.637 160.131H425.429V161.922C425.429 162.343 425.769 162.685 426.192 162.685C426.611 162.685 426.953 162.343 426.953 161.922V160.131H428.745C429.166 160.131 429.508 159.789 429.508 159.368C429.508 158.948 429.166 158.606 428.745 158.606H426.953V156.814Z" fill="white"/>
<path fill-rule="evenodd" clip-rule="evenodd" d="M144.364 194.412C144.364 193.99 144.022 193.649 143.602 193.649C143.18 193.649 142.838 193.99 142.838 194.412V196.206H141.048C140.626 196.206 140.285 196.545 140.285 196.965C140.285 197.387 140.626 197.727 141.048 197.727H142.838V199.521C142.838 199.941 143.18 200.281 143.602 200.281C144.022 200.281 144.364 199.941 144.364 199.521V197.727H146.155C146.576 197.727 146.917 197.387 146.917 196.965C146.917 196.545 146.576 196.206 146.155 196.206H144.364V194.412Z" fill="white"/>
<path fill-rule="evenodd" clip-rule="evenodd" d="M221.986 49.4766C221.986 49.0574 221.643 48.7148 221.223 48.7148C220.802 48.7148 220.46 49.0574 220.46 49.4766V51.2691H218.669C218.248 51.2691 217.906 51.6096 217.906 52.0309C217.906 52.4521 218.248 52.7926 218.669 52.7926H220.46V54.5851C220.46 55.0064 220.802 55.3469 221.223 55.3469C221.643 55.3469 221.986 55.0064 221.986 54.5851V52.7926H223.776C224.199 52.7926 224.539 52.4521 224.539 52.0309C224.539 51.6096 224.199 51.2691 223.776 51.2691H221.986V49.4766Z" fill="#709ED4"/>
<path fill-rule="evenodd" clip-rule="evenodd" d="M296.978 126.493C296.978 126.071 296.637 125.731 296.214 125.731C295.795 125.731 295.454 126.071 295.454 126.493V128.284H293.66C293.24 128.284 292.898 128.626 292.898 129.047C292.898 129.468 293.24 129.809 293.66 129.809H295.454V131.601C295.454 132.021 295.795 132.363 296.214 132.363C296.637 132.363 296.978 132.021 296.978 131.601V129.809H298.769C299.19 129.809 299.53 129.468 299.53 129.047C299.53 128.626 299.19 128.284 298.769 128.284H296.978V126.493Z" fill="#709ED4"/>
<path fill-rule="evenodd" clip-rule="evenodd" d="M143.351 143.878C143.351 143.456 143.011 143.115 142.589 143.115C142.169 143.115 141.827 143.456 141.827 143.878V145.669H140.035C139.615 145.669 139.273 146.01 139.273 146.431C139.273 146.851 139.615 147.194 140.035 147.194H141.827V148.985C141.827 149.406 142.169 149.747 142.589 149.747C143.011 149.747 143.351 149.406 143.351 148.985V147.194H145.144C145.565 147.194 145.904 146.851 145.904 146.431C145.904 146.01 145.565 145.669 145.144 145.669H143.351V143.878Z" fill="#709ED4"/>
<path fill-rule="evenodd" clip-rule="evenodd" d="M173.269 245.957C173.269 245.537 172.929 245.195 172.507 245.195C172.087 245.195 171.746 245.537 171.746 245.957V247.749H169.953C169.533 247.749 169.191 248.09 169.191 248.511C169.191 248.932 169.533 249.273 169.953 249.273H171.746V251.066C171.746 251.487 172.087 251.828 172.507 251.828C172.929 251.828 173.269 251.487 173.269 251.066V249.273H175.062C175.483 249.273 175.823 248.932 175.823 248.511C175.823 248.09 175.483 247.749 175.062 247.749H173.269V245.957Z" fill="#709ED4"/>
<path fill-rule="evenodd" clip-rule="evenodd" d="M180.732 182.542C180.774 177.151 183.085 174.844 184.177 172.579C184.957 170.966 185.548 164.549 185.517 163.004C185.488 161.546 184.294 150.417 181.936 156.845C181.936 156.845 181.982 153.747 181.007 151.91C180.031 150.073 178.652 153.942 178.652 153.942C178.652 153.942 178.455 149.942 176.622 149.988C174.791 150.033 175.31 156.481 174.996 154.67C174.679 152.858 174.209 150.092 172.232 150.39C172.121 150.459 172.008 150.528 171.896 150.6C171.502 150.857 171.128 163.83 171.226 165.78C169.058 162.875 167.435 162.423 166.342 161.965C165.532 161.626 164.486 162.017 164.345 162.468C164.223 162.856 166.33 165.452 166.497 166.232C167.813 172.422 171.975 173.351 174.228 177.714C174.107 178.504 174.731 180.793 174.563 181.775C178.089 182.355 178.172 182.013 180.732 182.542Z" fill="#F5AE85"/>
</svg>
