<svg width="529" height="409" viewBox="0 0 529 409" fill="none" xmlns="http://www.w3.org/2000/svg">
<path d="M89.3135 146.188C89.7525 226.487 155.201 291.225 235.5 290.788C315.799 290.349 380.537 224.899 380.099 144.602C379.66 64.303 314.21 -0.435175 233.913 0.00220323C153.614 0.441149 88.8762 65.8895 89.3135 146.188Z" fill="#D1DDE8"/>
<path d="M0.0015564 255.259C0.178703 287.738 26.6518 313.925 59.1322 313.749C91.6127 313.57 117.799 287.097 117.62 254.617C117.445 222.138 90.9699 195.952 58.4911 196.129C26.0107 196.306 -0.175583 222.779 0.0015564 255.259Z" fill="#E7EDF4"/>
<path d="M343.949 300.44H343.947L387.13 225.539L458.109 269.936L414.119 346.454C413.147 348.363 411.961 350.174 410.536 351.848C398.392 366.125 374.167 365.467 356.431 350.378C339.97 336.375 334.891 314.873 343.949 300.44Z" fill="#235196"/>
<path d="M370.519 322.117C366.477 318.681 363.09 314.822 360.354 310.736C360.556 310.371 360.734 309.996 360.956 309.64L377.727 280.549C380.249 284.023 383.256 287.308 386.749 290.28C405.984 306.642 432.238 307.375 445.445 291.942L424.718 327.995C410.651 338.857 387.773 336.796 370.519 322.117Z" fill="#4DD0E1"/>
<path d="M399.781 275.17C417.518 290.258 441.741 290.917 453.886 276.64C466.029 262.365 461.495 238.56 443.757 223.473C426.021 208.384 401.797 207.726 389.654 222.001C377.509 236.278 382.045 260.081 399.781 275.17Z" fill="#235196"/>
<path d="M376.223 265.96L376.296 258.984L377.928 259.001C380.568 253.764 386.005 250.188 392.264 250.254C398.524 250.321 403.884 254.012 406.413 259.302L408.043 259.32L407.969 266.296C407.877 275.064 400.695 282.095 391.929 282.002C383.161 281.91 376.13 274.727 376.223 265.96Z" fill="#D1DDE8"/>
<path d="M392 275.015C400.767 275.108 407.95 268.077 408.042 259.309C408.135 250.542 401.104 243.361 392.336 243.269C383.569 243.174 376.388 250.207 376.294 258.973C376.201 267.74 383.234 274.923 392 275.015Z" fill="#E7EDF4"/>
<path d="M407.661 255.739C407.915 256.891 408.055 258.088 408.042 259.318C408.03 260.549 407.863 261.74 407.586 262.888L376.676 262.56C376.424 261.408 376.281 260.213 376.295 258.981C376.308 257.751 376.474 256.559 376.752 255.412L407.661 255.739Z" fill="white"/>
<path d="M402.28 233.717L408.684 230.947L409.331 232.444C415.19 232.726 420.667 236.238 423.152 241.983C425.638 247.729 424.447 254.126 420.642 258.589L421.29 260.087L414.886 262.857C406.839 266.338 397.494 262.637 394.014 254.589C390.532 246.543 394.233 237.199 402.28 233.717Z" fill="#D1DDE8"/>
<path d="M400.392 251.815C403.873 259.862 413.219 263.563 421.264 260.081C429.311 256.601 433.012 247.256 429.53 239.209C426.05 231.163 416.705 227.461 408.659 230.943C400.612 234.423 396.911 243.768 400.392 251.815Z" fill="#E7EDF4"/>
<path d="M424.391 258.27C423.441 258.971 422.406 259.586 421.276 260.075C420.145 260.564 418.99 260.896 417.828 261.109L405.555 232.739C406.507 232.039 407.54 231.424 408.67 230.935C409.8 230.446 410.956 230.114 412.117 229.9L424.391 258.27Z" fill="white"/>
<path d="M415.287 278.629L416.898 271.841L418.486 272.219C422.217 267.693 428.309 265.406 434.4 266.852C440.492 268.299 444.903 273.081 446.201 278.8L447.789 279.177L446.178 285.965C444.151 294.495 435.594 299.767 427.063 297.742C418.533 295.716 413.261 287.158 415.287 278.629Z" fill="#D1DDE8"/>
<path d="M428.669 290.954C437.198 292.98 445.756 287.708 447.782 279.178C449.807 270.647 444.535 262.09 436.005 260.063C427.476 258.038 418.918 263.31 416.893 271.841C414.866 280.371 420.139 288.929 428.669 290.954Z" fill="#E7EDF4"/>
<path d="M448.215 275.603C448.207 276.784 448.082 277.98 447.796 279.178C447.513 280.375 447.086 281.501 446.563 282.559L416.488 275.415C416.496 274.235 416.622 273.039 416.907 271.841C417.191 270.643 417.616 269.518 418.141 268.459L448.215 275.603Z" fill="white"/>
<path d="M387.03 200.464L388.642 193.676L390.23 194.052C393.961 189.528 400.053 187.241 406.143 188.687C412.234 190.134 416.647 194.916 417.945 200.635L419.531 201.012L417.92 207.8C415.894 216.33 407.336 221.602 398.807 219.577C390.277 217.551 385.005 208.993 387.03 200.464Z" fill="#D1DDE8"/>
<path d="M400.411 212.79C408.941 214.816 417.499 209.544 419.524 201.012C421.549 192.483 416.277 183.926 407.748 181.899C399.218 179.874 390.66 185.146 388.635 193.677C386.608 202.207 391.881 210.765 400.411 212.79Z" fill="#E7EDF4"/>
<path d="M419.957 197.437C419.949 198.617 419.824 199.813 419.538 201.011C419.255 202.209 418.828 203.334 418.305 204.393L388.231 197.249C388.239 196.068 388.364 194.872 388.649 193.674C388.933 192.477 389.358 191.351 389.881 190.293L419.957 197.437Z" fill="white"/>
<path d="M425.425 145.578L427.037 138.79L428.625 139.168C432.356 134.642 438.448 132.355 444.538 133.802C450.628 135.249 455.041 140.031 456.339 145.749L457.926 146.127L456.314 152.915C454.289 161.445 445.731 166.717 437.201 164.691C428.672 162.666 423.4 154.108 425.425 145.578Z" fill="#D1DDE8"/>
<path d="M438.809 157.902C447.339 159.927 455.897 154.655 457.922 146.126C459.948 137.596 454.676 129.038 446.146 127.013C437.616 124.986 429.059 130.259 427.033 138.789C425.006 147.32 430.28 155.877 438.809 157.902Z" fill="#E7EDF4"/>
<path d="M458.355 142.551C458.348 143.731 458.222 144.929 457.937 146.125C457.653 147.323 457.227 148.449 456.703 149.507L426.629 142.364C426.637 141.182 426.762 139.988 427.046 138.79C427.331 137.591 427.756 136.467 428.28 135.409L458.355 142.551Z" fill="white"/>
<path d="M451.43 183.607L457.998 176.734L459.793 178.756C475.94 172.703 496.765 180.537 509.425 198.56C519.476 212.87 521.727 229.838 516.64 242.801L518.463 244.855L508.718 254.572L508.712 254.564C507.735 255.467 506.704 256.321 505.594 257.1C488.97 268.776 463.734 261.499 449.225 240.845C435.22 220.904 436.046 199.539 451.43 183.607Z" fill="#D1DDE8"/>
<path d="M490.709 262.518C492.01 262.408 493.291 262.206 494.556 261.932L518.645 235.498L523.555 230.113L521.76 228.464L519.139 231.339L490.709 262.518Z" fill="#E7EDF4"/>
<path d="M480.96 262.109C481.93 262.273 482.919 262.421 483.89 262.511L513.421 230.107L511.626 228.458L480.96 262.109Z" fill="#E7EDF4"/>
<path d="M472.858 259.842C473.681 260.17 474.525 260.463 475.368 260.72L503.268 230.11L501.471 228.46L472.858 259.842Z" fill="#E7EDF4"/>
<path d="M465.828 256.406C466.56 256.828 467.295 257.25 468.026 257.634L493.123 230.1L491.309 228.451L465.828 256.406Z" fill="#E7EDF4"/>
<path d="M459.644 252.077C460.286 252.59 460.927 253.085 461.586 253.56L482.982 230.095L481.168 228.446L459.644 252.077Z" fill="#E7EDF4"/>
<path d="M454.17 246.956C454.72 247.56 455.288 248.128 455.874 248.696L472.836 230.104L471.023 228.454L454.17 246.956Z" fill="#E7EDF4"/>
<path d="M449.28 240.932C449.757 241.61 450.253 242.288 450.766 242.929L471.555 220.123L469.761 218.473L449.28 240.932Z" fill="#E7EDF4"/>
<path d="M445.053 234.102C445.437 234.853 445.859 235.604 446.297 236.335L471.541 208.639L469.746 206.99L445.053 234.102Z" fill="#E7EDF4"/>
<path d="M441.677 226.306C441.971 227.167 442.281 228.027 442.648 228.871L471.556 197.161L469.761 195.513L441.677 226.306Z" fill="#E7EDF4"/>
<path d="M439.564 217.159C439.693 218.184 439.858 219.212 440.059 220.237L471.567 185.688L469.771 184.039L439.564 217.159Z" fill="#E7EDF4"/>
<path d="M439.361 209.499L469.166 176.817L471.547 174.198L469.752 172.55L465.502 177.22L439.893 205.303C439.618 206.696 439.454 208.088 439.361 209.499Z" fill="#E7EDF4"/>
<path d="M458.153 231.908C472.66 252.562 497.898 259.839 514.521 248.163C531.145 236.485 532.86 210.277 518.351 189.622C503.844 168.969 478.606 161.69 461.983 173.368C445.359 185.044 443.644 211.254 458.153 231.908Z" fill="#E7EDF4"/>
<path d="M480.863 171.593C493.306 171.593 506.731 178.75 515.679 191.488C528.906 210.318 527.341 234.21 512.187 244.856C507.286 248.299 501.564 249.934 495.616 249.934C483.175 249.934 469.75 242.776 460.802 230.037C447.575 211.21 449.138 187.315 464.293 176.671C469.193 173.228 474.917 171.593 480.863 171.593ZM480.863 173.161C475.077 173.161 469.657 174.818 465.193 177.953C450.77 188.085 449.377 211.045 462.084 229.137C470.415 240.998 483.265 248.366 495.616 248.366C501.404 248.366 506.822 246.709 511.287 243.574C525.709 233.442 527.104 210.482 514.397 192.39C506.065 180.529 493.215 173.161 480.863 173.161Z" fill="white"/>
<path d="M118.474 408.796L337.417 371.439C343.131 370.464 347.138 365.262 346.624 359.489L318.837 47.3121C318.323 41.5384 313.46 37.127 307.662 37.1772L85.5638 39.0772C79.0705 39.1321 74.0054 44.7161 74.5807 51.1843L105.525 398.818C106.1 405.286 112.073 409.889 118.474 408.796Z" fill="#4DD0E1"/>
<path d="M119.552 397.729L334.595 361.038L308.169 64.1687L90.0288 66.034L119.552 397.729Z" fill="#E7EDF4"/>
<path d="M89.9961 66.0205L308.138 64.155C308.138 64.155 337.075 308.546 355.587 324.21L137.713 371.771L89.9961 66.0205Z" fill="white"/>
<path d="M355.602 324.222C355.602 324.222 379.542 312.647 377.413 279.786L183.063 325.415C183.063 325.415 142.881 404.807 134.601 351.748L137.728 371.783L355.602 324.222Z" fill="#E7EDF4"/>
<path d="M230.611 53.3484C230.879 56.3599 233.538 58.5844 236.549 58.3148C239.561 58.0483 241.785 55.3895 241.517 52.378C241.249 49.365 238.59 47.142 235.579 47.4101C232.567 47.6782 230.343 50.3369 230.611 53.3484Z" fill="#235196"/>
<path d="M152.502 53.2415C152.77 56.2529 155.428 58.4774 158.44 58.2094C161.451 57.9413 163.676 55.2826 163.408 52.2711C163.14 49.2596 160.481 47.0351 157.469 47.3031C154.458 47.5712 152.233 50.23 152.502 53.2415Z" fill="#235196"/>
<path d="M236.063 52.8763L237.795 72.3325C238.071 75.4428 235.619 78.1188 232.497 78.1141L206.506 78.0702L206.428 77.1484C206.183 74.2796 203.794 72.0676 200.913 72.0472L198.431 72.0284C195.161 72.0049 192.573 74.7875 192.833 78.0482L165.035 78.0028C162.289 77.9981 159.998 75.899 159.754 73.1618L157.938 52.7603" stroke="#235196" stroke-width="0.0312498" stroke-miterlimit="10" stroke-linejoin="round"/>
<path d="M279.16 113.034L140.986 116.677" stroke="#E7EDF4" stroke-width="0.0312498" stroke-miterlimit="10" stroke-linecap="round"/>
<path d="M281 133.777L142.826 137.42" stroke="#E7EDF4" stroke-width="0.0312498" stroke-miterlimit="10" stroke-linecap="round"/>
<path d="M284.406 154.376L146.232 158.02" stroke="#E7EDF4" stroke-width="0.0312498" stroke-miterlimit="10" stroke-linecap="round"/>
<path d="M287.844 174.977L149.669 178.62" stroke="#E7EDF4" stroke-width="0.0312498" stroke-miterlimit="10" stroke-linecap="round"/>
<path d="M291.246 195.577L153.072 199.22" stroke="#E7EDF4" stroke-width="0.0312498" stroke-miterlimit="10" stroke-linecap="round"/>
<path d="M224.367 247.233C225.436 259.245 236.04 268.115 248.05 267.046C260.061 265.976 268.931 255.373 267.862 243.361C266.793 231.351 256.189 222.482 244.179 223.551C232.168 224.62 223.298 235.222 224.367 247.233Z" fill="#E7EDF4"/>
<path d="M286.476 259.022C292.568 251.585 295.328 241.519 293.886 232.015C293.535 229.709 292.608 227.061 290.363 226.423C287.057 225.481 284.679 229.517 283.618 232.787C282.246 237.009 280.876 241.231 279.506 245.453C279.247 246.249 278.94 247.111 278.228 247.555C274.881 249.641 273.309 240.044 269.631 241.475C267.625 242.256 268.252 245.352 267.059 247.146C265.718 249.162 262.603 248.817 260.485 247.647C258.366 246.476 256.452 244.689 254.045 244.441C251.727 244.203 249.449 245.468 247.134 245.219C243.106 244.783 239.952 239.939 236.053 241.036" stroke="#D1DDE8" stroke-width="0.0312498" stroke-miterlimit="10" stroke-linecap="round"/>
<path d="M247.712 377.772L281.622 364.726C287.785 362.355 294.703 365.428 297.075 371.59C299.445 377.753 296.372 384.671 290.208 387.043L256.298 400.089C250.136 402.461 243.218 399.387 240.847 393.223C238.475 387.06 241.55 380.144 247.712 377.772Z" fill="white"/>
<path d="M247.694 377.77L264.648 371.247L273.234 393.564L256.28 400.087C250.118 402.459 243.2 399.385 240.829 393.221C238.457 387.058 241.532 380.142 247.694 377.77Z" fill="#235196"/>
<path d="M197.088 335.978L232.052 345.862C238.405 347.659 242.1 354.266 240.304 360.62C238.507 366.974 231.901 370.669 225.546 368.872L190.582 358.988C184.228 357.192 180.533 350.584 182.33 344.23C184.127 337.876 190.734 334.181 197.088 335.978Z" fill="white"/>
<path d="M197.074 335.978L214.555 340.921L208.049 363.929L190.568 358.988C184.214 357.192 180.519 350.584 182.316 344.23C184.112 337.876 190.72 334.181 197.074 335.978Z" fill="#235196"/>
<path d="M377.448 64.8046H389.492V52.7603H402.913V64.8046H414.957V78.2254H402.913V90.2697H389.492V78.2254H377.448V64.8046Z" fill="#4DD0E1"/>
<path d="M343.258 113.183H351.434V105.006H360.546V113.183H368.723V122.294H360.546V130.471H351.434V122.294H343.258V113.183Z" fill="#235196"/>
<path d="M22.4489 91.8708H30.6259V83.6938H39.7371V91.8708H47.9141V100.982H39.7371V109.159H30.6259V100.982H22.4489V91.8708Z" fill="#4DD0E1"/>
<path d="M69.3052 335.178L12.0526 168.56C10.8737 165.132 13.0528 161.275 16.9186 159.947L113.172 126.873C117.037 125.544 121.127 127.246 122.306 130.674L179.559 297.292C180.738 300.72 178.557 304.577 174.691 305.905L78.4384 338.979C74.5726 340.307 70.4825 338.606 69.3052 335.178Z" fill="#235196"/>
<path d="M83.7224 153.259L105.687 145.796C109.678 144.44 114.013 146.575 115.369 150.568C116.726 154.559 114.59 158.893 110.598 160.249L88.6339 167.713C84.6426 169.069 80.3081 166.934 78.952 162.943C77.5944 158.951 79.7312 154.615 83.7224 153.259Z" fill="white"/>
<path d="M34.4685 170.191L56.433 162.727C60.4243 161.371 64.7589 163.506 66.1149 167.498C67.4725 171.49 65.3358 175.825 61.3445 177.181L39.38 184.645C35.3887 186.001 31.0541 183.866 29.6981 179.874C28.3405 175.881 30.4772 171.547 34.4685 170.191Z" fill="white"/>
<path d="M92.7972 179.641L114.76 172.177C118.753 170.821 123.088 172.956 124.444 176.947C125.8 180.94 123.665 185.275 119.673 186.631L97.7087 194.094C93.7175 195.45 89.3813 193.315 88.0253 189.324C86.6693 185.331 88.806 180.997 92.7972 179.641Z" fill="white"/>
<path d="M43.5466 196.571L65.5112 189.108C69.5024 187.752 73.837 189.887 75.1931 193.88C76.5506 197.871 74.4139 202.205 70.4227 203.561L48.4581 211.027C44.4669 212.383 40.1323 210.246 38.7762 206.255C37.4186 202.263 39.5554 197.927 43.5466 196.571Z" fill="white"/>
<path d="M101.875 206.02L123.839 198.557C127.831 197.201 132.165 199.336 133.521 203.329C134.879 207.32 132.742 211.655 128.751 213.011L106.786 220.476C102.795 221.832 98.4604 219.695 97.1044 215.704C95.7468 211.713 97.8835 207.376 101.875 206.02Z" fill="white"/>
<path d="M52.6209 222.951L74.5854 215.487C78.5767 214.131 82.9112 216.266 84.2673 220.257C85.6249 224.25 83.4881 228.585 79.4969 229.941L57.5323 237.405C53.5411 238.761 49.2065 236.625 47.8505 232.634C46.4929 228.641 48.6296 224.307 52.6209 222.951Z" fill="white"/>
<path d="M110.914 232.416L132.877 224.952C136.87 223.596 141.205 225.731 142.561 229.723C143.917 233.716 141.782 238.05 137.79 239.406L115.826 246.87C111.835 248.226 107.498 246.091 106.142 242.099C104.786 238.107 106.923 233.772 110.914 232.416Z" fill="white"/>
<path d="M61.6677 249.33L83.6323 241.866C87.6235 240.51 91.9581 242.647 93.3141 246.638C94.6717 250.629 92.535 254.964 88.5437 256.32L66.5792 263.785C62.5879 265.141 58.2534 263.005 56.8973 259.013C55.5397 255.022 57.6765 250.686 61.6677 249.33Z" fill="white"/>
<path d="M119.988 258.796L141.953 251.332C145.944 249.976 150.278 252.111 151.634 256.104C152.992 260.095 150.855 264.43 146.864 265.786L124.9 273.251C120.908 274.607 116.574 272.471 115.218 268.479C113.86 264.488 115.997 260.152 119.988 258.796Z" fill="white"/>
<path d="M70.7459 275.71L92.7104 268.246C96.7017 266.89 101.036 269.025 102.392 273.018C103.75 277.01 101.613 281.344 97.6219 282.7L75.6573 290.164C71.6661 291.52 67.3315 289.385 65.9755 285.393C64.6179 281.402 66.7546 277.066 70.7459 275.71Z" fill="white"/>
<path d="M129.066 285.176L151.031 277.712C155.022 276.356 159.357 278.491 160.713 282.484C162.07 286.475 159.933 290.81 155.942 292.166L133.978 299.63C129.986 300.986 125.652 298.85 124.296 294.859C122.938 290.866 125.075 286.532 129.066 285.176Z" fill="white"/>
<path d="M79.8201 302.089L101.785 294.626C105.776 293.269 110.11 295.406 111.466 299.397C112.824 303.389 110.687 307.723 106.696 309.079L84.7316 316.545C80.7403 317.901 76.4057 315.764 75.0497 311.773C73.6921 307.781 75.8288 303.445 79.8201 302.089Z" fill="white"/>
<path d="M58.8352 367.84C58.8352 373.539 63.4535 378.157 69.152 378.157C74.8488 378.157 79.4688 373.539 79.4688 367.84C79.4688 362.143 74.8488 357.523 69.152 357.523C63.4535 357.523 58.8352 362.143 58.8352 367.84Z" fill="#4DD0E1"/>
<path d="M457.614 333.448C457.614 339.145 462.232 343.764 467.931 343.764C473.628 343.764 478.246 339.145 478.246 333.448C478.246 327.749 473.628 323.131 467.931 323.131C462.232 323.131 457.614 327.749 457.614 333.448Z" fill="#4DD0E1"/>
<path d="M43.5476 389.526C43.5476 392.542 45.9932 394.988 49.0109 394.988C52.0271 394.988 54.4727 392.542 54.4727 389.526C54.4727 386.51 52.0271 384.064 49.0109 384.064C45.9932 384.064 43.5476 386.51 43.5476 389.526Z" fill="#4DD0E1"/>
<path d="M484.657 315.494C484.657 318.51 487.103 320.956 490.12 320.956C493.136 320.956 495.582 318.51 495.582 315.494C495.582 312.476 493.136 310.031 490.12 310.031C487.103 310.031 484.657 312.476 484.657 315.494Z" fill="#4DD0E1"/>
</svg>
