<svg width="401" height="386" viewBox="0 0 401 386" fill="none" xmlns="http://www.w3.org/2000/svg">
<path d="M103.96 42.9087H8.06248C3.60888 42.9087 0 46.5176 0 50.9712V227.16C0 231.614 3.60888 235.223 8.06248 235.223H139.769C144.221 235.223 147.83 231.614 147.83 227.16V85.2657L103.96 42.9087Z" fill="#F5F3F2"/>
<path d="M103.938 42.9087L104.026 78.2558C104.036 82.1297 107.182 85.2657 111.056 85.2681L147.829 85.2774L103.938 42.9087Z" fill="#E6E6E6"/>
<path d="M28.3452 108.73H119.441V117.011H28.3452V108.73Z" fill="#E6E6E6"/>
<path d="M9.25214 126.672H138.535V134.953H9.25214V126.672Z" fill="#E6E6E6"/>
<path d="M9.25214 144.617H138.535V152.898H9.25214V144.617Z" fill="#E6E6E6"/>
<path d="M9.25214 162.558H138.535V170.84H9.25214V162.558Z" fill="#E6E6E6"/>
<path d="M9.25214 180.5H138.535V188.781H9.25214V180.5Z" fill="#E6E6E6"/>
<path d="M9.25214 198.445H138.535V206.727H9.25214V198.445Z" fill="#E6E6E6"/>
<path d="M320.508 204.89H369.584V178.512" stroke="#1E3C79" stroke-width="0.0104198" stroke-miterlimit="10"/>
<path d="M369.499 182.844C371.849 182.844 373.756 180.939 373.756 178.587C373.756 176.237 371.849 174.332 369.499 174.332C367.149 174.332 365.242 176.237 365.242 178.587C365.242 180.939 367.149 182.844 369.499 182.844Z" fill="#1E3C79"/>
<path d="M385.735 13.8025C329.509 34.3295 294.926 2.05564 292.896 0.0956866V0C292.896 0 292.863 0.0331137 292.848 0.0478363C292.832 0.0331137 292.799 0 292.799 0V0.0956866C290.769 2.05564 256.187 34.3295 199.96 13.8025C199.96 13.8025 168.866 157.46 292.799 226.697V226.754C292.815 226.745 292.832 226.736 292.848 226.727C292.865 226.736 292.88 226.745 292.896 226.754V226.697C416.831 157.46 385.735 13.8025 385.735 13.8025Z" fill="#FFB322"/>
<path d="M371.665 28.8874C323.957 46.3042 294.614 18.9202 292.892 17.2565V17.1755C292.892 17.1755 292.864 17.2031 292.85 17.216C292.837 17.2031 292.809 17.1755 292.809 17.1755V17.2565C291.086 18.9202 261.742 46.3042 214.036 28.8874C214.036 28.8874 187.651 150.781 292.809 209.528V209.578C292.822 209.569 292.837 209.562 292.85 209.554C292.864 209.562 292.877 209.569 292.892 209.578V209.528C398.05 150.781 371.665 28.8874 371.665 28.8874Z" fill="#FFD375"/>
<path d="M374.084 30.6883H372.846C371.55 30.6883 370.499 29.6375 370.499 28.3419V27.1034C370.499 25.8078 369.45 24.7588 368.155 24.7588C366.859 24.7588 365.808 25.8078 365.808 27.1034V28.3419C365.808 29.6375 364.758 30.6883 363.462 30.6883H362.223C360.928 30.6883 359.879 31.7391 359.879 33.0347C359.879 34.3303 360.928 35.3793 362.223 35.3793H363.462C364.758 35.3793 365.808 36.4301 365.808 37.7257V38.9624C365.808 40.258 366.859 41.3089 368.155 41.3089C369.45 41.3089 370.499 40.258 370.499 38.9624V37.7257C370.499 36.4301 371.55 35.3793 372.846 35.3793H374.084C375.38 35.3793 376.431 34.3303 376.431 33.0347C376.431 31.7391 375.38 30.6883 374.084 30.6883Z" fill="white"/>
<path d="M380.297 42.2711H379.839C379.36 42.2711 378.972 41.8828 378.972 41.4043V40.946C378.972 40.4657 378.582 40.0774 378.103 40.0774C377.625 40.0774 377.237 40.4657 377.237 40.946V41.4043C377.237 41.8828 376.846 42.2711 376.368 42.2711H375.91C375.431 42.2711 375.043 42.6594 375.043 43.1379C375.043 43.6182 375.431 44.0065 375.91 44.0065H376.368C376.846 44.0065 377.237 44.3948 377.237 44.8733V45.3315C377.237 45.81 377.625 46.2002 378.103 46.2002C378.582 46.2002 378.972 45.81 378.972 45.3315V44.8733C378.972 44.3948 379.36 44.0065 379.839 44.0065H380.297C380.776 44.0065 381.164 43.6182 381.164 43.1379C381.164 42.6594 380.776 42.2711 380.297 42.2711Z" fill="white"/>
<path d="M377.699 20.4249H377.241C376.763 20.4249 376.374 20.0366 376.374 19.5581V19.0998C376.374 18.6195 375.984 18.2312 375.506 18.2312C375.027 18.2312 374.639 18.6195 374.639 19.0998V19.5581C374.639 20.0366 374.249 20.4249 373.77 20.4249H373.312C372.834 20.4249 372.445 20.8132 372.445 21.2917C372.445 21.772 372.834 22.1603 373.312 22.1603H373.77C374.249 22.1603 374.639 22.5486 374.639 23.0271V23.4853C374.639 23.9638 375.027 24.354 375.506 24.354C375.984 24.354 376.374 23.9638 376.374 23.4853V23.0271C376.374 22.5486 376.763 22.1603 377.241 22.1603H377.699C378.178 22.1603 378.566 21.772 378.566 21.2917C378.566 20.8132 378.178 20.4249 377.699 20.4249Z" fill="white"/>
<path d="M180.945 128.659H248.203V318.84H180.945V128.659Z" fill="#15305C"/>
<path d="M269.091 318.842H162.52C160.129 318.842 158.191 316.904 158.191 314.513C158.191 312.121 160.129 310.183 162.52 310.183H269.091C271.482 310.183 273.42 312.121 273.42 314.513C273.42 316.904 271.482 318.842 269.091 318.842Z" fill="#1F3D7A"/>
<path d="M331.756 288.225H99.8432C92.7285 288.225 86.9609 282.457 86.9609 275.343V120.822C86.9609 113.707 92.7285 107.939 99.8432 107.939H331.756C338.87 107.939 344.638 113.707 344.638 120.822V275.343C344.638 282.457 338.87 288.225 331.756 288.225Z" fill="#1F3D7A"/>
<path d="M329.065 257.006H102.53C98.908 257.006 95.9727 254.07 95.9727 250.449V121.972C95.9727 118.352 98.908 115.417 102.53 115.417H329.065C332.687 115.417 335.622 118.352 335.622 121.972V250.449C335.622 254.07 332.687 257.006 329.065 257.006Z" fill="#436199"/>
<path d="M104.704 128.659H326.891V149.847H104.704V128.659Z" fill="#4A6BA8"/>
<path d="M104.704 225.291H326.891V246.478H104.704V225.291Z" fill="#4A6BA8"/>
<path d="M168.562 161.732H326.891V175.168H168.562V161.732Z" fill="#4A6BA8"/>
<path d="M168.562 182.403H326.891V195.839H168.562V182.403Z" fill="#4A6BA8"/>
<path d="M168.562 203.07H326.891V216.506H168.562V203.07Z" fill="#4A6BA8"/>
<path d="M104.716 161.04H156.668V218.573H104.716V161.04Z" fill="#4A6BA8"/>
<path d="M212.124 88.6874C196.45 88.6874 183.698 101.439 183.698 117.113V168.629C183.698 184.303 196.45 197.055 212.124 197.055C227.798 197.055 240.55 184.303 240.55 168.629V117.113C240.55 101.439 227.798 88.6874 212.124 88.6874ZM212.124 209.371C189.659 209.371 171.383 191.092 171.383 168.629V117.113C171.383 94.6482 189.659 76.3738 212.124 76.3738C234.589 76.3738 252.863 94.6482 252.863 117.113V168.629C252.863 191.092 234.589 209.371 212.124 209.371Z" fill="#FFD375"/>
<path d="M259.34 146.153H164.929C156.653 146.153 149.945 152.861 149.945 161.135V230.508C149.945 238.782 156.653 245.49 164.929 245.49H259.34C267.614 245.49 274.322 238.782 274.322 230.508V161.135C274.322 152.861 267.614 146.153 259.34 146.153Z" fill="#FFBF00"/>
<path d="M227.149 225.071L218.415 192.109C222.721 189.841 225.66 185.327 225.66 180.123C225.66 172.642 219.597 166.576 212.116 166.576C204.635 166.576 198.569 172.642 198.569 180.123C198.569 185.327 201.508 189.841 205.814 192.109L197.082 225.071H227.149Z" fill="#F7A200"/>
<path d="M26.5781 242.852V218.032C26.5781 216.532 27.7927 215.317 29.2908 215.317H65.9998C67.4978 215.317 68.7124 216.532 68.7124 218.032C68.7124 219.53 69.927 220.744 71.4269 220.744H126.968C128.466 220.744 129.681 221.959 129.681 223.457V240.13C129.681 241.599 128.512 242.802 127.043 242.843L29.3662 245.565C27.8387 245.607 26.5781 244.38 26.5781 242.852Z" fill="#F7A200"/>
<path d="M30.7247 224.892H124.891V261.601H30.7247V224.892Z" fill="white"/>
<path d="M26.9656 297.672H126.855C128.274 297.672 129.455 296.577 129.56 295.16L133.944 236.428C134.062 234.854 132.816 233.513 131.239 233.513H89.2791C88.5834 233.513 87.9136 233.78 87.4093 234.258L82.5969 238.831C82.0926 239.31 81.4227 239.577 80.7289 239.577H24.9394C23.4009 239.577 22.1697 240.856 22.2286 242.394L24.2548 295.062C24.31 296.52 25.5081 297.672 26.9656 297.672Z" fill="#FFBF00"/>
<path d="M293.422 242.852V218.032C293.422 216.532 294.636 215.317 296.135 215.317H332.844C334.342 215.317 335.556 216.532 335.556 218.032C335.556 219.53 336.771 220.744 338.271 220.744H393.812C395.31 220.744 396.524 221.959 396.524 223.457V240.13C396.524 241.599 395.356 242.802 393.887 242.843L296.21 245.565C294.682 245.607 293.422 244.38 293.422 242.852Z" fill="#F7A200"/>
<path d="M297.569 224.892H391.734V261.601H297.569V224.892Z" fill="white"/>
<path d="M293.809 297.672H393.699C395.118 297.672 396.299 296.577 396.404 295.16L400.788 236.428C400.905 234.854 399.659 233.513 398.082 233.513H356.123C355.427 233.513 354.757 233.78 354.253 234.258L349.441 238.831C348.936 239.31 348.266 239.577 347.573 239.577H291.783C290.245 239.577 289.013 240.856 289.072 242.394L291.099 295.062C291.154 296.52 292.352 297.672 293.809 297.672Z" fill="#FFBF00"/>
<path d="M166.214 91.9521C167.806 91.9521 169.096 90.6618 169.096 89.0702C169.096 87.4785 167.806 86.1882 166.214 86.1882C164.622 86.1882 163.332 87.4785 163.332 89.0702C163.332 90.6618 164.622 91.9521 166.214 91.9521Z" fill="white"/>
<path d="M166.232 78.9509C163.482 78.9509 160.996 80.0625 159.176 81.8513C158.464 82.5506 158.477 83.7082 159.159 84.4351C159.861 85.1786 161.048 85.2375 161.773 84.5179C162.921 83.3806 164.489 82.6721 166.232 82.6721C167.975 82.6721 169.544 83.3806 170.693 84.5198C171.418 85.2393 172.605 85.1786 173.304 84.4351C173.987 83.7082 174 82.5506 173.289 81.8513C171.467 80.0625 168.981 78.9509 166.232 78.9509Z" fill="white"/>
<path d="M166.224 60.3174C158.546 60.3174 151.582 63.3613 146.424 68.2842C145.699 68.9761 145.706 70.1411 146.393 70.8717L146.575 71.0631C147.267 71.801 148.441 71.8654 149.173 71.1661C153.614 66.926 159.612 64.3054 166.224 64.3054C172.836 64.3054 178.834 66.926 183.276 71.168C184.009 71.8654 185.181 71.801 185.875 71.0631L186.055 70.8717C186.742 70.1429 186.751 68.9761 186.026 68.2842C180.867 63.3613 173.902 60.3174 166.224 60.3174Z" fill="white"/>
<path d="M166.227 70.4568C161.317 70.4568 156.854 72.3744 153.527 75.4938C152.715 76.2557 152.66 77.5292 153.422 78.3407H153.424C154.178 79.145 155.43 79.1652 156.232 78.4107C158.849 75.9538 162.364 74.4448 166.227 74.4448C170.092 74.4448 173.607 75.9538 176.224 78.4107C177.026 79.1652 178.277 79.145 179.034 78.3407C179.796 77.531 179.74 76.2557 178.929 75.4938C175.602 72.3744 171.137 70.4568 166.227 70.4568Z" fill="white"/>
<path d="M78.4883 321.134V357.902H212.921" stroke="#1E3C79" stroke-width="0.0104198" stroke-miterlimit="10"/>
<path d="M82.7928 321.172C82.7928 323.522 80.888 325.429 78.5361 325.429C76.186 325.429 74.2812 323.522 74.2812 321.172C74.2812 318.822 76.186 316.916 78.5361 316.916C80.888 316.916 82.7928 318.822 82.7928 321.172Z" fill="white"/>
<path d="M217.144 357.942C217.144 360.292 215.24 362.198 212.888 362.198C210.538 362.198 208.633 360.292 208.633 357.942C208.633 355.592 210.538 353.685 212.888 353.685C215.24 353.685 217.144 355.592 217.144 357.942Z" fill="#1E3C79"/>
<path d="M108.879 92.6277H73.9126V141.704H47.5352" stroke="#1E3C79" stroke-width="0.0104198" stroke-miterlimit="10"/>
<path d="M51.867 141.626C51.867 143.976 49.9622 145.882 47.6103 145.882C45.2602 145.882 43.3555 143.976 43.3555 141.626C43.3555 139.275 45.2602 137.369 47.6103 137.369C49.9622 137.369 51.867 139.275 51.867 141.626Z" fill="#1E3C79"/>
<path d="M112.957 93.0892C112.957 95.4393 111.052 97.3459 108.7 97.3459C106.35 97.3459 104.445 95.4393 104.445 93.0892C104.445 90.7391 106.35 88.8325 108.7 88.8325C111.052 88.8325 112.957 90.7391 112.957 93.0892Z" fill="#1E3C79"/>
<path d="M310.705 317.016H309.467C308.171 317.016 307.121 315.966 307.121 314.67V313.431C307.121 312.136 306.072 311.087 304.776 311.087C303.48 311.087 302.43 312.136 302.43 313.431V314.67C302.43 315.966 301.379 317.016 300.083 317.016H298.845C297.549 317.016 296.5 318.067 296.5 319.363C296.5 320.658 297.549 321.707 298.845 321.707H300.083C301.379 321.707 302.43 322.758 302.43 324.054V325.291C302.43 326.586 303.48 327.637 304.776 327.637C306.072 327.637 307.121 326.586 307.121 325.291V324.054C307.121 322.758 308.171 321.707 309.467 321.707H310.705C312.001 321.707 313.052 320.658 313.052 319.363C313.052 318.067 312.001 317.016 310.705 317.016Z" fill="#FFBF00"/>
<path d="M317.677 333.233H316.847C315.98 333.233 315.277 332.53 315.277 331.661V330.833C315.277 329.964 314.574 329.261 313.705 329.261C312.839 329.261 312.135 329.964 312.135 330.833V331.661C312.135 332.53 311.432 333.233 310.564 333.233H309.734C308.867 333.233 308.164 333.936 308.164 334.805C308.164 335.671 308.867 336.374 309.734 336.374H310.564C311.432 336.374 312.135 337.077 312.135 337.946V338.774C312.135 339.641 312.839 340.344 313.705 340.344C314.574 340.344 315.277 339.641 315.277 338.774V337.946C315.277 337.077 315.98 336.374 316.847 336.374H317.677C318.544 336.374 319.248 335.671 319.248 334.805C319.248 333.936 318.544 333.233 317.677 333.233Z" fill="#FFBF00"/>
<path d="M338.147 358.024C337.113 355.44 335.549 353.111 333.265 351.289C321.082 341.579 305.721 346.875 305.721 346.875C305.721 346.875 307.132 322.51 282.59 321.45C275.667 321.151 270.607 323.912 266.947 327.648C263.688 324.887 259.475 323.216 254.869 323.216C244.534 323.216 236.153 331.595 236.153 341.932C236.153 342.613 236.195 343.287 236.265 343.949C229.498 345.907 223.532 351.064 222.523 362.862C221.498 374.828 230.693 385.191 242.703 385.191H319.072C333.125 385.191 343.368 371.072 338.147 358.024Z" fill="#FFBF00"/>
<path d="M293.785 358.669L268.734 372.424V345.198L293.785 358.669Z" fill="#FFD375"/>
<path d="M47.6238 92.3093C47.6238 97.1144 43.7224 101.001 38.9246 101.001C34.1324 101.001 30.2309 97.1144 30.2309 92.3093C30.2309 87.5134 34.1324 83.6156 38.9246 83.6156C43.7224 83.6156 47.6238 87.5134 47.6238 92.3093ZM60.197 87.4398H57.8782C57.2506 87.4398 56.5126 86.8748 56.2697 86.2049C56.0544 85.5755 55.7949 84.9609 55.5023 84.3664C55.195 83.7186 55.3072 82.8022 55.7507 82.355L57.4089 80.7079C58.5572 79.5485 58.5572 77.6695 57.4089 76.5138L54.7257 73.8269C54.1644 73.2693 53.4172 72.9674 52.6295 72.9674C51.8327 72.9674 51.091 73.2693 50.5242 73.8269L48.8771 75.4795C48.6103 75.7463 48.1704 75.8972 47.6956 75.8972C47.4012 75.8972 47.1159 75.8549 46.8822 75.7279C46.2804 75.4464 45.6584 75.1887 45.0327 74.9587C44.3591 74.7213 43.7904 73.987 43.7904 73.3576V71.0406C43.7904 69.4046 42.4562 68.0667 40.8202 68.0667H37.0346C35.3967 68.0667 34.0625 69.4046 34.0625 71.0406V73.3576C34.0625 73.987 33.4975 74.7213 32.8221 74.9587C32.1945 75.1887 31.5743 75.4335 30.9781 75.7279C30.7407 75.8402 30.4554 75.8972 30.1628 75.8972C29.6843 75.8972 29.2427 75.7463 28.9795 75.4795L27.3287 73.8269C26.7656 73.2693 26.0184 72.9674 25.2326 72.9674C24.4302 72.9674 23.6922 73.2693 23.1346 73.8269L20.4422 76.5138C19.8883 77.0677 19.5773 77.8167 19.5773 78.6025C19.5773 79.4031 19.8883 80.1484 20.4422 80.7079L22.093 82.355C22.5439 82.8022 22.658 83.7186 22.3469 84.3664C22.0562 84.9609 21.7967 85.5755 21.5795 86.2049C21.3421 86.8748 20.6042 87.4398 19.9803 87.4398H17.6559C16.0217 87.4398 14.6875 88.7777 14.6875 90.4101V94.2011C14.6875 95.8335 16.0217 97.1825 17.6559 97.1825H19.9803C20.6042 97.1825 21.3421 97.7327 21.5795 98.41C21.7967 99.0283 22.0562 99.6522 22.3469 100.252C22.658 100.898 22.5439 101.811 22.093 102.254L20.4422 103.907C19.2865 105.054 19.2865 106.942 20.4422 108.107L23.1346 110.788C23.6922 111.34 24.4302 111.655 25.2326 111.655C26.0184 111.655 26.7656 111.34 27.3287 110.788L28.9795 109.134C29.2482 108.874 29.6862 108.705 30.1628 108.705C30.4591 108.705 30.7407 108.767 30.9781 108.887C31.5799 109.174 32.1945 109.441 32.8221 109.654C33.4975 109.895 34.0625 110.626 34.0625 111.254V113.576C34.0625 115.207 35.3967 116.539 37.0346 116.539H40.8202C42.458 116.539 43.7904 115.207 43.7904 113.576V111.254C43.7904 110.626 44.3591 109.895 45.0327 109.654C45.6584 109.441 46.2804 109.174 46.8785 108.887C47.1104 108.773 47.4012 108.705 47.6919 108.705C48.1704 108.705 48.6103 108.874 48.8771 109.134L50.5242 110.788C51.091 111.34 51.8327 111.655 52.6295 111.655C53.4227 111.655 54.1644 111.34 54.7257 110.788L57.4089 108.107C58.5572 106.953 58.5572 105.054 57.4089 103.907L55.7507 102.254C55.3072 101.811 55.195 100.898 55.5097 100.252C55.7967 99.6559 56.0544 99.0283 56.2808 98.41C56.5126 97.7327 57.2506 97.1825 57.8782 97.1825H60.197C61.8349 97.1825 63.1617 95.8335 63.1617 94.2011V90.4101C63.1617 88.7777 61.833 87.4398 60.197 87.4398Z" fill="#FFB322"/>
<path d="M69.2574 58.0037C69.2574 61.3751 66.519 64.1025 63.1531 64.1025C59.7926 64.1025 57.0542 61.3751 57.0542 58.0037C57.0542 54.6377 59.7926 51.9048 63.1531 51.9048C66.519 51.9048 69.2574 54.6377 69.2574 58.0037ZM78.0781 54.5862H76.4531C76.0114 54.5862 75.4943 54.1905 75.3231 53.7194C75.1722 53.2795 74.99 52.8489 74.7858 52.4293C74.5705 51.9766 74.6477 51.3325 74.9588 51.0196L76.1218 49.8639C76.9279 49.0505 76.9279 47.7328 76.1218 46.9212L74.2392 45.0349C73.8454 44.6447 73.3209 44.4331 72.7688 44.4331C72.2093 44.4331 71.6903 44.6447 71.2928 45.0349L70.1353 46.1961C69.9494 46.3838 69.6421 46.4887 69.309 46.4887C69.101 46.4887 68.9004 46.4593 68.7366 46.3691C68.3152 46.174 67.879 45.9919 67.4392 45.8299C66.9662 45.6624 66.5687 45.149 66.5687 44.7073V43.0823C66.5687 41.9339 65.632 40.9954 64.4836 40.9954H61.828C60.6797 40.9954 59.7411 41.9339 59.7411 43.0823V44.7073C59.7411 45.149 59.3454 45.6624 58.8725 45.8299C58.4326 45.9919 57.9965 46.163 57.5787 46.3691C57.4131 46.4483 57.2125 46.4887 57.0064 46.4887C56.6714 46.4887 56.3604 46.3838 56.1764 46.1961L55.0188 45.0349C54.6231 44.6447 54.0987 44.4331 53.5484 44.4331C52.9853 44.4331 52.4663 44.6447 52.0743 45.0349L50.188 46.9212C49.7978 47.3095 49.5806 47.8359 49.5806 48.388C49.5806 48.9474 49.7978 49.4719 50.188 49.8639L51.3455 51.0196C51.6621 51.3325 51.7412 51.9766 51.5222 52.4293C51.3198 52.8489 51.1357 53.2795 50.9848 53.7194C50.8173 54.1905 50.3002 54.5862 49.8622 54.5862H48.2317C47.0852 54.5862 46.1484 55.5266 46.1484 56.6713V59.3305C46.1484 60.4752 47.0852 61.4212 48.2317 61.4212H49.8622C50.3002 61.4212 50.8173 61.8076 50.9848 62.2843C51.1357 62.7167 51.3198 63.1547 51.5222 63.5762C51.7412 64.0307 51.6621 64.6693 51.3455 64.9803L50.188 66.1416C49.3764 66.944 49.3764 68.269 50.188 69.0861L52.0743 70.9669C52.4663 71.3552 52.9853 71.5761 53.5484 71.5761C54.0987 71.5761 54.6231 71.3552 55.0188 70.9669L56.1764 69.8075C56.3641 69.6253 56.6733 69.5076 57.0064 69.5076C57.2143 69.5076 57.4131 69.5499 57.5787 69.6345C58.0001 69.8351 58.4326 70.0228 58.8725 70.1738C59.3454 70.3412 59.7411 70.8547 59.7411 71.2964V72.9232C59.7411 74.0679 60.6797 75.0028 61.828 75.0028H64.4836C65.6338 75.0028 66.5687 74.0679 66.5687 72.9232V71.2964C66.5687 70.8547 66.9662 70.3412 67.4392 70.1738C67.879 70.0228 68.3152 69.8351 68.7348 69.6345C68.8967 69.5554 69.101 69.5076 69.3053 69.5076C69.6421 69.5076 69.9494 69.6253 70.1353 69.8075L71.2928 70.9669C71.6903 71.3552 72.2093 71.5761 72.7688 71.5761C73.3246 71.5761 73.8454 71.3552 74.2392 70.9669L76.1218 69.0861C76.9279 68.2782 76.9279 66.944 76.1218 66.1416L74.9588 64.9803C74.6477 64.6693 74.5705 64.0307 74.7894 63.5762C74.9919 63.1584 75.1722 62.7167 75.3305 62.2843C75.4943 61.8076 76.0114 61.4212 76.4531 61.4212H78.0781C79.2283 61.4212 80.1595 60.4752 80.1595 59.3305V56.6713C80.1595 55.5266 79.2265 54.5862 78.0781 54.5862Z" fill="#1F3D7A"/>
<path d="M131.623 308.516C121.407 308.516 113.098 316.825 113.098 327.039C113.098 337.254 121.407 345.565 131.623 345.565C141.839 345.565 150.148 337.254 150.148 327.039C150.148 316.825 141.839 308.516 131.623 308.516ZM131.623 348.74C119.657 348.74 109.922 339.006 109.922 327.039C109.922 315.075 119.657 305.339 131.623 305.339C143.589 305.339 153.324 315.075 153.324 327.039C153.324 339.006 143.589 348.74 131.623 348.74Z" fill="white"/>
<path d="M130.058 310.05C127.338 312.493 123.21 317.764 123.21 327.257C123.21 336.701 127.365 341.688 130.058 343.928V310.05ZM131.646 348.477C131.421 348.477 131.199 348.431 130.989 348.334C130.542 348.133 120.035 343.181 120.035 327.257C120.035 311.395 130.466 305.754 130.91 305.522C131.403 305.267 131.994 305.285 132.468 305.572C132.943 305.859 133.234 306.374 133.234 306.93V346.889C133.234 347.428 132.958 347.931 132.505 348.223C132.244 348.393 131.946 348.477 131.646 348.477Z" fill="white"/>
<path d="M133.633 310.072V343.947C136.331 341.725 140.481 336.766 140.481 327.255C140.481 317.838 136.352 312.539 133.633 310.072ZM132.045 348.474C131.745 348.474 131.447 348.389 131.186 348.222C130.733 347.929 130.457 347.427 130.457 346.887V306.926C130.457 306.373 130.748 305.857 131.223 305.568C131.697 305.281 132.288 305.263 132.781 305.52C133.225 305.752 143.656 311.391 143.656 327.255C143.656 343.179 133.149 348.13 132.702 348.332C132.492 348.428 132.27 348.474 132.045 348.474Z" fill="white"/>
<path d="M111.648 320.291H151.609V323.467H111.648V320.291Z" fill="white"/>
<path d="M111.648 330.61H151.609V333.786H111.648V330.61Z" fill="white"/>
</svg>
