<svg width="497" height="476" viewBox="0 0 497 476" fill="none" xmlns="http://www.w3.org/2000/svg">
<path d="M497 455.021C497 466.196 385.743 475.254 248.5 475.254C111.257 475.254 0 466.196 0 455.021C0 443.849 111.257 434.789 248.5 434.789C385.743 434.789 497 443.849 497 455.021Z" fill="#FF8900"/>
<path d="M371.191 331.017C384.425 330.466 446.734 332.671 459.416 336.531C455.556 314.199 427.159 268.433 427.159 268.433L377.808 271.19" fill="#B3B3B3"/>
<path d="M396.187 426.779C397.126 435.23 396.671 443.132 396.408 445.429C386.759 450.53 362.221 456.458 349.539 451.771C350.78 440.053 373.48 447.681 377.34 429.072C382.944 427.326 396.187 426.779 396.187 426.779Z" fill="#402206"/>
<path d="M436.344 430.356C438.732 439.179 440.571 446.348 440.571 446.348C449.945 453.516 469.243 458.295 475.125 457.192C478.433 441.201 457.021 444.694 454.5 428.967C451.376 429.701 436.344 430.356 436.344 430.356Z" fill="#402206"/>
<path d="M360.809 260.517C361.175 281.838 373.674 387.341 377.351 429.064C385.07 432.555 396.281 428.513 396.281 428.513C394.996 400.758 388.076 292.278 390.097 280.515C396.162 278.125 405.291 280.432 405.291 280.432C409.151 288.886 433.042 420.24 436.351 430.35C447.011 435.497 455.008 431.027 455.008 431.027C448.574 406.581 434.697 267.317 433.594 258.863C422.933 250.776 364.117 259.415 360.809 260.517Z" fill="white"/>
<path d="M380.97 132.94C380.236 146.542 367.414 238.856 370.356 259.809C397.559 260.36 417.042 261.463 417.042 261.463L420.902 132.618C420.902 132.618 381.337 130.182 380.97 132.94Z" fill="#99C4B3"/>
<path d="M328.454 262.302C328.11 266.024 347.821 263.749 347.753 262.096C347.201 258.373 330.384 256.513 328.454 262.302Z" fill="#9EAEB3"/>
<path d="M330.798 260.442C331.487 265.404 329.833 272.573 328.937 276.57C328.285 279.481 327.006 286.978 326.18 294.422C325.353 301.867 328.385 303.934 331.901 305.381C334.965 306.644 340.999 309.241 345.548 304.83C345.893 303.383 340.447 280.155 342.515 280.568C344.583 280.982 345.961 291.183 347.478 291.734C350.028 293.388 350.987 291.941 350.855 291.113C350.132 286.57 348.787 279.12 348.099 275.124C347.409 271.126 344.445 272.711 343.756 269.54C343.067 266.369 343.067 259.615 343.067 259.615" fill="#FFD8C2"/>
<g opacity="0.399994">
<g opacity="0.399994">
<path opacity="0.399994" d="M343.369 266.786C343.067 263.52 343.066 259.615 343.066 259.615L330.797 260.442C331.083 262.507 330.961 264.957 330.66 267.399C335.501 266.469 340.144 266.533 343.369 266.786Z" fill="#A6836F"/>
</g>
</g>
<path d="M353.816 339.557C362.363 345.071 379.181 344.52 379.181 344.52C378.078 325.496 375.872 163.108 385.522 130.851C379.456 130.851 366.3 134.021 362.991 136.227C359.683 138.432 325.419 210.253 328.452 262.636C338.101 260.155 347.751 262.085 347.751 262.085C347.475 245.267 360.709 184.612 360.709 184.612C360.157 212.458 348.026 305.921 353.816 339.557Z" fill="#DCDFE0"/>
<path d="M366.768 39.7337C358.485 40.2145 349.122 29.6507 366.888 12.4844C367.608 11.7654 372.53 14.5257 372.53 14.5257C375.651 0.961172 380.334 0.120834 382.013 0.000628306C383.694 -0.119578 397.259 17.0467 402.42 18.487C403.141 15.2458 403.622 12.845 404.822 13.8045C406.021 14.765 411.544 20.7676 419.226 21.9685C426.909 23.1684 436.273 24.2492 431.231 35.6533C443.355 37.9328 439.992 42.7355 435.672 51.258C431.352 59.7816 433.75 70.3454 433.75 70.3454L426.668 72.2654C426.668 72.2654 372.049 52.459 366.768 39.7337Z" fill="#754C24"/>
<path d="M391.587 107.428C392.276 113.494 394.619 124.522 391.862 127.417C389.105 130.312 385.797 130.863 385.797 130.863C394.895 144.51 400.823 146.854 417.778 128.658C413.505 128.244 415.848 130.45 415.573 127.968C415.297 125.487 413.918 105.912 413.918 105.912L391.587 107.428Z" fill="#FFD8C2"/>
<g opacity="0.399994">
<g opacity="0.399994">
<g opacity="0.399994">
<path opacity="0.399994" d="M415.06 121.566C414.565 114.99 413.926 105.912 413.926 105.912L391.594 107.428C392.102 111.906 393.506 119.08 393.101 123.698C399.802 124.317 407.419 123.888 415.06 121.566Z" fill="#A6836F"/>
</g>
</g>
</g>
<path d="M391.129 143.094C392.415 147.689 394.437 150.813 394.437 150.813L396.643 151.365L402.891 144.564L397.56 139.601L391.129 143.094Z" fill="#7A5945"/>
<path d="M393.787 149.462C390.624 158.05 383.033 228.29 383.259 234.955C383.485 241.621 389.237 252.074 389.547 251.898C391.834 250.61 398.647 240.645 399.1 236.691C399.553 232.736 397.065 156.68 397.854 150.013C397.628 149.449 393.787 149.462 393.787 149.462Z" fill="#916952"/>
<path d="M392.612 125.728C388.739 128.394 383.777 131.335 383.777 131.335C385.018 139.606 386.534 145.487 388.418 148.244C392.295 142.928 397.561 139.606 397.561 139.606C400.18 144.155 403.995 149.761 403.995 149.761C408.82 147.831 419.021 137.354 419.71 129.083C418.332 127.659 415.339 125.264 415.339 125.264C412.995 128.848 399.446 138.043 397.792 138.457C393.794 137.079 392.612 125.728 392.612 125.728Z" fill="#ADDBC9"/>
<path d="M385.702 130.043C383.221 130.595 378.167 131.1 376.697 132.111C374.308 139.739 372.93 159.176 372.93 159.176L377.524 157.614C374.584 160.922 373.388 162.852 373.388 162.852C373.388 162.852 372.654 199.611 378.902 211.283C380.005 192.995 381.66 148.515 385.702 130.043Z" fill="#ECF0F1"/>
<path d="M446.456 209.997C445.215 210.686 452.108 225.299 455.83 225.299C458.035 218.682 455.141 209.446 446.456 209.997Z" fill="#9EAEB3"/>
<path d="M451.691 209.032L440.939 213.305L448.842 224.7L456.24 220.886L451.691 209.032Z" fill="#FFD8C2"/>
<g opacity="0.399994">
<g opacity="0.399994">
<g opacity="0.399994">
<path opacity="0.399994" d="M451.695 209.032L440.943 213.305L448.845 224.7L456.244 220.886L451.695 209.032Z" fill="#A6836F"/>
</g>
</g>
</g>
<path d="M418.75 128.797C424.54 129.9 433.776 129.211 438.187 131.692C442.598 134.174 494.759 172.899 492.225 194.552C490.708 207.51 462.173 225.293 455.832 225.293C453.488 212.473 446.458 209.992 446.458 209.992C455.694 204.891 466.584 188.349 464.654 185.178C457.139 172.831 439.014 166.155 439.014 166.155C433.776 196.482 440.117 237.837 452.248 277.263C464.379 316.688 472.65 340.399 472.65 340.399C456.108 350.324 434.879 347.015 434.879 347.015C424.402 323.305 396.694 215.919 418.75 128.797Z" fill="#DCDFE0"/>
<path d="M427.567 129.89C425.637 137.609 421.226 157.184 421.226 157.184L416.677 156.633L419.572 161.182C419.572 161.182 409.233 219.906 408.268 235.759C407.441 206.948 408.958 159.528 418.745 128.787C424.121 128.099 427.567 129.89 427.567 129.89Z" fill="#ECF0F1"/>
<path d="M378.767 29.1776C367.003 35.9003 363.961 37.3395 366.842 54.626C369.725 71.9125 372.286 90.4783 371.005 104.563C371.325 109.365 400.776 120.889 425.744 106.484C427.984 83.7556 428.305 53.0258 423.182 38.9419C418.061 24.8557 396.694 20.8536 378.767 29.1776Z" fill="#FFD8C2"/>
<g opacity="0.300003">
<g opacity="0.300003">
<g opacity="0.300003">
<path opacity="0.300003" d="M425.743 106.472C426.462 99.1777 426.981 91.0578 427.189 82.9279C426.409 77.9421 425.738 73.4029 425.582 70.5786C425.582 70.2191 423.901 68.899 422.342 69.7383C420.541 72.9805 423.302 80.902 422.701 83.5432C422.1 86.1845 412.737 93.3869 411.417 93.2667C410.096 93.1476 411.538 85.7047 409.136 86.6653C391.25 98.6693 380.808 93.3869 378.887 93.8666C376.966 94.3474 379.606 100.71 378.527 101.309C377.648 101.798 374.393 99.1943 371.336 95.7535C371.355 98.8292 371.255 101.778 371.004 104.552C371.324 109.352 400.774 120.878 425.743 106.472Z" fill="#522811"/>
</g>
</g>
</g>
<path d="M409.679 196.502C409.922 197.059 409.664 197.712 409.108 197.954L394.577 204.287C394.021 204.529 393.367 204.273 393.124 203.716L389.987 196.513C389.743 195.956 390 195.304 390.556 195.061L405.09 188.728C405.645 188.485 406.298 188.743 406.54 189.299L409.679 196.502Z" fill="#E6E6E6"/>
<path d="M454.322 252.996C454.563 253.551 454.306 254.205 453.75 254.447L405.56 275.447C405.003 275.689 404.35 275.433 404.109 274.876L374.958 207.982C374.717 207.425 374.973 206.773 375.529 206.53L423.721 185.53C424.277 185.288 424.93 185.546 425.172 186.102L454.322 252.996Z" fill="#402206"/>
<path d="M443.557 212.452C438.181 204.87 435.286 200.735 432.529 201.837C429.772 202.94 414.471 213.555 415.022 216.174C415.574 218.793 423.845 227.891 425.775 228.305C427.705 228.718 437.078 220.585 438.043 221.964C439.008 223.342 442.052 228.178 444.522 228.443C448.382 228.856 451.829 224.721 451.139 223.756C450.45 222.791 443.557 212.452 443.557 212.452Z" fill="#FFD8C2"/>
<path d="M425.268 70.7941C426.388 58.6313 442.073 63.7527 440.953 72.5564C439.833 81.3579 429.749 89.8407 426.069 82.1586C425.107 73.8357 425.268 70.7941 425.268 70.7941Z" fill="#FFD8C2"/>
<path d="M393.695 89.6199C393.667 89.7059 393.213 89.6794 392.431 89.4423C391.663 89.1964 390.513 88.7641 389.391 87.6679C388.85 87.1099 388.362 86.3446 388.123 85.4325C387.88 84.5227 387.88 83.507 388.07 82.5134C388.513 80.4809 389.508 78.7407 390.042 76.6917C391.277 72.6532 391.09 68.7812 390.679 66.0308C390.52 64.6424 390.247 63.5363 390.117 62.7544C389.983 61.9725 389.953 61.5215 390.049 61.4895C390.144 61.4586 390.356 61.8512 390.659 62.5956C390.96 63.34 391.392 64.4252 391.689 65.8412C392.381 68.6103 392.753 72.8065 391.436 77.1008C390.867 79.2513 389.783 81.1547 389.38 82.7913C388.964 84.4819 389.324 85.9928 390.156 86.982C390.99 87.9712 391.984 88.5391 392.655 88.9218C393.335 89.3056 393.731 89.5151 393.695 89.6199Z" fill="#A6836F"/>
<path d="M412.976 69.5134C412.611 69.6998 411.867 68.9708 410.849 67.7952C410.339 67.2107 409.756 66.5127 409.091 65.8212C408.436 65.1474 407.647 64.4295 406.937 64.1129C406.584 63.9608 406.361 63.9519 406.205 63.9696C406.054 64.0027 405.836 64.114 405.615 64.3699C405.168 64.8849 404.847 65.6955 404.617 66.3704C404.161 67.7599 403.912 68.7767 403.495 68.7933C403.118 68.8131 402.614 67.8448 402.582 66.0704C402.601 65.1871 402.682 64.0799 403.419 62.8348C403.792 62.2305 404.436 61.5577 405.384 61.2412C406.337 60.9369 407.356 61.1111 408.108 61.4508C409.62 62.1665 410.458 63.1987 411.156 64.1152C411.831 65.0514 412.285 65.9491 412.603 66.7244C413.233 68.2771 413.326 69.338 412.976 69.5134Z" fill="#2B1509"/>
<path d="M382.609 70.6974C382.263 70.9158 381.452 70.2607 380.33 69.1855C379.767 68.6517 379.122 68.011 378.395 67.3846C377.68 66.7758 376.827 66.134 376.091 65.8859C375.724 65.7668 375.502 65.78 375.347 65.8109C375.199 65.8583 374.995 65.9895 374.798 66.2652C374.402 66.8199 374.158 67.657 373.992 68.3506C373.669 69.7777 373.517 70.8121 373.103 70.8672C372.728 70.9235 372.136 70.006 371.937 68.2415C371.873 67.3614 371.85 66.252 372.468 64.9441C372.782 64.3066 373.36 63.5766 374.275 63.1719C375.196 62.7793 376.226 62.8587 377.008 63.1266C378.578 63.6968 379.508 64.6474 380.291 65.4933C381.051 66.3612 381.587 67.2125 381.977 67.9547C382.749 69.4413 382.941 70.489 382.609 70.6974Z" fill="#2B1509"/>
<path d="M400.97 43.2234C400.37 45.7444 400.609 52.4671 401.451 52.5862C402.29 52.7064 406.972 49.2249 416.096 57.3889C417.175 55.1072 417.102 51.2254 416.456 49.3462C415.136 45.504 403.732 40.2215 400.97 43.2234Z" fill="#754C24"/>
<path d="M375.914 44.487C376.737 46.9165 377.899 53.1871 377.255 53.3988C376.611 53.6106 372.43 50.9175 367.357 60.0487C366.19 57.9104 365.707 54.0572 365.953 52.1251C366.455 48.1748 373.325 41.8204 375.914 44.487Z" fill="#754C24"/>
<path d="M368.086 26.8962C375.529 32.5382 391.909 34.2784 400.551 29.9576C410.516 32.5988 420.184 37.7004 421.385 37.8195C421.264 46.5835 419.224 51.7447 420.544 57.1473C421.865 62.5478 421.985 68.7908 421.625 71.9117C421.264 75.0326 425.586 77.193 425.586 77.193C425.705 70.832 427.147 65.9102 427.748 64.3486C428.347 62.7893 427.867 47.1834 425.586 39.8608C423.306 32.5382 405.299 11.0511 368.086 26.8962Z" fill="#754C24"/>
<path d="M406.137 92.3225C406.223 92.3744 406.107 92.7262 405.816 93.3283C405.672 93.6294 405.482 93.9922 405.255 94.409C405.013 94.8171 404.69 95.2516 404.346 95.7456C402.945 97.6403 400.49 100.21 396.847 101.38C395.055 101.963 393.238 102.131 391.622 102.024C390 101.916 388.596 101.499 387.46 101.093C385.204 100.194 384.077 99.1842 384.169 99.0452C384.286 98.8445 385.58 99.5161 387.78 100.115C388.884 100.374 390.207 100.66 391.688 100.685C393.166 100.71 394.786 100.522 396.395 99.997C399.649 98.9614 402.008 96.747 403.553 95.0906C403.931 94.6594 404.298 94.2866 404.594 93.9359C404.877 93.5753 405.127 93.2665 405.342 93.0206C405.771 92.5254 406.051 92.2707 406.137 92.3225Z" fill="#A6836F"/>
<path d="M429.989 80.4745C429.874 80.2539 431.041 79.7676 432.244 78.4971C432.808 77.8553 433.177 76.8716 432.746 76.039C432.542 75.6265 432.151 75.2725 431.672 75.1148C431.432 75.0332 431.178 75.0134 430.918 75.0233C430.904 75.0167 430.671 75.0939 430.496 75.1512L429.946 75.3299C429.575 75.4832 429.2 75.6364 428.824 75.7908C428.877 75.4622 428.933 75.1247 428.989 74.7862C429.048 74.4189 429.108 74.055 429.168 73.6933L429.257 73.1794L429.334 72.8871C429.451 72.5023 429.515 72.1174 429.681 71.7513C429.831 71.3851 429.959 71.0212 430.172 70.6859C430.271 70.5172 430.362 70.3474 430.466 70.1875L430.831 69.7331C431.331 69.1552 431.974 68.6755 432.69 68.5046C433.388 68.316 434.095 68.3634 434.639 68.584C435.761 68.9898 436.346 69.7563 436.629 70.279C436.92 70.8139 436.949 71.1568 436.871 71.1921C436.769 71.244 436.565 70.9903 436.179 70.6198C435.805 70.2536 435.191 69.743 434.35 69.5699C433.523 69.3681 432.536 69.657 431.86 70.5878L431.607 70.9385L431.393 71.3465C431.234 71.6079 431.139 71.9277 431.021 72.2365C430.886 72.5376 430.838 72.8927 430.741 73.2268L430.674 73.4827C430.658 73.54 430.668 73.5113 430.665 73.5301L430.658 73.5731L430.653 73.6095C430.689 73.6062 430.545 73.6271 430.814 73.5885C431.275 73.5698 431.729 73.6293 432.148 73.7859C432.983 74.0958 433.634 74.7432 433.947 75.492C434.26 76.2408 434.253 77.0712 433.992 77.7086C433.881 78.034 433.689 78.2986 433.537 78.5633C433.338 78.7839 433.146 78.9945 432.964 79.1974C432.545 79.5194 432.178 79.8172 431.805 79.976C431.448 80.1646 431.137 80.3068 430.863 80.3708C430.327 80.5263 430.024 80.5649 429.989 80.4745Z" fill="#A6836F"/>
<path d="M434.6 206.766C434.616 206.889 434.401 207.019 434.004 207.386C433.592 207.73 433.004 208.223 432.28 208.832C430.813 210.052 428.771 211.728 426.482 213.543C421.905 217.175 418.04 219.947 417.782 219.632C417.532 219.326 420.985 216.05 425.578 212.403C427.875 210.581 430.032 209.023 431.679 207.998C432.503 207.486 433.19 207.103 433.715 206.898C434.214 206.67 434.605 206.678 434.6 206.766Z" fill="#A6836F"/>
<path d="M420.042 223.379C419.811 223.052 423.481 220.07 428.24 216.721C432.997 213.372 437.042 210.921 437.273 211.249C437.506 211.578 433.835 214.56 429.077 217.91C424.319 221.259 420.274 223.709 420.042 223.379Z" fill="#A6836F"/>
<path d="M439.008 216.039C439.217 216.382 435.901 218.788 431.599 221.415C427.298 224.041 423.64 225.893 423.431 225.551C423.223 225.207 426.539 222.8 430.841 220.174C435.142 217.548 438.8 215.696 439.008 216.039Z" fill="#A6836F"/>
<path d="M340.166 307.047C340.072 307.084 339.895 306.839 339.649 306.355C339.417 305.871 339.05 305.153 338.803 304.228C338.204 302.393 337.685 299.793 337.316 296.903C336.58 291.121 336.948 286.344 337.363 286.371C337.752 286.393 338.033 291.021 338.76 296.726C339.122 299.571 339.471 302.142 339.802 303.984C339.917 304.923 340.121 305.639 340.184 306.172C340.26 306.698 340.259 307.011 340.166 307.047Z" fill="#A6836F"/>
<path d="M335.253 306.292C335.093 306.399 334.347 305.448 333.801 303.69C333.241 301.945 332.777 299.469 332.568 296.717C332.363 293.964 332.426 291.457 332.67 289.652C332.896 287.843 333.321 286.764 333.507 286.809C333.713 286.855 333.657 287.946 333.697 289.713C333.719 291.476 333.818 293.918 334.019 296.606C334.222 299.295 334.514 301.715 334.798 303.444C335.071 305.18 335.436 306.183 335.253 306.292Z" fill="#A6836F"/>
<path d="M330.296 304.177C330.145 304.273 329.437 303.464 328.956 301.857C328.472 300.262 328.291 297.972 328.443 295.516C328.59 293.058 328.941 290.878 329.238 289.312C329.544 287.748 329.819 286.788 330.02 286.808C330.219 286.827 330.305 287.828 330.261 289.425C330.223 291.022 330.037 293.211 329.896 295.599C329.749 297.988 329.764 300.123 329.962 301.642C330.151 303.159 330.491 304.07 330.296 304.177Z" fill="#A6836F"/>
<path d="M360.16 194.558C360.061 194.543 360.05 193.761 360.116 192.365C360.158 191.668 360.21 190.816 360.27 189.828C360.316 188.836 360.366 187.707 360.425 186.459C360.692 181.472 360.992 174.564 361.586 166.943C362.122 159.32 363.032 152.437 363.875 147.49C364.82 142.554 365.661 139.56 365.83 139.602C366.051 139.652 365.569 142.71 364.892 147.644C364.313 152.6 363.572 159.449 363.035 167.057C362.442 174.656 361.98 181.552 361.449 186.539C361.312 187.784 361.188 188.911 361.08 189.901C360.922 190.886 360.788 191.736 360.677 192.43C360.438 193.816 360.259 194.572 360.16 194.558Z" fill="#9FAFB3"/>
<path d="M472.093 188.281C472.131 188.078 473.738 188.225 476.308 188.428C477.581 188.509 479.151 188.665 480.73 188.525C480.902 188.509 481.15 188.462 481.221 188.439C481.235 188.432 481.243 188.424 481.245 188.414C481.247 188.401 481.243 188.397 481.229 188.385L481.002 188.195C480.414 187.718 479.548 187.346 478.671 187.038C475.049 185.861 471.451 185.796 468.931 185.927C466.389 186.088 464.826 186.461 464.759 186.243C464.702 186.081 466.191 185.343 468.819 184.905C471.429 184.507 475.186 184.384 479.139 185.662C480.119 186.016 481.072 186.399 481.93 187.115L482.246 187.402L482.586 187.95C482.833 188.294 482.856 188.752 482.637 189.088C482.445 189.437 482.044 189.621 481.643 189.737C481.293 189.829 481.106 189.836 480.853 189.859C478.999 189.938 477.483 189.659 476.179 189.449C473.598 188.978 472.057 188.473 472.093 188.281Z" fill="#9FAFB3"/>
<path d="M439.007 166.14C438.984 166.208 438.479 166.157 437.755 165.658C437.041 165.163 436.166 164.204 435.476 162.841C434.047 160.123 433.159 156.005 432.861 151.481C432.559 146.946 432.836 142.834 433.287 139.896C433.726 136.949 434.411 135.202 434.596 135.261C434.795 135.318 434.48 137.094 434.309 140.007C434.125 142.914 434.017 146.954 434.311 151.382C434.601 155.803 435.308 159.779 436.405 162.402C436.935 163.724 437.59 164.656 438.124 165.228C438.661 165.8 439.061 166.025 439.007 166.14Z" fill="#9FAFB3"/>
<path d="M380.439 145.684C381.722 135.671 388.645 126.318 393.003 124.221C393.017 125.003 392.811 126.071 392.742 126.725C389.001 130.062 383.599 138.38 382.627 145.966C382.574 146.381 382.296 146.712 381.93 146.855C381.763 146.918 381.58 146.943 381.393 146.919C380.788 146.84 380.362 146.289 380.439 145.684Z" fill="#707070"/>
<path d="M367.948 187.295C368.146 187.295 368.281 187.277 368.323 187.272C368.922 187.183 369.377 186.623 369.339 186.022C369.304 185.429 368.801 185.009 368.206 185.096C368.158 185.096 367.611 185.143 367.189 184.729C366.7 184.251 366.494 183.3 366.59 181.975C367.419 170.632 369.72 155.87 375.976 149.968C377.738 148.306 379.669 147.495 381.876 147.488H381.88C386.867 148.124 385.581 159.714 384.221 171.983C383.844 175.367 383.457 178.864 383.173 182.33C382.996 184.475 381.286 184.819 380.944 184.868C380.351 184.949 379.885 185.496 379.909 186.095C379.933 186.692 380.44 187.123 381.021 187.047C382.391 186.889 385.056 185.695 385.333 182.326C385.615 178.89 386.001 175.408 386.375 172.041C387.92 158.108 389.255 146.075 382.245 145.296L382.134 145.289C379.308 145.316 376.787 146.331 374.574 148.42C367.744 154.861 365.286 170.238 364.427 182.002C364.28 184.027 364.696 185.516 365.666 186.422C366.476 187.179 367.428 187.297 367.948 187.295Z" fill="#707070"/>
<path d="M369.77 186.288C369.684 187.337 369.047 188.189 368.344 188.191C367.642 188.193 367.142 187.345 367.228 186.296C367.314 185.25 367.955 184.397 368.657 184.396C369.359 184.394 369.856 185.242 369.77 186.288Z" fill="#949494"/>
<path d="M382.165 185.784C382.078 186.833 381.439 187.683 380.738 187.685C380.035 187.688 379.537 186.841 379.623 185.792C379.709 184.745 380.349 183.893 381.049 183.891C381.751 183.89 382.251 184.736 382.165 185.784Z" fill="#949494"/>
<path d="M417.158 127.966C417.05 127.745 415.505 125.567 415.373 125.427C415.339 125.289 415.27 124.755 415.27 124.29C415.459 124.238 418.301 125.274 419.142 127.001C420.581 129.963 418.576 133.32 415.801 137.968C412.034 144.282 406.873 152.928 405.321 166.823C405.257 167.387 404.78 167.803 404.225 167.803C404.184 167.803 404.143 167.801 404.102 167.797C403.496 167.73 403.062 167.184 403.128 166.578C404.733 152.208 410.254 142.958 413.908 136.838C416.418 132.633 418.075 129.855 417.158 127.966Z" fill="#707070"/>
<path d="M399.164 172.029C399.164 175.645 401.324 178.577 403.989 178.577C406.653 178.577 408.814 175.645 408.814 172.029C408.814 168.413 406.653 165.482 403.989 165.482C401.324 165.482 399.164 168.413 399.164 172.029Z" fill="#707070"/>
<path d="M401.379 171.833C401.379 173.724 402.507 175.256 403.901 175.256C405.295 175.256 406.423 173.724 406.423 171.833C406.423 169.941 405.295 168.41 403.901 168.41C402.507 168.41 401.379 169.941 401.379 171.833Z" fill="#E6E6E6"/>
<path d="M259.621 112.105C259.464 118.207 258.095 129.398 261.094 132.04C264.095 134.684 266.837 137.105 266.837 137.105C258.966 151.495 250.626 154.299 232.145 137.656C236.366 136.871 236.774 131.053 236.831 128.558C236.889 126.061 237.243 112.547 237.243 112.547L259.621 112.105Z" fill="#FFD8C2"/>
<g opacity="0.399994">
<g opacity="0.399994">
<g opacity="0.399994">
<path opacity="0.399994" d="M259.621 112.105L237.243 112.547C237.243 112.547 237.029 120.719 236.906 125.527C244.768 127.526 252.577 127.677 259.332 126.845C258.9 122.31 259.518 116.115 259.621 112.105Z" fill="#A6836F"/>
</g>
</g>
</g>
<path d="M271.816 70.5576C275.399 62.495 282.693 65.6953 282.053 75.6757C281.413 85.6561 275.273 93.5897 269.129 80.9218C271.177 72.9882 271.816 70.5576 271.816 70.5576Z" fill="#FFD8C2"/>
<path d="M268.609 423.415C268.623 431.918 269.959 439.72 270.476 441.974C280.637 445.961 305.682 449.105 317.762 443.029C315.216 431.524 293.513 441.644 287.595 423.583C281.829 422.476 268.609 423.415 268.609 423.415Z" fill="#B3B3B3"/>
<path d="M229.108 431.457C227.722 440.491 226.697 447.822 226.697 447.822C219.645 455.355 209.168 471.437 201.264 467.486C196.187 451.966 210.165 448.02 210.91 432.109C214.098 432.489 229.108 431.457 229.108 431.457Z" fill="#B3B3B3"/>
<path d="M204.758 340.293C216.889 338.087 279.381 340.294 291.512 343.234C294.452 328.162 279.013 263.464 276.073 262.729C273.132 261.993 231.592 269.346 230.49 270.449" fill="#B3B3B3"/>
<path d="M285.622 248.403C287.645 269.632 286.569 381.713 287.587 423.584C280.307 427.917 268.714 425.155 268.714 425.155C266.885 397.431 261.618 288.859 258.293 277.395C252 275.699 243.185 279.013 243.185 279.013C240.295 287.846 231.258 421.05 229.102 431.466C219.085 437.774 210.637 434.227 210.637 434.227C214.294 409.215 211.952 260.971 212.102 252.447C221.791 243.218 282.212 247.679 285.622 248.403Z" fill="#17465C"/>
<path d="M229.683 133.509C226.926 135.439 220.93 137.645 220.93 137.645L217.438 252.98C217.438 252.98 264.123 256.288 282.136 250.958C291.24 248.264 274.968 141.78 274.692 140.953C274.416 140.126 267.041 134.267 267.041 134.267C267.041 134.267 251.9 142.146 247.581 142.515C243.262 142.883 229.683 133.509 229.683 133.509Z" fill="#97D1DE"/>
<path d="M269.73 136C266.88 163.754 277.725 303.902 281.034 359.87C298.679 361.524 310.81 356.01 312.464 353.804C314.945 333.403 296.106 259.056 296.106 235.897C296.106 212.738 292.613 155.575 292.062 150.336C291.51 145.098 269.73 136 269.73 136Z" fill="#DCDFE0"/>
<path d="M246.637 154.746C245.534 164.12 239.952 235.251 240.503 236.905C241.054 238.559 250.704 249.588 250.98 248.76C251.254 247.933 259.251 238.835 259.251 236.905C259.251 234.975 250.704 154.746 250.704 154.746H246.637Z" fill="#76AB96"/>
<path d="M240.641 149.233C242.295 151.439 244.638 157.091 245.879 157.642C247.12 158.194 250.428 158.194 251.117 157.642C251.807 157.091 256.08 150.336 256.08 150.336L248.36 143.168C248.36 143.168 241.468 148.406 240.641 149.233Z" fill="#669482"/>
<path d="M236.711 128.978C234.505 130.264 228.188 133.435 228.188 134.17C228.188 134.906 234.989 153.285 238.847 156.227C244.454 149.61 247.578 144.556 247.578 144.556L257.688 154.021C267.153 145.199 268.026 135.526 267.934 134.974C267.842 134.423 260.973 130.357 259.709 128.932C255.665 135.825 247.578 142.533 247.578 142.533C247.578 142.533 237.722 132.838 236.711 128.978Z" fill="#C0EFFA"/>
<path d="M275.231 41.9751C277.917 49.5249 279.452 56.5641 278.557 61.5532C277.661 66.5434 277.405 77.4204 277.022 78.3159C276.637 79.2125 274.462 79.4672 274.462 79.4672C274.462 79.4672 275.997 52.7241 272.926 41.4634" fill="#D69B40"/>
<path d="M272.671 40.0534C277.534 53.6169 273.598 70.2295 275.999 108.64C276.382 114.783 246.592 127.309 222.907 112.088C220.72 109.024 214.577 49.2663 219.439 42.1002C224.303 34.9342 258.084 23.4187 272.671 40.0534Z" fill="#FFD8C2"/>
<path d="M217.514 71.5327C213.931 63.4712 206.638 66.6704 207.278 76.6508C207.917 86.6312 217.514 96.358 220.329 85.4788C218.282 77.5463 217.514 71.5327 217.514 71.5327Z" fill="#FFD8C2"/>
<path d="M218.154 38.2618C216.491 27.7696 237.22 17.915 252.319 18.2987C267.418 18.6825 270.703 14.0342 270.703 14.0342C274.542 19.921 292.116 37.4931 274.328 44.1474C268.826 38.5165 251.808 32.247 242.723 36.5976C233.637 40.9482 222.846 40.1806 220.031 44.4044C225.575 64.3652 220.2 66.1573 221.096 69.4844C221.992 72.8105 222.888 80.2324 222.377 81.1279C221.865 82.0234 219.305 81.6396 219.305 81.6396C219.305 81.6396 218.026 72.9384 216.107 69.8671C214.187 66.7969 201.605 39.798 218.154 38.2618Z" fill="#D69B40"/>
<path d="M225.491 65.2237C223.102 57.2052 233.68 46.7958 238.799 54.8154C240.675 59.2531 241.018 61.129 239.139 60.6173C237.263 60.1045 232.997 59.4218 225.491 65.2237Z" fill="#D69B40"/>
<path d="M272.605 64.056C274.603 55.9317 263.536 46.045 258.81 54.3017C257.149 58.8243 256.9 60.7156 258.75 60.1124C260.6 59.5114 264.827 58.6236 272.605 64.056Z" fill="#D69B40"/>
<path d="M239.655 73.9922C239.655 76.7724 238.204 79.0232 236.413 79.0232C234.623 79.0232 233.172 76.7724 233.172 73.9922C233.172 71.212 234.623 68.959 236.413 68.959C238.204 68.959 239.655 71.212 239.655 73.9922Z" fill="#2B1509"/>
<path d="M265.628 73.1166C265.628 75.8957 264.177 78.1498 262.387 78.1498C260.597 78.1498 259.145 75.8957 259.145 73.1166C259.145 70.3375 260.597 68.0845 262.387 68.0845C264.177 68.0845 265.628 70.3375 265.628 73.1166Z" fill="#2B1509"/>
<path d="M248.744 91.9974C248.578 91.8629 249.413 90.6277 250.694 88.6393C251.304 87.6457 252.089 86.4293 252.556 85.0817C252.673 84.7497 252.726 84.409 252.713 84.1619C252.662 83.9116 252.666 83.8918 252.459 83.8046C251.997 83.6359 251.087 83.7616 250.27 83.9668L249.629 84.13C249.268 84.2391 248.914 84.2844 248.645 84.2391C248.443 84.0296 248.132 83.9006 248.095 83.4881C248.029 83.1198 248.042 82.5938 248.039 82.4691C248.041 82.0435 248.059 81.6332 248.078 81.2296C248.118 80.4278 248.176 79.6614 248.24 78.9335C248.369 77.48 248.523 76.1842 248.679 75.1013C248.99 72.9354 249.322 71.6274 249.51 71.6517C249.7 71.6749 249.713 73.0093 249.661 75.184C249.627 76.2703 249.586 77.5661 249.541 79.014C249.52 79.7331 249.5 80.4907 249.476 81.2781C249.474 81.6674 249.472 82.0622 249.469 82.4647C249.474 82.747 249.474 82.6511 249.476 82.6698H249.48L249.483 82.6665L249.93 82.5541C250.394 82.4416 250.868 82.3478 251.365 82.3048C251.863 82.2706 252.391 82.2552 252.988 82.4824C253.28 82.5971 253.603 82.8154 253.802 83.1286C254.021 83.4363 254.079 83.7826 254.098 84.0693C254.111 84.6472 253.978 85.1126 253.821 85.5206C253.167 87.1362 252.273 88.2688 251.531 89.2349C250.002 91.1185 248.889 92.1154 248.744 91.9974Z" fill="#A6836F"/>
<path d="M235.301 96.354C241.443 98.017 249.633 101.472 262.557 96.354C255.646 114.14 246.05 115.676 235.301 96.354Z" fill="white"/>
<path d="M269.088 134.62C268.537 143.993 270.741 235.756 274.418 257.996C276.992 227.118 278.829 183.326 280.852 173.952C279.012 171.195 275.338 167.336 275.338 167.336L280.115 166.05C281.218 160.536 281.402 141.051 281.218 140.317C281.035 139.582 269.088 134.62 269.088 134.62Z" fill="#ECF0F1"/>
<path d="M226.439 135.192C228.921 163.957 221.752 301.992 218.444 357.959C200.799 359.614 185.36 355.202 183.705 352.997C181.224 332.595 205.486 257.238 205.486 234.079C205.486 210.92 203.556 154.767 204.107 149.529C204.659 144.291 226.439 135.192 226.439 135.192Z" fill="#DCDFE0"/>
<path d="M227.087 133.812C227.639 143.186 227.225 235.638 223.549 257.878C220.975 227 217.346 182.519 215.324 173.145C217.162 170.388 220.838 166.528 220.838 166.528L216.059 165.243C214.956 159.728 214.773 140.244 214.956 139.51C215.141 138.775 227.087 133.812 227.087 133.812Z" fill="#ECF0F1"/>
<path d="M204.298 148.486C201.173 155.287 175.165 213.643 180.127 223.201C191.34 222.834 206.228 209.05 206.228 209.05C206.228 209.05 209.076 148.853 204.298 148.486Z" fill="#DCDFE0"/>
<path d="M262.122 196.999C267.787 194.05 276.846 191.824 282.736 190.97C288.625 190.119 295.42 189.229 296.865 190.863C299.124 193.419 302.863 204.138 297.311 207.373C291.76 210.61 268.969 208.552 264.59 211.063C262.018 210.416 262.122 196.999 262.122 196.999Z" fill="#FFD8C2"/>
<g opacity="0.399994">
<g opacity="0.399994">
<g opacity="0.399994">
<path opacity="0.399994" d="M286.969 190.396C288.117 199.77 289.239 207.512 289.466 209.055C292.901 208.761 295.774 208.271 297.315 207.374C302.867 204.137 299.127 193.419 296.869 190.862C295.764 189.613 291.533 189.84 286.969 190.396Z" fill="#A6836F"/>
</g>
</g>
</g>
<path d="M278.95 196.183C278.887 195.79 283.295 194.761 288.828 194.07C291.591 193.718 294.12 193.541 295.963 193.55C297.81 193.548 298.964 193.798 298.942 193.972C298.921 194.199 297.814 194.314 296.029 194.577C294.228 194.817 291.748 195.147 289.006 195.512C283.508 196.2 279.013 196.582 278.95 196.183Z" fill="#A6836F"/>
<path d="M282.055 198.549C282.048 198.153 286.073 197.754 291.049 197.793C296.023 197.777 300.079 198.426 300.027 198.788C300.008 198.988 298.988 199.123 297.369 199.179C295.755 199.208 293.516 199.263 291.038 199.248C286.087 199.208 282.062 198.956 282.055 198.549Z" fill="#A6836F"/>
<path d="M284.207 202.321C284.228 201.925 287.748 201.768 292.069 202.146C294.229 202.339 296.18 202.637 297.581 203.007C298.28 203.191 298.843 203.394 299.219 203.612C299.603 203.814 299.762 204.09 299.684 204.134C299.59 204.213 299.41 204.167 299.037 204.146C298.647 204.117 298.091 204.074 297.409 204.021C296.004 203.91 294.074 203.76 291.942 203.594C287.66 203.219 284.185 202.726 284.207 202.321Z" fill="#A6836F"/>
<path d="M265.042 195.468C272.579 197.674 270.373 209.988 270.373 209.988C259.162 219.914 197.955 239.214 181.964 231.126C178.84 224.692 178.656 219.73 182.883 213.113C187.111 206.496 224.238 201.902 265.042 195.468Z" fill="#DCDFE0"/>
<path d="M291.691 148.789C294.815 155.59 317.974 213.67 313.012 223.228C301.801 222.861 290.588 207.605 290.588 207.605C290.588 207.605 286.913 149.156 291.691 148.789Z" fill="#ECF0F1"/>
<path d="M187.294 217.141C187.133 217.095 187.285 215.886 188.254 214.22C188.714 213.372 189.443 212.486 190.309 211.564C191.21 210.678 192.286 209.791 193.515 209.012C195.986 207.47 198.527 206.641 200.406 206.377C202.292 206.094 203.472 206.303 203.469 206.481C203.474 206.703 202.348 206.864 200.63 207.379C198.908 207.88 196.598 208.803 194.288 210.243C193.141 210.971 192.12 211.763 191.234 212.533C190.386 213.337 189.632 214.085 189.103 214.799C188 216.189 187.511 217.219 187.294 217.141Z" fill="#9FAFB3"/>
<path d="M208.158 161.106C208.204 161.123 208.266 161.241 208.341 161.422C208.412 161.593 208.49 161.835 208.604 162.213C208.813 162.935 209.081 163.987 209.386 165.295C209.987 167.916 210.77 171.526 211.404 175.611C211.565 176.702 211.574 177.701 211.589 178.672C211.615 179.645 211.589 180.577 211.583 181.469C211.587 183.25 211.449 184.859 211.366 186.203C211.105 188.902 210.727 190.543 210.548 190.514C210.33 190.483 210.342 188.822 210.34 186.164C210.29 184.827 210.32 183.243 210.245 181.476C210.219 180.594 210.193 179.669 210.165 178.709C210.132 177.75 210.107 176.75 209.965 175.813C208.657 167.793 207.649 161.175 208.158 161.106Z" fill="#9FAFB3"/>
<path d="M227.964 196.812C222.588 193.366 213.765 190.333 207.976 188.955C202.186 187.576 195.499 186.079 193.915 187.576C191.433 189.919 186.746 200.258 191.985 203.98C197.223 207.702 220.106 207.702 224.242 210.597C226.861 210.184 227.964 196.812 227.964 196.812Z" fill="#FFD8C2"/>
<g opacity="0.399994">
<g opacity="0.399994">
<path opacity="0.399994" d="M227.138 196.276C226.666 200.191 225.569 207.145 223.691 207.442C219.555 204.547 196.672 204.547 191.434 200.825C190.572 200.212 190.001 199.41 189.622 198.505C189.601 200.696 190.224 202.699 191.985 203.95C197.223 207.672 220.107 207.672 224.242 210.567C226.861 210.154 227.964 196.782 227.964 196.782C227.699 196.612 227.419 196.444 227.138 196.276Z" fill="#A6836F"/>
</g>
</g>
<path d="M211.275 194.445C211.177 194.836 206.734 194.052 201.319 192.872C198.622 192.262 196.181 191.71 194.409 191.309C192.654 190.887 191.563 190.673 191.563 190.448C191.556 190.27 192.728 190.125 194.568 190.292C196.404 190.45 198.906 190.851 201.627 191.451C207.075 192.637 211.372 194.057 211.275 194.445Z" fill="#A6836F"/>
<path d="M207.971 196.533C207.928 196.934 203.897 196.825 198.963 196.418C196.492 196.213 194.268 195.956 192.662 195.783C191.054 195.58 190.051 195.355 190.051 195.155C190.031 194.788 194.13 194.506 199.082 194.97C204.042 195.378 208.014 196.137 207.971 196.533Z" fill="#A6836F"/>
<path d="M205.492 200.121C205.476 200.523 201.973 200.702 197.675 200.692C195.534 200.665 193.6 200.642 192.191 200.625C191.505 200.616 190.949 200.609 190.557 200.604C190.184 200.59 190.001 200.62 189.915 200.534C189.841 200.482 190.023 200.224 190.424 200.053C190.818 199.871 191.397 199.721 192.11 199.6C193.538 199.358 195.508 199.235 197.677 199.237C202.015 199.248 205.507 199.721 205.492 200.121Z" fill="#A6836F"/>
<path d="M227.912 195.468C220.376 197.674 222.582 209.988 222.582 209.988C233.793 219.914 294.999 239.214 310.99 231.126C315.08 225.336 314.849 219.548 310.071 213.113C305.388 206.809 268.716 201.902 227.912 195.468Z" fill="#ECF0F1"/>
<path d="M306.214 216.4C305.997 216.478 305.508 215.45 304.404 214.058C303.877 213.344 303.122 212.595 302.275 211.792C301.389 211.022 300.368 210.23 299.22 209.502C296.91 208.063 294.6 207.139 292.879 206.639C291.161 206.123 290.034 205.962 290.039 205.742C290.036 205.563 291.216 205.353 293.102 205.636C294.981 205.9 297.523 206.73 299.993 208.271C301.223 209.05 302.298 209.938 303.199 210.822C304.067 211.745 304.795 212.631 305.255 213.479C306.223 215.145 306.375 216.354 306.214 216.4Z" fill="#DCDFE0"/>
<path d="M270.113 440.174C270.251 440.938 270.375 441.546 270.471 441.963C280.631 445.95 305.677 449.094 317.756 443.018C317.619 442.401 317.418 441.858 317.177 441.358C302.637 447.659 281.171 442.009 270.113 440.174Z" fill="#DCDFE0"/>
<path d="M226.695 447.841C226.695 447.841 226.882 446.503 227.202 444.28C213.341 461.918 206.753 467.346 200.652 465.27C200.816 465.99 201.009 466.73 201.262 467.505C209.166 471.456 219.643 455.374 226.695 447.841Z" fill="#DCDFE0"/>
<path d="M215.942 83.9916C215.919 84.0875 215.657 84.114 215.176 84.0467C214.715 83.9375 214.006 83.7048 213.353 83.0354C212.709 82.3958 212.15 81.229 212.466 79.9101C212.614 79.2638 213.007 78.611 213.602 78.1676L213.958 77.9239L213.962 77.9173L213.96 77.9261C213.948 77.8577 213.934 77.6703 213.898 77.5512C213.675 76.4748 213.251 75.4536 212.686 74.7809C212.417 74.428 212.08 74.2494 211.938 74.2372C211.818 74.2019 211.609 74.3552 211.451 74.6475C211.165 75.2419 211.033 75.8881 210.945 76.3116C210.852 76.745 210.753 76.9931 210.652 76.9965C210.552 76.9998 210.459 76.7549 210.379 76.2929C210.328 76.0635 210.314 75.7756 210.323 75.4349C210.311 75.0985 210.372 74.6971 210.505 74.2438C210.616 74.0145 210.666 73.7685 210.915 73.527C211.09 73.2844 211.488 73.0561 211.866 73.0341C212.673 72.9955 213.253 73.4443 213.67 73.8722C214.53 74.7732 215.047 75.9686 215.324 77.2677C215.369 77.4442 215.375 77.5622 215.406 77.7905C215.443 78.0915 215.481 78.3915 215.517 78.6882L215.531 78.8006C215.507 78.8205 215.466 78.8304 215.435 78.847L215.232 78.933L214.832 79.1039L214.64 79.1877L214.576 79.2318L214.446 79.3157C214.11 79.5483 213.877 79.8836 213.759 80.2575C213.508 81.0173 213.751 81.8323 214.141 82.3748C214.957 83.4975 216.028 83.7611 215.942 83.9916Z" fill="#A6836F"/>
<path d="M237.435 95.3492C237.559 95.7384 236.564 96.3869 235.285 96.9626C234.625 97.225 234.049 97.4533 233.584 97.5625C233.119 97.6662 232.766 97.6507 232.658 97.482C232.55 97.3121 232.712 97.0177 233.079 96.667C233.443 96.3108 234.014 95.905 234.701 95.6304C236.065 95.0194 237.32 94.972 237.435 95.3492Z" fill="#A6836F"/>
<path d="M128.752 331.017C115.518 330.466 53.2096 332.671 40.5273 336.531C44.3872 314.199 72.7845 268.433 72.7845 268.433L122.135 271.19" fill="#B3B3B3"/>
<path d="M103.753 426.779C102.813 435.23 103.27 443.132 103.531 445.429C113.181 450.53 137.718 456.458 150.4 451.771C149.16 440.053 126.461 447.681 122.601 429.072C116.995 427.326 103.753 426.779 103.753 426.779Z" fill="white"/>
<path d="M63.5976 430.356C61.2078 439.179 59.3706 446.348 59.3706 446.348C49.9967 453.516 30.6976 458.295 24.8152 457.192C21.5068 441.201 42.92 444.694 45.441 428.967C48.5653 429.701 63.5976 430.356 63.5976 430.356Z" fill="white"/>
<path d="M139.137 260.517C138.77 281.838 126.271 387.341 122.595 429.064C114.875 432.555 103.663 428.513 103.663 428.513C104.95 400.758 111.87 292.278 109.849 280.515C103.783 278.125 94.6532 280.432 94.6532 280.432C90.7933 288.886 66.9032 420.24 63.5948 430.35C52.934 435.497 44.9375 431.027 44.9375 431.027C51.3702 406.581 65.249 267.317 66.3518 258.863C77.0127 250.776 135.829 259.415 139.137 260.517Z" fill="black"/>
<path d="M118.97 132.94C119.705 146.542 132.525 238.856 129.584 259.809C102.381 260.36 82.8989 261.463 82.8989 261.463L79.0391 132.618C79.0391 132.618 118.602 130.182 118.97 132.94Z" fill="#BCBEBF"/>
<path d="M171.487 262.302C171.831 266.024 152.119 263.749 152.188 262.096C152.739 258.373 169.557 256.513 171.487 262.302Z" fill="#9EAEB3"/>
<path d="M169.143 260.442C168.454 265.404 170.108 272.573 171.003 276.57C171.656 279.481 172.934 286.978 173.76 294.422C174.587 301.867 171.556 303.934 168.04 305.381C164.975 306.644 158.942 309.241 154.393 304.83C154.048 303.383 159.493 280.155 157.426 280.568C155.358 280.982 153.979 291.183 152.463 291.734C149.913 293.388 148.954 291.941 149.086 291.113C149.808 286.57 151.154 279.12 151.842 275.124C152.531 271.126 155.496 272.711 156.185 269.54C156.874 266.369 156.874 259.615 156.874 259.615" fill="#DB925E"/>
<g opacity="0.5">
<g opacity="0.5">
<path opacity="0.5" d="M169.477 268.812C169.042 265.917 168.806 262.908 169.149 260.442L156.881 259.615C156.881 259.615 156.881 264.76 156.422 268.178C159.694 267.91 164.487 267.826 169.477 268.812Z" fill="#A85920"/>
</g>
</g>
<path d="M146.675 342.314C138.128 347.828 121.311 347.277 121.311 347.277C122.413 328.253 124.068 163.108 114.418 130.851C120.483 130.851 133.64 134.021 136.948 136.227C140.257 138.432 174.521 210.253 171.488 262.636C161.839 260.155 152.189 262.085 152.189 262.085C152.465 245.267 139.231 184.612 139.231 184.612C139.783 212.458 152.465 308.678 146.675 342.314Z" fill="#DCDFE0"/>
<path d="M108.352 107.428C107.663 113.494 105.319 124.522 108.076 127.417C110.833 130.312 114.142 130.863 114.142 130.863C105.043 144.51 99.1158 146.854 82.1602 128.658C86.4335 128.244 84.0901 130.45 84.3658 127.968C84.6415 125.487 86.02 105.912 86.02 105.912L108.352 107.428Z" fill="#DB925E"/>
<g opacity="0.5">
<g opacity="0.5">
<g opacity="0.5">
<path opacity="0.5" d="M84.8867 121.566C85.3819 114.99 86.0215 105.912 86.0215 105.912L108.353 107.428C107.844 111.906 106.44 119.08 106.846 123.698C100.144 124.317 92.527 123.888 84.8867 121.566Z" fill="#A85920"/>
</g>
</g>
</g>
<path d="M108.807 143.094C107.52 147.689 105.498 150.813 105.498 150.813L103.293 151.365L97.043 144.564L102.374 139.601L108.807 143.094Z" fill="#686D8A"/>
<path d="M106.157 149.462C109.321 158.05 116.911 228.29 116.685 234.955C116.459 241.621 110.707 252.074 110.396 251.898C108.109 250.61 101.296 240.645 100.844 236.691C100.392 232.736 102.88 156.68 102.09 150.013C102.316 149.449 106.157 149.462 106.157 149.462Z" fill="#7A80A1"/>
<path d="M107.334 125.728C111.206 128.394 116.167 131.335 116.167 131.335C114.926 139.606 113.41 145.487 111.527 148.244C107.649 142.928 102.383 139.606 102.383 139.606C99.764 144.155 95.9494 149.761 95.9494 149.761C91.1246 147.831 80.9236 137.354 80.2344 129.083C81.6129 127.659 84.6059 125.264 84.6059 125.264C86.9494 128.848 100.498 138.043 102.153 138.457C106.15 137.079 107.334 125.728 107.334 125.728Z" fill="#DCDFE0"/>
<path d="M114.234 130.043C116.716 130.595 121.035 130.824 122.505 131.836C124.894 139.464 127.008 159.176 127.008 159.176L122.414 157.614C125.354 160.922 126.549 162.852 126.549 162.852C126.549 162.852 127.789 213.075 121.54 224.747C120.438 206.459 118.278 148.515 114.234 130.043Z" fill="#ECF0F1"/>
<path d="M81.1927 128.797C75.4029 129.9 65.2483 130.866 60.8371 133.348C56.4258 135.829 60.9286 166.155 60.9286 166.155C66.1669 196.482 59.8258 237.837 47.6949 277.263C35.564 316.688 27.293 340.399 27.293 340.399C43.8351 350.324 74.438 348.394 74.438 348.394C84.9147 324.684 103.249 215.919 81.1927 128.797Z" fill="#DCDFE0"/>
<path d="M71.7773 130.313C73.7073 138.032 78.7162 157.193 78.7162 157.193L83.2653 156.642L80.3704 161.191C80.3704 161.191 90.6629 214.402 91.7657 224.465C92.5928 195.654 90.9849 159.537 81.1975 128.796C75.8213 128.108 71.7773 130.313 71.7773 130.313Z" fill="#ECF0F1"/>
<path d="M121.175 29.1776C132.938 35.9003 135.981 37.3395 133.099 54.626C130.218 71.9125 127.656 90.4783 128.937 104.563C128.618 109.365 99.1671 120.889 74.1985 106.484C71.9575 83.7556 71.6377 53.0258 76.7592 38.9419C81.8806 24.8557 103.249 20.8536 121.175 29.1776Z" fill="#DB925E"/>
<path d="M80.6696 295.424C80.095 295.619 79.7851 296.249 79.9803 296.824L85.0907 311.831C85.2859 312.404 85.9156 312.715 86.4902 312.519L93.9275 309.987C94.5021 309.792 94.812 309.162 94.6168 308.588L89.5086 293.579C89.3123 293.006 88.6837 292.696 88.1091 292.891L80.6696 295.424Z" fill="#916952"/>
<path d="M8.85707 300.49C8.28251 300.685 7.97262 301.315 8.16782 301.889L25.1091 351.654C25.3043 352.227 25.9341 352.536 26.5086 352.342L95.5852 328.823C96.1597 328.628 96.4685 327.998 96.2733 327.425L79.332 277.661C79.1368 277.086 78.5071 276.776 77.9325 276.973L8.85707 300.49Z" fill="#402206"/>
<path d="M74.68 70.7941C73.5595 58.6313 57.8743 63.7527 58.9947 72.5564C60.1152 81.3579 70.1993 89.8407 73.8793 82.1586C74.841 73.8357 74.68 70.7941 74.68 70.7941Z" fill="#DB925E"/>
<path d="M106.244 89.6177C106.209 89.514 106.605 89.3056 107.284 88.9218C107.955 88.538 108.95 87.9712 109.783 86.982C110.616 85.9928 110.975 84.4819 110.56 82.7913C110.156 81.1547 109.074 79.2513 108.504 77.1008C107.186 72.8065 107.559 68.6103 108.25 65.8412C108.548 64.4252 108.979 63.34 109.28 62.5956C109.583 61.8512 109.794 61.4586 109.889 61.4895C109.985 61.5204 109.955 61.9725 109.824 62.7544C109.693 63.5363 109.419 64.6424 109.261 66.0308C108.849 68.7801 108.663 72.6532 109.899 76.6917C110.432 78.7407 111.426 80.4809 111.87 82.5134C112.059 83.507 112.059 84.5227 111.817 85.4325C111.578 86.3446 111.089 87.1099 110.549 87.6679C109.427 88.7641 108.277 89.1964 107.508 89.4423C106.726 89.6794 106.273 89.7048 106.244 89.6177Z" fill="#7A431C"/>
<path d="M86.9618 69.5134C86.6144 69.3369 86.707 68.2771 87.3368 66.7244C87.6555 65.9491 88.1098 65.0514 88.7836 64.1152C89.4828 63.1987 90.3209 62.1665 91.8318 61.4508C92.5839 61.1111 93.6018 60.9369 94.5557 61.2412C95.5052 61.5577 96.1493 62.2305 96.522 62.8359C97.2587 64.0799 97.3392 65.1871 97.358 66.0704C97.3271 67.8448 96.8231 68.8131 96.447 68.7933C96.0291 68.7767 95.7798 67.7599 95.3244 66.3704C95.0928 65.6955 94.773 64.8849 94.3252 64.3699C94.1036 64.114 93.8874 64.0027 93.7352 63.9696C93.5797 63.9519 93.3559 63.9608 93.003 64.1129C92.2928 64.4295 91.5043 65.1474 90.8492 65.8212C90.1842 66.5127 89.6019 67.2107 89.0913 67.7952C88.0745 68.9708 87.329 69.6998 86.9618 69.5134Z" fill="#2B1509"/>
<path d="M117.334 70.6952C117.004 70.489 117.196 69.4413 117.969 67.9547C118.36 67.2125 118.895 66.3612 119.654 65.4933C120.436 64.6474 121.367 63.6968 122.939 63.1266C123.719 62.8587 124.749 62.7793 125.67 63.1719C126.586 63.5766 127.164 64.3066 127.478 64.9441C128.095 66.252 128.071 67.3614 128.007 68.2415C127.811 70.006 127.219 70.9235 126.846 70.8672C126.43 70.8121 126.277 69.7777 125.954 68.3506C125.787 67.657 125.545 66.8199 125.148 66.2652C124.95 65.9895 124.746 65.8583 124.597 65.8109C124.444 65.78 124.221 65.7668 123.855 65.8859C123.118 66.134 122.266 66.7758 121.551 67.3846C120.825 68.011 120.178 68.6506 119.616 69.1855C118.493 70.2596 117.683 70.9158 117.334 70.6952Z" fill="#2B1509"/>
<path d="M98.9692 43.2234C99.5691 45.7444 99.3298 52.4671 98.4883 52.5862C97.6491 52.7064 92.9666 49.2249 83.8442 57.3889C82.7634 55.1072 82.8373 51.2254 83.4835 49.3462C84.8036 45.504 96.2077 40.2215 98.9692 43.2234Z" fill="#452614"/>
<path d="M124.032 44.487C123.208 46.9165 122.047 53.1871 122.691 53.3988C123.335 53.6106 127.516 50.9175 132.589 60.0487C133.755 57.9104 134.237 54.0572 133.992 52.1251C133.491 48.1748 126.62 41.8204 124.032 44.487Z" fill="#452614"/>
<path d="M133.12 37.269C125.677 42.9109 108.678 34.8351 100.035 30.5143C89.3746 26.6544 78.255 36.1662 78.5594 37.8248C78.6796 46.5877 80.7209 51.7499 79.4008 57.1515C78.0797 62.553 77.9595 68.796 78.3201 71.917C78.6796 75.0379 74.3588 77.1983 74.3588 77.1983C74.2386 70.8362 72.7983 65.9155 72.1973 64.3539C71.5974 62.7946 72.0771 47.1876 74.3588 39.865C76.6394 32.5434 103.344 9.42308 133.12 37.269Z" fill="#452614"/>
<path d="M93.8094 92.3225C93.8955 92.2707 94.1767 92.5254 94.6046 93.0206C94.8185 93.2665 95.07 93.5753 95.3523 93.9359C95.6478 94.2866 96.0151 94.6594 96.3922 95.0906C97.9373 96.747 100.297 98.9614 103.551 99.997C105.161 100.522 106.781 100.71 108.257 100.686C109.739 100.66 111.062 100.374 112.168 100.115C114.366 99.5161 115.66 98.8445 115.775 99.043C115.87 99.1842 114.742 100.194 112.485 101.093C111.351 101.499 109.946 101.916 108.323 102.024C106.708 102.131 104.892 101.963 103.098 101.38C99.4569 100.21 97.001 97.6403 95.6004 95.7456C95.2563 95.2516 94.9321 94.8171 94.6906 94.409C94.4634 93.9922 94.2748 93.6283 94.1304 93.3272C93.8392 92.7262 93.7223 92.3744 93.8094 92.3225Z" fill="#7A431C"/>
<path d="M69.9541 80.4745C69.9177 80.5649 69.6144 80.5274 69.0795 80.3708C68.8049 80.3068 68.495 80.1646 68.1377 79.976C67.765 79.8172 67.3978 79.5194 66.9787 79.1974C66.7967 78.9945 66.6048 78.7839 66.4063 78.5633C66.2541 78.2986 66.0623 78.034 65.9509 77.7086C65.6895 77.0712 65.6829 76.2408 65.9961 75.492C66.3104 74.7432 66.9599 74.0958 67.7948 73.7859C68.2138 73.6293 68.6693 73.5698 69.1292 73.5885C69.3982 73.6271 69.2538 73.6062 69.2913 73.6095L69.2847 73.5731L69.278 73.5301C69.2747 73.5113 69.2836 73.54 69.2692 73.4827L69.2031 73.2268C69.1049 72.8927 69.0564 72.5376 68.9218 72.2365C68.8049 71.9277 68.709 71.6079 68.5491 71.3465L68.3362 70.9385L68.0815 70.5878C67.4066 69.657 66.4196 69.3681 65.5925 69.5699C64.7532 69.743 64.1379 70.2536 63.764 70.6209C63.378 70.9903 63.174 71.244 63.0725 71.1921C62.9942 71.1579 63.0229 70.8139 63.3141 70.279C63.5964 69.7563 64.182 68.9898 65.3035 68.584C65.8483 68.3634 66.5552 68.316 67.2533 68.5046C67.969 68.6755 68.6119 69.1552 69.1126 69.7331L69.4765 70.1875C69.5813 70.3474 69.6728 70.5172 69.771 70.6859C69.9849 71.0212 70.1118 71.384 70.2617 71.7513C70.4283 72.1174 70.4922 72.5023 70.6091 72.8871L70.6863 73.1794L70.7746 73.6933C70.8341 74.055 70.8948 74.4189 70.9543 74.7862C71.0106 75.1247 71.0646 75.4622 71.1186 75.7908C70.7415 75.6364 70.3676 75.4832 69.9971 75.3299L69.4468 75.1512C69.2714 75.0939 69.0387 75.0167 69.0244 75.0233C68.7652 75.0134 68.5116 75.0332 68.2712 75.1148C67.7915 75.2725 67.4011 75.6265 67.1981 76.039C66.7658 76.8716 67.1353 77.8553 67.6988 78.4971C68.902 79.7676 70.0677 80.255 69.9541 80.4745Z" fill="#7A431C"/>
<path d="M27.7579 273.381C28.3556 276.138 49.4005 273.105 49.0785 268.97C47.379 262.766 27.7116 263.869 27.7579 273.381Z" fill="#9EAEB3"/>
<path d="M44.342 265C44.4798 270.376 46.2719 283.334 46.2719 283.334L32.0732 286.091L30.8789 266.792" fill="#DB925E"/>
<g opacity="0.5">
<g opacity="0.5">
<path opacity="0.5" d="M44.342 265L30.8789 266.792L31.6001 278.453C36.2628 276.278 41.5067 275.347 45.2606 275.354C44.8283 271.64 44.4059 267.501 44.342 265Z" fill="#A85920"/>
</g>
</g>
<path d="M46.0484 281.148C55.2734 280.015 60.2802 279.368 61.3223 282.149C62.3645 284.93 64.8259 303.389 62.5189 304.745C60.2118 306.103 47.9155 306.118 46.3098 304.97C44.7041 303.822 44.402 291.415 42.7334 291.632C41.0638 291.846 35.4405 292.854 33.5801 291.207C30.6742 288.632 31.4098 283.299 32.5865 283.159C33.7643 283.018 46.0484 281.148 46.0484 281.148Z" fill="#DB925E"/>
<path d="M56.2957 283.922C56.3563 283.858 56.6298 284.163 56.7908 284.718C56.9893 285.277 57.1581 286.087 57.3224 287.095C57.6488 289.108 57.9124 291.899 58.0745 294.983C58.3921 301.153 58.2487 306.158 57.8661 306.178C57.4459 306.198 56.9386 301.208 56.6221 295.06C56.4611 291.986 56.3607 289.203 56.299 287.194C56.2725 286.196 56.2504 285.386 56.235 284.822C56.2438 284.253 56.1942 283.995 56.2957 283.922Z" fill="#7A431C"/>
<path d="M51.2044 284.957C51.6014 284.906 52.5156 289.547 53.2457 295.319C53.9746 301.092 54.2426 305.813 53.8456 305.864C53.4464 305.915 52.5322 301.275 51.8032 295.502C51.0742 289.729 50.8052 285.008 51.2044 284.957Z" fill="#7A431C"/>
<path d="M46.4585 286.943C46.8511 286.867 47.9472 290.818 48.9034 295.765C49.8595 300.712 50.315 304.786 49.9224 304.862C49.5265 304.938 48.4325 300.988 47.4763 296.041C46.5202 291.093 46.0636 287.02 46.4585 286.943Z" fill="#7A431C"/>
<path d="M159.764 307.047C159.671 307.011 159.67 306.698 159.746 306.172C159.809 305.639 160.013 304.923 160.129 303.984C160.458 302.142 160.808 299.571 161.17 296.726C161.897 291.021 162.18 286.393 162.567 286.371C162.983 286.344 163.351 291.121 162.613 296.903C162.245 299.793 161.727 302.393 161.128 304.228C160.88 305.153 160.513 305.871 160.281 306.355C160.036 306.839 159.857 307.084 159.764 307.047Z" fill="#7A431C"/>
<path d="M164.69 306.292C164.508 306.183 164.873 305.18 165.145 303.444C165.429 301.715 165.722 299.295 165.925 296.606C166.125 293.918 166.225 291.476 166.248 289.713C166.286 287.946 166.23 286.855 166.435 286.809C166.622 286.764 167.047 287.843 167.273 289.652C167.516 291.457 167.58 293.964 167.375 296.717C167.166 299.469 166.702 301.945 166.143 303.69C165.596 305.448 164.851 306.398 164.69 306.292Z" fill="#7A431C"/>
<path d="M169.644 304.177C169.45 304.07 169.79 303.159 169.979 301.642C170.178 300.123 170.193 297.988 170.046 295.599C169.904 293.211 169.718 291.022 169.68 289.425C169.636 287.828 169.721 286.827 169.92 286.808C170.121 286.788 170.397 287.748 170.703 289.312C171 290.878 171.351 293.058 171.498 295.516C171.65 297.972 171.469 300.262 170.984 301.857C170.504 303.464 169.795 304.272 169.644 304.177Z" fill="#7A431C"/>
<path d="M139.776 194.558C139.57 194.568 139.259 191.483 138.858 186.494C138.475 181.506 137.953 174.62 137.288 167.026C136.633 159.43 135.783 152.589 135.118 147.642C134.388 142.708 133.887 139.651 134.107 139.601C134.279 139.561 135.137 142.548 136.133 147.473C137.062 152.405 138.079 159.273 138.736 166.896C139.405 174.516 139.763 181.433 139.883 186.44C140.023 191.448 139.97 194.548 139.776 194.558Z" fill="#9FAFB3"/>
<path d="M61.7127 133.072C57.6687 133.441 49.6281 137.39 40.8056 165.512C31.9832 193.635 22.9766 206.685 22.9766 218.264C22.9766 229.844 25.1822 268.442 27.755 273.405C35.1074 268.442 45.9525 267.523 49.0767 268.993C49.4439 244.547 39.8859 223.228 55.8766 193.268C64.8832 176.91 70.351 163.769 61.7127 133.072Z" fill="#DCDFE0"/>
<path fill-rule="evenodd" clip-rule="evenodd" d="M84.4281 59.2081C82.2773 60.1303 81.8171 70.9563 82.8859 72.2625C83.9524 73.568 100.331 74.4001 101.4 73.6873C102.468 72.9752 103.892 61.8186 103.654 60.632C103.417 59.4453 95.2279 54.5795 84.4281 59.2081Z" stroke="black" stroke-width="0.004" stroke-miterlimit="10"/>
<path fill-rule="evenodd" clip-rule="evenodd" d="M115.386 60.6633C113.178 61.433 111.973 72.2049 112.95 73.5807C113.925 74.9557 130.207 76.9108 131.321 76.2748C132.435 75.6372 134.624 64.6065 134.47 63.4055C134.314 62.2046 126.48 56.7877 115.386 60.6633Z" stroke="black" stroke-width="0.004" stroke-miterlimit="10"/>
<path d="M103.059 67.2769C105.077 65.0224 111.901 64.9106 112.849 67.997" stroke="black" stroke-width="0.004" stroke-miterlimit="10" stroke-linecap="round"/>
<path d="M72.7381 66.0634L82.251 64.8237" stroke="black" stroke-width="0.004" stroke-miterlimit="10" stroke-linecap="round"/>
<path d="M62.7098 180.186C62.6172 180.148 62.7164 179.596 62.9734 178.634C63.0947 178.151 63.2877 177.577 63.4564 176.894C63.6263 176.211 63.8192 175.435 64.0321 174.578C64.8482 171.142 65.6731 166.322 65.8616 160.943C65.9675 158.256 65.9333 155.69 65.7547 153.37C65.6069 151.045 65.3257 148.964 64.9937 147.241C64.6971 145.504 64.2714 144.155 63.9803 143.217C63.6549 142.3 63.4421 141.787 63.5369 141.725C63.6086 141.675 63.9935 142.098 64.4986 142.989C64.964 143.891 65.5595 145.256 65.9951 147.012C66.4671 148.76 66.863 150.881 67.0902 153.254C67.3471 155.625 67.4221 158.251 67.3151 160.999C67.121 166.501 66.112 171.419 65.0246 174.848C64.7302 175.698 64.4633 176.468 64.2295 177.143C63.9836 177.813 63.7101 178.369 63.5049 178.828C63.0804 179.74 62.8025 180.223 62.7098 180.186Z" fill="#9FAFB3"/>
<path d="M119.479 145.684C118.195 135.671 111.273 126.318 106.915 124.221C106.9 125.003 107.108 126.071 107.176 126.725C110.917 130.062 116.318 138.38 117.292 145.966C117.345 146.381 117.623 146.712 117.988 146.855C118.155 146.918 118.338 146.943 118.526 146.919C119.129 146.84 119.557 146.289 119.479 145.684Z" fill="#707070"/>
<path d="M131.978 187.295C131.78 187.295 131.645 187.277 131.603 187.272C131.004 187.183 130.55 186.623 130.587 186.022C130.623 185.429 131.125 185.009 131.719 185.096C131.767 185.096 132.314 185.143 132.737 184.729C133.225 184.251 133.432 183.3 133.335 181.975C132.506 170.632 130.206 155.87 123.949 149.968C122.188 148.306 120.257 147.495 118.049 147.488H118.045C113.058 148.124 114.344 159.714 115.705 171.983C116.081 175.367 116.469 178.864 116.754 182.33C116.93 184.475 118.639 184.819 118.981 184.868C119.575 184.949 120.04 185.496 120.016 186.095C119.993 186.692 119.485 187.123 118.905 187.047C117.534 186.889 114.87 185.695 114.593 182.326C114.311 178.89 113.924 175.408 113.55 172.041C112.005 158.108 110.671 146.075 117.681 145.296L117.791 145.289C120.618 145.316 123.139 146.331 125.352 148.42C132.181 154.861 134.639 170.238 135.498 182.002C135.646 184.027 135.229 185.516 134.26 186.422C133.449 187.179 132.497 187.297 131.978 187.295Z" fill="white"/>
<path d="M130.154 186.288C130.24 187.337 130.879 188.189 131.58 188.191C132.282 188.193 132.782 187.345 132.696 186.296C132.61 185.25 131.969 184.397 131.268 184.396C130.567 184.394 130.068 185.242 130.154 186.288Z" fill="#949494"/>
<path d="M117.76 185.784C117.847 186.833 118.484 187.683 119.186 187.685C119.888 187.688 120.388 186.841 120.302 185.792C120.216 184.745 119.576 183.893 118.875 183.891C118.173 183.89 117.674 184.736 117.76 185.784Z" fill="#949494"/>
<path d="M82.7715 127.966C82.8796 127.745 84.4246 125.567 84.5559 125.427C84.5901 125.289 84.6595 124.755 84.6595 124.29C84.4699 124.238 81.6279 125.274 80.7876 127.001C79.3484 129.963 81.3533 133.32 84.128 137.968C87.8952 144.282 93.0563 152.928 94.608 166.823C94.6719 167.387 95.1494 167.803 95.7042 167.803C95.745 167.803 95.7858 167.801 95.8277 167.797C96.4331 167.73 96.8676 167.184 96.8015 166.578C95.1958 152.208 89.6751 142.958 86.0215 136.838C83.5115 132.633 81.854 129.855 82.7715 127.966Z" fill="#707070"/>
<path d="M100.755 172.029C100.755 175.645 98.5946 178.577 95.9303 178.577C93.2659 178.577 91.1055 175.645 91.1055 172.029C91.1055 168.413 93.2659 165.482 95.9303 165.482C98.5946 165.482 100.755 168.413 100.755 172.029Z" fill="white"/>
<path d="M98.5481 171.833C98.5481 173.724 97.42 175.256 96.026 175.256C94.6321 175.256 93.5039 173.724 93.5039 171.833C93.5039 169.941 94.6321 168.41 96.026 168.41C97.42 168.41 98.5481 169.941 98.5481 171.833Z" fill="#DCDFE0"/>
</svg>
