<svg width="566" height="566" viewBox="0 0 566 566" fill="none" xmlns="http://www.w3.org/2000/svg">
<path d="M70.9977 232.762C70.9977 232.762 55.3421 301.814 100.588 362.342C145.834 422.87 224.135 446.8 287.153 467.855C350.172 488.911 408.843 465.467 430.577 412.546C452.312 359.625 407.519 330.736 397.229 261.356C386.939 191.976 394.659 172.064 348.451 118.984C302.243 65.9049 208.083 66.5388 144.815 120.309C81.5479 174.079 70.9977 232.762 70.9977 232.762Z" fill="#FF8900"/>
<path opacity="0.7" d="M70.9977 232.762C70.9977 232.762 55.3421 301.814 100.588 362.342C145.834 422.87 224.135 446.8 287.153 467.855C350.172 488.911 408.843 465.467 430.577 412.546C452.312 359.625 407.519 330.736 397.229 261.356C386.939 191.976 394.659 172.064 348.451 118.984C302.243 65.9049 208.083 66.5388 144.815 120.309C81.5479 174.079 70.9977 232.762 70.9977 232.762Z" fill="white"/>
<path d="M438.659 140.98C438.659 140.98 439.791 135.116 433.191 125.29C426.592 115.464 422.234 109.736 422.234 109.736C422.234 109.736 415.442 122.437 421.509 132.15C425.993 139.027 431.045 145.517 436.61 151.552L438.659 140.98Z" fill="#FF8900"/>
<path d="M419.565 175.313C419.565 175.313 420.697 169.449 414.097 159.623C407.497 149.798 403.117 144.07 403.117 144.07C403.117 144.07 396.325 156.771 402.403 166.472C406.886 173.354 411.937 179.848 417.504 185.886L419.565 175.313Z" fill="#FF8900"/>
<path d="M436.18 150.884C436.18 150.884 437.946 145.224 448.417 139.632C458.888 134.04 465.397 131.108 465.397 131.108C465.397 131.108 465.397 145.485 455.458 151.201C448.253 155.142 440.734 158.478 432.977 161.174L436.18 150.884Z" fill="#FF8900"/>
<path d="M413.316 191.365C413.316 191.365 415.67 185.863 426.662 181.46C437.654 177.056 444.48 174.77 444.48 174.77C444.48 174.77 442.929 189.067 432.48 193.708C424.906 196.875 417.079 199.401 409.082 201.258L413.316 191.365Z" fill="#FF8900"/>
<path d="M406.795 239.101C406.795 239.101 407.927 233.226 417.775 226.649C427.623 220.072 433.793 216.371 433.793 216.371C433.793 216.371 435.264 230.679 426.027 237.403C419.287 242.091 412.164 246.204 404.734 249.697L406.795 239.101Z" fill="#FF8900"/>
<path d="M404.406 250.591C404.406 250.591 406.375 244.931 401.236 234.279C396.097 223.627 392.576 217.299 392.576 217.299C392.576 217.299 384.086 228.902 388.671 239.373C392.13 246.818 396.208 253.96 400.863 260.722L404.406 250.591Z" fill="#FF8900"/>
<path d="M389.634 283.159C389.634 283.159 390.766 277.295 400.604 270.707C410.441 264.119 416.633 260.36 416.633 260.36C416.633 260.36 418.104 274.658 408.867 281.393C402.124 286.076 395.002 290.188 387.574 293.686L389.634 283.159Z" fill="#FF8900"/>
<path d="M389.065 315.195C389.065 315.195 388.692 309.229 396.525 300.343C404.359 291.457 409.419 286.396 409.419 286.396C409.419 286.396 414.467 299.856 407.234 308.708C401.898 314.949 396.048 320.732 389.745 325.994L389.065 315.195Z" fill="#FF8900"/>
<path d="M439.688 139.621C438.081 145.655 436.142 151.595 433.881 157.416C427.35 173.57 417.116 182.807 410.902 197.33C404.687 211.854 410.2 233.215 403.895 252.198C397.589 271.182 387.899 280.498 387.526 293.947C387.152 307.395 391.669 344.785 391.669 344.785" stroke="#263238" stroke-width="0.5" stroke-linecap="round" stroke-linejoin="round"/>
<path d="M435.344 154.767L445.532 149.707" stroke="#263238" stroke-width="0.5" stroke-linecap="round" stroke-linejoin="round"/>
<path d="M437.278 147.025L434.867 139.712" stroke="#263238" stroke-width="0.5" stroke-linecap="round" stroke-linejoin="round"/>
<path d="M411.527 196.731C411.527 196.731 420.04 192.622 428.745 188.546" stroke="#263238" stroke-width="0.5" stroke-linecap="round" stroke-linejoin="round"/>
<path d="M417.502 185.886C417.502 185.886 413.687 172.562 408.254 163.167" stroke="#263238" stroke-width="0.5" stroke-linecap="round" stroke-linejoin="round"/>
<path d="M405.457 247.512C411.212 240.538 417.95 234.437 425.459 229.4" stroke="#263238" stroke-width="0.5" stroke-linecap="round" stroke-linejoin="round"/>
<path d="M402.4 255.47C401.181 249.731 399.485 244.105 397.329 238.649C394.25 231.426 393.797 230.476 393.797 230.476" stroke="#263238" stroke-width="0.5" stroke-linecap="round" stroke-linejoin="round"/>
<path d="M387.527 293.947C390.314 289.649 393.429 285.573 396.844 281.755C400.195 278.247 403.83 275.021 407.711 272.11" stroke="#263238" stroke-width="0.5" stroke-linecap="round" stroke-linejoin="round"/>
<path d="M389.746 325.937C390.19 321.399 391.835 317.062 394.512 313.372C398.768 307.995 403.806 300.863 405.832 298.044" stroke="#263238" stroke-width="0.5" stroke-linecap="round" stroke-linejoin="round"/>
<path d="M369.518 208.9C369.518 208.9 369.598 205.085 375.042 199.844C380.487 194.602 383.974 191.659 383.974 191.659C383.974 191.659 386.453 200.466 381.382 205.685C377.666 209.358 373.648 212.713 369.371 215.714L369.518 208.9Z" fill="#FF8900"/>
<path d="M376.729 232.83C376.729 232.83 376.82 229.027 382.253 223.774C387.687 218.522 391.196 215.59 391.196 215.59C391.196 215.59 393.664 224.397 388.604 229.627C384.883 233.296 380.862 236.647 376.582 239.645L376.729 232.83Z" fill="#FF8900"/>
<path d="M369.71 215.386C369.71 215.386 369.393 211.594 363.631 206.726C357.869 201.859 354.201 199.119 354.201 199.119C354.201 199.119 352.277 208.073 357.665 212.964C361.608 216.392 365.83 219.486 370.287 222.212L369.71 215.386Z" fill="#FF8900"/>
<path d="M378.447 243.652C378.447 243.652 377.722 239.916 371.485 235.728C365.248 231.539 361.297 229.151 361.297 229.151C361.297 229.151 360.335 238.207 366.199 242.554C370.479 245.567 375.004 248.218 379.726 250.478L378.447 243.652Z" fill="#FF8900"/>
<path d="M376.027 274.216C376.027 274.216 376.106 270.413 370.899 264.968C365.692 259.523 362.33 256.41 362.33 256.41C362.33 256.41 359.477 265.103 364.3 270.537C367.859 274.363 371.733 277.885 375.88 281.065L376.027 274.216Z" fill="#FF8900"/>
<path d="M375.958 281.687C375.958 281.687 375.494 277.917 380.147 271.974C384.799 266.031 387.822 262.624 387.822 262.624C387.822 262.624 391.523 270.99 387.256 276.876C384.096 281.037 380.593 284.925 376.785 288.502L375.958 281.687Z" fill="#FF8900"/>
<path d="M380.462 313.406C380.462 313.406 381.594 309.772 388.307 306.308C395.02 302.844 399.185 300.977 399.185 300.977C399.185 300.977 399.084 310.123 392.756 313.7C388.15 316.178 383.345 318.264 378.391 319.938L380.462 313.406Z" fill="#FF8900"/>
<path d="M380.736 303.942C380.736 303.942 380.815 300.139 375.597 294.694C370.378 289.249 367.027 286.136 367.027 286.136C367.027 286.136 364.175 294.829 369.008 300.263C372.568 304.089 376.442 307.611 380.589 310.791L380.736 303.942Z" fill="#FF8900"/>
<path d="M376.741 323.933C376.741 323.933 377.782 320.277 374.126 313.689C370.469 307.1 368.002 303.24 368.002 303.24C368.002 303.24 363.032 310.927 366.338 317.413C368.807 322.02 371.658 326.413 374.862 330.544L376.741 323.933Z" fill="#FF8900"/>
<path d="M369.031 207.903C369.214 211.873 369.615 215.83 370.231 219.755C372.11 230.679 377.216 237.867 379.117 247.693C381.019 257.519 374.691 270.095 376.038 282.785C377.385 295.475 382.14 302.561 380.566 310.961C378.993 319.36 371.125 342.011 371.125 342.011" stroke="#263238" stroke-width="0.5" stroke-linecap="round" stroke-linejoin="round"/>
<path d="M369.711 217.91L364.062 213.382" stroke="#263238" stroke-width="0.5" stroke-linecap="round" stroke-linejoin="round"/>
<path d="M369.551 212.839L372.041 208.617" stroke="#263238" stroke-width="0.5" stroke-linecap="round" stroke-linejoin="round"/>
<path d="M378.822 247.229C378.822 247.229 374.102 243.527 369.234 239.814" stroke="#263238" stroke-width="0.5" stroke-linecap="round" stroke-linejoin="round"/>
<path d="M376.582 239.679C379.081 235.096 382.039 230.78 385.412 226.796" stroke="#263238" stroke-width="0.5" stroke-linecap="round" stroke-linejoin="round"/>
<path d="M375.719 279.604C373.086 274.488 369.723 269.782 365.734 265.635" stroke="#263238" stroke-width="0.5" stroke-linecap="round" stroke-linejoin="round"/>
<path d="M376.547 284.993C378.077 281.592 379.886 278.324 381.958 275.223C384.856 271.148 385.263 270.616 385.263 270.616" stroke="#263238" stroke-width="0.5" stroke-linecap="round" stroke-linejoin="round"/>
<path d="M379.047 317.243C381.588 315.12 384.311 313.226 387.186 311.583C388.978 310.738 390.697 309.746 392.325 308.617" stroke="#263238" stroke-width="0.5" stroke-linecap="round" stroke-linejoin="round"/>
<path d="M380.576 310.938C379.429 307.885 378.047 304.926 376.444 302.086C374.834 299.454 373.009 296.958 370.988 294.626" stroke="#263238" stroke-width="0.5" stroke-linecap="round" stroke-linejoin="round"/>
<path d="M374.859 330.544C375.203 327.664 374.769 324.744 373.602 322.088C371.689 318.171 369.527 313.032 368.633 311.028" stroke="#263238" stroke-width="0.5" stroke-linecap="round" stroke-linejoin="round"/>
<path d="M96.0163 288.524C96.0163 288.524 94.2277 283.351 84.4925 278.631C74.7573 273.91 68.6445 271.375 68.6445 271.375C68.6445 271.375 69.1426 284.506 78.3571 289.407C85.0561 292.789 92.0273 295.603 99.1972 297.818L96.0163 288.524Z" fill="#FF8900"/>
<path d="M96.6843 324.409C96.6843 324.409 94.8957 319.247 85.1605 314.515C75.4253 309.783 69.3125 307.259 69.3125 307.259C69.3125 307.259 69.8106 320.39 79.0251 325.303C85.7257 328.678 92.6967 331.488 99.8652 333.702L96.6843 324.409Z" fill="#FF8900"/>
<path d="M98.607 297.478C98.607 297.478 97.3732 292.147 103.135 282.966C108.897 273.786 112.678 268.42 112.678 268.42C112.678 268.42 119.232 279.808 114.036 288.864C110.158 295.287 105.746 301.372 100.848 307.055L98.607 297.478Z" fill="#FF8900"/>
<path d="M99.1045 339.962C99.1045 339.962 98.4367 334.529 105.104 326.005C111.772 317.481 116.118 312.545 116.118 312.545C116.118 312.545 121.45 324.556 115.326 333.012C110.792 338.989 105.767 344.578 100.304 349.72L99.1045 339.962Z" fill="#FF8900"/>
<path d="M115.859 380.669C115.859 380.669 114.07 375.507 118.802 365.772C123.534 356.037 126.726 350.298 126.726 350.298C126.726 350.298 134.458 360.927 130.247 370.481C127.069 377.276 123.328 383.793 119.062 389.963L115.859 380.669Z" fill="#FF8900"/>
<path d="M119.256 390.846C119.256 390.846 118.214 385.48 109.249 379.413C100.284 373.345 94.6348 369.995 94.6348 369.995C94.6348 369.995 93.2538 383.058 101.687 389.239C107.835 393.548 114.333 397.334 121.112 400.559L119.256 390.846Z" fill="#FF8900"/>
<path d="M122.515 423.368C122.515 423.368 120.727 418.195 125.458 408.46C130.19 398.725 133.382 392.985 133.382 392.985C133.382 392.985 141.114 403.615 136.903 413.169C133.721 419.967 129.976 426.488 125.707 432.662L122.515 423.368Z" fill="#FF8900"/>
<path d="M136.778 448.929C136.778 448.929 133.733 444.401 135.85 433.772C137.967 423.142 139.62 416.792 139.62 416.792C139.62 416.792 149.808 425.123 148.121 435.424C146.769 442.806 144.8 450.061 142.235 457.113L136.778 448.929Z" fill="#FF8900"/>
<path d="M96.2188 286.974C97.7187 292.477 98.9129 298.058 99.7959 303.693C102.06 319.451 98.1884 331.45 99.9544 345.781C101.72 360.112 115.802 374.455 119.595 392.352C123.387 410.248 119.957 422.078 125.809 432.854C131.662 443.631 152.4 471.139 152.4 471.139" stroke="#263238" stroke-width="0.5" stroke-linecap="round" stroke-linejoin="round"/>
<path d="M99.7148 300.931L105.443 292.26" stroke="#263238" stroke-width="0.5" stroke-linecap="round" stroke-linejoin="round"/>
<path d="M97.7009 293.924L92.4258 289.249" stroke="#263238" stroke-width="0.5" stroke-linecap="round" stroke-linejoin="round"/>
<path d="M100.156 345.022C100.156 345.022 104.99 337.868 110.005 330.657" stroke="#263238" stroke-width="0.5" stroke-linecap="round" stroke-linejoin="round"/>
<path d="M99.899 333.703C99.899 333.703 90.7751 324.884 82.1719 319.994" stroke="#263238" stroke-width="0.5" stroke-linecap="round" stroke-linejoin="round"/>
<path d="M118.664 387.926C120.01 379.774 122.534 371.861 126.158 364.437" stroke="#263238" stroke-width="0.5" stroke-linecap="round" stroke-linejoin="round"/>
<path d="M119.9 395.612C116.309 391.641 112.394 387.976 108.195 384.654C102.445 380.352 101.652 379.809 101.652 379.809" stroke="#263238" stroke-width="0.5" stroke-linecap="round" stroke-linejoin="round"/>
<path d="M125.797 432.854C126.033 428.179 126.624 423.528 127.563 418.942C128.606 414.651 130 410.452 131.729 406.388" stroke="#263238" stroke-width="0.5" stroke-linecap="round" stroke-linejoin="round"/>
<path d="M142.236 457.113C140.505 453.325 139.814 449.144 140.232 445.001C141.138 438.797 141.839 430.851 142.156 427.692" stroke="#263238" stroke-width="0.5" stroke-linecap="round" stroke-linejoin="round"/>
<path d="M72.5384 373.911C72.5384 373.911 70.8517 370.866 72.7648 364.244C74.6778 357.621 76.0702 353.682 76.0702 353.682C76.0702 353.682 82.0698 359.512 80.4624 365.953C79.2056 370.561 77.5661 375.055 75.5608 379.39L72.5384 373.911Z" fill="#FF8900"/>
<path d="M89.2209 389.51C89.2209 389.51 87.5455 386.465 89.4473 379.843C91.349 373.221 92.7527 369.281 92.7527 369.281C92.7527 369.281 98.7523 375.111 97.1449 381.552C95.8951 386.16 94.2592 390.655 92.2546 394.989L89.2209 389.51Z" fill="#FF8900"/>
<path d="M75.6726 378.949C75.6726 378.949 73.6802 376.096 66.8882 374.896C60.0962 373.696 55.9531 373.209 55.9531 373.209C55.9531 373.209 58.5454 381.133 65.0091 382.56C69.7012 383.464 74.4611 383.972 79.2384 384.077L75.6726 378.949Z" fill="#FF8900"/>
<path d="M95.5496 397.332C95.5496 397.332 93.2855 394.706 86.3917 394.231C79.4978 393.755 75.332 393.71 75.332 393.71C75.332 393.71 78.728 401.34 85.3502 402.053C90.1077 402.449 94.8899 402.449 99.6474 402.053L95.5496 397.332Z" fill="#FF8900"/>
<path d="M107.663 422.542C107.663 422.542 105.976 419.497 99.365 417.584C92.7541 415.671 88.6562 414.754 88.6562 414.754C88.6562 414.754 90.3995 422.938 96.7048 425.01C101.272 426.404 105.949 427.411 110.685 428.021L107.663 422.542Z" fill="#FF8900"/>
<path d="M111.037 428.473C111.037 428.473 108.943 425.7 109.905 418.885C110.867 412.071 111.682 407.95 111.682 407.95C111.682 407.95 118.474 412.863 117.773 419.485C117.187 424.224 116.202 428.904 114.829 433.477L111.037 428.473Z" fill="#FF8900"/>
<path d="M129.148 451.465C129.148 451.465 128.401 448.069 132.091 442.261C135.782 436.454 138.238 433.047 138.238 433.047C138.238 433.047 142.358 440.337 138.996 446.065C136.496 450.135 133.656 453.986 130.506 457.577L129.148 451.465Z" fill="#FF8900"/>
<path d="M125.018 443.869C125.018 443.869 123.343 440.824 116.721 438.922C110.099 437.02 106.023 436.081 106.023 436.081C106.023 436.081 107.755 444.265 114.072 446.348C118.638 447.755 123.315 448.778 128.052 449.404L125.018 443.869Z" fill="#FF8900"/>
<path d="M131.037 461.505C131.037 461.505 130.188 458.109 124.245 454.612C118.302 451.114 114.612 449.155 114.612 449.155C114.612 449.155 114.215 457.509 119.796 461.121C123.861 463.624 128.128 465.783 132.554 467.573L131.037 461.505Z" fill="#FF8900"/>
<path d="M71.7227 373.345C73.6907 376.394 75.8219 379.334 78.1071 382.152C84.6048 389.929 91.9175 393.223 97.9511 400.151C103.985 407.079 104.743 419.893 111.603 429.277C118.463 438.662 125.515 442.103 128.108 449.472C130.7 456.842 134.9 478.338 134.9 478.338" stroke="#263238" stroke-width="0.5" stroke-linecap="round" stroke-linejoin="round"/>
<path d="M76.8281 380.952L70.2852 379.956" stroke="#263238" stroke-width="0.5" stroke-linecap="round" stroke-linejoin="round"/>
<path d="M74.3711 377.002L74.4051 372.53" stroke="#263238" stroke-width="0.5" stroke-linecap="round" stroke-linejoin="round"/>
<path d="M97.4843 399.936C97.4843 399.936 92.0507 399.177 86.5039 398.476" stroke="#263238" stroke-width="0.5" stroke-linecap="round" stroke-linejoin="round"/>
<path d="M92.2577 394.989C92.1243 390.226 92.4809 385.461 93.3218 380.771" stroke="#263238" stroke-width="0.5" stroke-linecap="round" stroke-linejoin="round"/>
<path d="M109.906 426.957C105.474 424.123 100.654 421.946 95.5977 420.493" stroke="#263238" stroke-width="0.5" stroke-linecap="round" stroke-linejoin="round"/>
<path d="M113.015 430.817C112.662 427.432 112.594 424.024 112.812 420.629C113.231 416.101 113.31 415.478 113.31 415.478" stroke="#263238" stroke-width="0.5" stroke-linecap="round" stroke-linejoin="round"/>
<path d="M129.793 455.143C130.809 452.294 132.074 449.54 133.574 446.914C134.598 445.418 135.503 443.843 136.279 442.205" stroke="#263238" stroke-width="0.5" stroke-linecap="round" stroke-linejoin="round"/>
<path d="M128.106 449.472C125.799 447.589 123.35 445.886 120.782 444.378C118.297 443.038 115.708 441.902 113.039 440.982" stroke="#263238" stroke-width="0.5" stroke-linecap="round" stroke-linejoin="round"/>
<path d="M132.579 467.573C131.525 465.138 129.841 463.028 127.701 461.46C124.395 459.253 120.331 456.196 118.645 455.008" stroke="#263238" stroke-width="0.5" stroke-linecap="round" stroke-linejoin="round"/>
<path d="M396.473 306.319H316.769C313.95 306.319 311.664 308.605 311.664 311.424V483.341C311.664 486.161 313.95 488.446 316.769 488.446H396.473C399.293 488.446 401.579 486.161 401.579 483.341V311.424C401.579 308.605 399.293 306.319 396.473 306.319Z" fill="white" stroke="#263238" stroke-width="1.01" stroke-linecap="round" stroke-linejoin="round"/>
<path d="M394.062 330.215H319.191C316.372 330.215 314.086 332.501 314.086 335.321V478.994C314.086 481.814 316.372 484.099 319.191 484.099H394.062C396.881 484.099 399.167 481.814 399.167 478.994V335.321C399.167 332.501 396.881 330.215 394.062 330.215Z" fill="#FF8900"/>
<path opacity="0.5" d="M394.062 330.215H319.191C316.372 330.215 314.086 332.501 314.086 335.321V478.994C314.086 481.814 316.372 484.099 319.191 484.099H394.062C396.881 484.099 399.167 481.814 399.167 478.994V335.321C399.167 332.501 396.881 330.215 394.062 330.215Z" fill="white"/>
<path d="M378.02 267.039H335.242V306.319H378.02V267.039Z" fill="#263238" stroke="#263238" stroke-width="1.01" stroke-linecap="round" stroke-linejoin="round"/>
<path d="M338.809 270.921V302.085" stroke="white" stroke-width="1.01" stroke-linecap="round" stroke-linejoin="round"/>
<path d="M345.422 270.921V302.085" stroke="white" stroke-width="1.01" stroke-linecap="round" stroke-linejoin="round"/>
<path d="M354.859 280.838V302.086" stroke="white" stroke-width="1.01" stroke-linecap="round" stroke-linejoin="round"/>
<path d="M354.859 270.921V276.117" stroke="white" stroke-width="1.01" stroke-linecap="round" stroke-linejoin="round"/>
<path d="M396.452 344.965H316.805V432.865H396.452V344.965Z" fill="white"/>
<path d="M356.094 420.685C372.386 420.685 385.594 407.477 385.594 391.185C385.594 374.893 372.386 361.685 356.094 361.685C339.801 361.685 326.594 374.893 326.594 391.185C326.594 407.477 339.801 420.685 356.094 420.685Z" fill="#263238"/>
<path d="M361.495 370.888H350.695V411.482H361.495V370.888Z" fill="#FF8900"/>
<path d="M376.391 396.584V385.785H335.797V396.584H376.391Z" fill="#FF8900"/>
<path d="M480.624 405.143H355.232C352.263 405.143 349.855 407.55 349.855 410.52V483.454C349.855 486.424 352.263 488.831 355.232 488.831H480.624C483.594 488.831 486.001 486.424 486.001 483.454V410.52C486.001 407.55 483.594 405.143 480.624 405.143Z" fill="white" stroke="#263238" stroke-linecap="round" stroke-linejoin="round"/>
<path d="M362.885 441.48C361.552 441.48 360.274 440.95 359.331 440.008C358.389 439.065 357.859 437.787 357.859 436.454V422.87C357.858 422.209 357.987 421.554 358.239 420.943C358.491 420.332 358.861 419.777 359.327 419.309C359.794 418.841 360.349 418.47 360.959 418.216C361.57 417.963 362.224 417.833 362.885 417.833C364.221 417.833 365.503 418.363 366.447 419.308C367.392 420.253 367.923 421.534 367.923 422.87V436.454C367.923 437.115 367.792 437.769 367.539 438.38C367.286 438.99 366.915 439.545 366.447 440.012C365.979 440.479 365.423 440.849 364.812 441.101C364.201 441.353 363.546 441.481 362.885 441.48Z" fill="#263238" stroke="#263238" stroke-width="1.01" stroke-linecap="round" stroke-linejoin="round"/>
<path d="M366.293 422.406V430.828" stroke="white" stroke-width="1.01" stroke-linecap="round" stroke-linejoin="round"/>
<path d="M366.293 433.001V437.62" stroke="white" stroke-width="1.01" stroke-linecap="round" stroke-linejoin="round"/>
<path d="M384.878 441.48C383.545 441.48 382.266 440.95 381.324 440.008C380.381 439.065 379.852 437.787 379.852 436.454V422.87C379.85 422.209 379.979 421.554 380.231 420.943C380.483 420.332 380.853 419.777 381.32 419.309C381.787 418.841 382.341 418.47 382.952 418.216C383.562 417.963 384.217 417.833 384.878 417.833C385.539 417.833 386.193 417.963 386.804 418.216C387.414 418.47 387.969 418.841 388.436 419.309C388.903 419.777 389.272 420.332 389.524 420.943C389.776 421.554 389.905 422.209 389.904 422.87V436.454C389.904 437.787 389.374 439.065 388.432 440.008C387.489 440.95 386.211 441.48 384.878 441.48Z" fill="#263238" stroke="#263238" stroke-width="1.01" stroke-linecap="round" stroke-linejoin="round"/>
<path d="M388.297 422.406V430.828" stroke="white" stroke-width="1.01" stroke-linecap="round" stroke-linejoin="round"/>
<path d="M388.297 433.001V437.62" stroke="white" stroke-width="1.01" stroke-linecap="round" stroke-linejoin="round"/>
<path d="M406.921 441.48C405.588 441.48 404.309 440.95 403.367 440.008C402.424 439.065 401.895 437.787 401.895 436.454V422.87C401.893 422.209 402.022 421.554 402.274 420.943C402.526 420.332 402.896 419.777 403.363 419.309C403.83 418.841 404.384 418.47 404.995 418.216C405.605 417.963 406.26 417.833 406.921 417.833C407.582 417.833 408.236 417.963 408.847 418.216C409.457 418.47 410.012 418.841 410.479 419.309C410.945 419.777 411.315 420.332 411.567 420.943C411.819 421.554 411.948 422.209 411.947 422.87V436.454C411.947 437.787 411.417 439.065 410.475 440.008C409.532 440.95 408.254 441.48 406.921 441.48Z" fill="#263238" stroke="#263238" stroke-width="1.01" stroke-linecap="round" stroke-linejoin="round"/>
<path d="M410.316 422.406V430.828" stroke="white" stroke-width="1.01" stroke-linecap="round" stroke-linejoin="round"/>
<path d="M410.316 433.001V437.62" stroke="white" stroke-width="1.01" stroke-linecap="round" stroke-linejoin="round"/>
<path d="M428.936 441.48C427.603 441.48 426.325 440.95 425.382 440.008C424.44 439.065 423.91 437.787 423.91 436.454V422.87C423.909 422.209 424.038 421.554 424.289 420.943C424.541 420.332 424.911 419.777 425.378 419.309C425.845 418.841 426.4 418.47 427.01 418.216C427.621 417.963 428.275 417.833 428.936 417.833C429.597 417.833 430.252 417.963 430.862 418.216C431.473 418.47 432.027 418.841 432.494 419.309C432.961 419.777 433.331 420.332 433.583 420.943C433.835 421.554 433.964 422.209 433.962 422.87V436.454C433.962 437.787 433.433 439.065 432.49 440.008C431.548 440.95 430.269 441.48 428.936 441.48Z" fill="#263238" stroke="#263238" stroke-width="1.01" stroke-linecap="round" stroke-linejoin="round"/>
<path d="M432.332 422.406V430.828" stroke="white" stroke-width="1.01" stroke-linecap="round" stroke-linejoin="round"/>
<path d="M432.332 433.001V437.62" stroke="white" stroke-width="1.01" stroke-linecap="round" stroke-linejoin="round"/>
<path d="M450.955 441.48C450.294 441.481 449.64 441.353 449.028 441.101C448.417 440.849 447.862 440.479 447.394 440.012C446.926 439.545 446.555 438.99 446.302 438.38C446.048 437.769 445.918 437.115 445.918 436.454V422.87C445.918 421.534 446.449 420.253 447.393 419.308C448.338 418.363 449.619 417.833 450.955 417.833C451.616 417.833 452.271 417.963 452.881 418.216C453.492 418.47 454.046 418.841 454.513 419.309C454.98 419.777 455.35 420.332 455.602 420.943C455.854 421.554 455.983 422.209 455.981 422.87V436.454C455.981 437.787 455.452 439.065 454.509 440.008C453.567 440.95 452.288 441.48 450.955 441.48Z" fill="#263238" stroke="#263238" stroke-width="1.01" stroke-linecap="round" stroke-linejoin="round"/>
<path d="M454.352 422.406V430.828" stroke="white" stroke-width="1.01" stroke-linecap="round" stroke-linejoin="round"/>
<path d="M454.352 433.001V437.62" stroke="white" stroke-width="1.01" stroke-linecap="round" stroke-linejoin="round"/>
<path d="M472.96 441.48C471.627 441.48 470.348 440.95 469.406 440.008C468.463 439.065 467.934 437.787 467.934 436.454V422.87C467.932 422.209 468.061 421.554 468.313 420.943C468.565 420.332 468.935 419.777 469.402 419.309C469.869 418.841 470.423 418.47 471.034 418.216C471.644 417.963 472.299 417.833 472.96 417.833C473.621 417.833 474.275 417.963 474.886 418.216C475.496 418.47 476.051 418.841 476.518 419.309C476.985 419.777 477.355 420.332 477.606 420.943C477.858 421.554 477.987 422.209 477.986 422.87V436.454C477.986 437.787 477.456 439.065 476.514 440.008C475.571 440.95 474.293 441.48 472.96 441.48Z" fill="#263238" stroke="#263238" stroke-width="1.01" stroke-linecap="round" stroke-linejoin="round"/>
<path d="M476.355 422.406V430.828" stroke="white" stroke-width="1.01" stroke-linecap="round" stroke-linejoin="round"/>
<path d="M476.355 433.001V437.62" stroke="white" stroke-width="1.01" stroke-linecap="round" stroke-linejoin="round"/>
<path d="M362.885 477.568C361.552 477.568 360.274 477.038 359.331 476.096C358.389 475.153 357.859 473.875 357.859 472.542V458.958C357.859 457.625 358.389 456.346 359.331 455.404C360.274 454.461 361.552 453.932 362.885 453.932C363.546 453.93 364.201 454.059 364.812 454.311C365.423 454.563 365.979 454.933 366.447 455.4C366.915 455.867 367.286 456.421 367.539 457.032C367.792 457.642 367.923 458.297 367.923 458.958V472.542C367.923 473.203 367.792 473.857 367.539 474.468C367.286 475.078 366.915 475.633 366.447 476.1C365.979 476.567 365.423 476.937 364.812 477.188C364.201 477.44 363.546 477.569 362.885 477.568Z" fill="#263238" stroke="#263238" stroke-width="1.01" stroke-linecap="round" stroke-linejoin="round"/>
<path d="M366.293 458.55V466.972" stroke="white" stroke-width="1.01" stroke-linecap="round" stroke-linejoin="round"/>
<path d="M366.293 469.146V473.765" stroke="white" stroke-width="1.01" stroke-linecap="round" stroke-linejoin="round"/>
<path d="M384.878 477.568C383.545 477.568 382.266 477.038 381.324 476.096C380.381 475.153 379.852 473.875 379.852 472.542V458.958C379.852 457.625 380.381 456.346 381.324 455.404C382.266 454.461 383.545 453.932 384.878 453.932C385.538 453.93 386.192 454.059 386.803 454.311C387.413 454.563 387.968 454.933 388.435 455.4C388.902 455.867 389.272 456.422 389.524 457.033C389.776 457.643 389.905 458.297 389.904 458.958V472.542C389.905 473.202 389.776 473.856 389.524 474.467C389.272 475.077 388.902 475.632 388.435 476.099C387.968 476.566 387.413 476.936 386.803 477.188C386.192 477.44 385.538 477.569 384.878 477.568Z" fill="#263238" stroke="#263238" stroke-width="1.01" stroke-linecap="round" stroke-linejoin="round"/>
<path d="M388.297 458.55V466.972" stroke="white" stroke-width="1.01" stroke-linecap="round" stroke-linejoin="round"/>
<path d="M388.297 469.146V473.765" stroke="white" stroke-width="1.01" stroke-linecap="round" stroke-linejoin="round"/>
<path d="M406.921 477.568C405.588 477.568 404.309 477.038 403.367 476.096C402.424 475.153 401.895 473.875 401.895 472.542V458.958C401.895 457.625 402.424 456.346 403.367 455.404C404.309 454.461 405.588 453.932 406.921 453.932C408.254 453.932 409.532 454.461 410.475 455.404C411.417 456.346 411.947 457.625 411.947 458.958V472.542C411.947 473.875 411.417 475.153 410.475 476.096C409.532 477.038 408.254 477.568 406.921 477.568Z" fill="#263238" stroke="#263238" stroke-width="1.01" stroke-linecap="round" stroke-linejoin="round"/>
<path d="M410.316 458.55V466.972" stroke="white" stroke-width="1.01" stroke-linecap="round" stroke-linejoin="round"/>
<path d="M410.316 469.146V473.765" stroke="white" stroke-width="1.01" stroke-linecap="round" stroke-linejoin="round"/>
<path d="M428.936 477.568C428.276 477.569 427.622 477.44 427.011 477.188C426.401 476.936 425.846 476.566 425.379 476.099C424.912 475.632 424.542 475.077 424.29 474.467C424.038 473.856 423.909 473.202 423.91 472.542V458.958C423.909 458.297 424.038 457.643 424.29 457.033C424.542 456.422 424.912 455.867 425.379 455.4C425.846 454.933 426.401 454.563 427.011 454.311C427.622 454.059 428.276 453.93 428.936 453.932C430.269 453.932 431.548 454.461 432.49 455.404C433.433 456.346 433.962 457.625 433.962 458.958V472.542C433.962 473.875 433.433 475.153 432.49 476.096C431.548 477.038 430.269 477.568 428.936 477.568Z" fill="#263238" stroke="#263238" stroke-width="1.01" stroke-linecap="round" stroke-linejoin="round"/>
<path d="M432.332 458.55V466.972" stroke="white" stroke-width="1.01" stroke-linecap="round" stroke-linejoin="round"/>
<path d="M432.332 469.146V473.765" stroke="white" stroke-width="1.01" stroke-linecap="round" stroke-linejoin="round"/>
<path d="M450.955 477.568C450.294 477.569 449.64 477.44 449.028 477.188C448.417 476.937 447.862 476.567 447.394 476.1C446.926 475.633 446.555 475.078 446.302 474.468C446.048 473.857 445.918 473.203 445.918 472.542V458.958C445.918 458.297 446.048 457.642 446.302 457.032C446.555 456.421 446.926 455.867 447.394 455.4C447.862 454.933 448.417 454.563 449.028 454.311C449.64 454.059 450.294 453.93 450.955 453.932C452.288 453.932 453.567 454.461 454.509 455.404C455.452 456.346 455.981 457.625 455.981 458.958V472.542C455.981 473.875 455.452 475.153 454.509 476.096C453.567 477.038 452.288 477.568 450.955 477.568Z" fill="#263238" stroke="#263238" stroke-width="1.01" stroke-linecap="round" stroke-linejoin="round"/>
<path d="M454.352 458.55V466.972" stroke="white" stroke-width="1.01" stroke-linecap="round" stroke-linejoin="round"/>
<path d="M454.352 469.146V473.765" stroke="white" stroke-width="1.01" stroke-linecap="round" stroke-linejoin="round"/>
<path d="M472.96 477.568C471.627 477.568 470.348 477.038 469.406 476.096C468.463 475.153 467.934 473.875 467.934 472.542V458.958C467.934 457.625 468.463 456.346 469.406 455.404C470.348 454.461 471.627 453.932 472.96 453.932C473.62 453.93 474.274 454.059 474.885 454.311C475.495 454.563 476.05 454.933 476.517 455.4C476.984 455.867 477.354 456.422 477.606 457.033C477.858 457.643 477.987 458.297 477.986 458.958V472.542C477.987 473.202 477.858 473.856 477.606 474.467C477.354 475.077 476.984 475.632 476.517 476.099C476.05 476.566 475.495 476.936 474.885 477.188C474.274 477.44 473.62 477.569 472.96 477.568Z" fill="#263238" stroke="#263238" stroke-width="1.01" stroke-linecap="round" stroke-linejoin="round"/>
<path d="M476.355 458.55V466.972" stroke="white" stroke-width="1.01" stroke-linecap="round" stroke-linejoin="round"/>
<path d="M476.355 469.146V473.765" stroke="white" stroke-width="1.01" stroke-linecap="round" stroke-linejoin="round"/>
<path d="M374.023 409.489V412.319" stroke="#263238" stroke-width="0.5" stroke-linecap="round" stroke-linejoin="round"/>
<path d="M374.023 417.572V477.964" stroke="#263238" stroke-width="0.5" stroke-linecap="round" stroke-linejoin="round" stroke-dasharray="4.64 4.64"/>
<path d="M374.023 480.59V483.42" stroke="#263238" stroke-width="0.5" stroke-linecap="round" stroke-linejoin="round"/>
<path d="M396.043 409.489V412.319" stroke="#263238" stroke-width="0.5" stroke-linecap="round" stroke-linejoin="round"/>
<path d="M396.043 417.572V477.964" stroke="#263238" stroke-width="0.5" stroke-linecap="round" stroke-linejoin="round" stroke-dasharray="4.64 4.64"/>
<path d="M396.043 480.59V483.42" stroke="#263238" stroke-width="0.5" stroke-linecap="round" stroke-linejoin="round"/>
<path d="M418.059 409.489V412.319" stroke="#263238" stroke-width="0.5" stroke-linecap="round" stroke-linejoin="round"/>
<path d="M418.059 417.572V477.964" stroke="#263238" stroke-width="0.5" stroke-linecap="round" stroke-linejoin="round" stroke-dasharray="4.64 4.64"/>
<path d="M418.059 480.59V483.42" stroke="#263238" stroke-width="0.5" stroke-linecap="round" stroke-linejoin="round"/>
<path d="M440.066 409.489V412.319" stroke="#263238" stroke-width="0.5" stroke-linecap="round" stroke-linejoin="round"/>
<path d="M440.066 417.572V477.964" stroke="#263238" stroke-width="0.5" stroke-linecap="round" stroke-linejoin="round" stroke-dasharray="4.64 4.64"/>
<path d="M440.066 480.59V483.42" stroke="#263238" stroke-width="0.5" stroke-linecap="round" stroke-linejoin="round"/>
<path d="M462.082 409.489V412.319" stroke="#263238" stroke-width="0.5" stroke-linecap="round" stroke-linejoin="round"/>
<path d="M462.082 417.572V477.964" stroke="#263238" stroke-width="0.5" stroke-linecap="round" stroke-linejoin="round" stroke-dasharray="4.64 4.64"/>
<path d="M462.082 480.59V483.42" stroke="#263238" stroke-width="0.5" stroke-linecap="round" stroke-linejoin="round"/>
<path d="M353.363 446.993H481.925" stroke="#263238" stroke-width="0.5" stroke-linecap="round" stroke-linejoin="round" stroke-dasharray="5 5"/>
<path d="M476.277 416.723V398.237H446.38V416.723L439.215 426.537C438.207 427.926 437.664 429.598 437.664 431.314V488.446H484.948V431.292C484.947 429.576 484.404 427.904 483.397 426.515L476.277 416.723Z" fill="#263238" stroke="#263238" stroke-width="1.01" stroke-linecap="round" stroke-linejoin="round"/>
<path d="M476.287 389.759H446.504V392.962H476.287V389.759Z" fill="#263238" stroke="#263238" stroke-width="1.01" stroke-linecap="round" stroke-linejoin="round"/>
<path d="M480.614 382.48H442.035V390.687H480.614V382.48Z" fill="#FF8900" stroke="#263238" stroke-width="1.01" stroke-linecap="round" stroke-linejoin="round"/>
<path d="M479.176 392.804H443.473C442.679 392.804 442.035 393.447 442.035 394.241V397.886C442.035 398.68 442.679 399.324 443.473 399.324H479.176C479.97 399.324 480.614 398.68 480.614 397.886V394.241C480.614 393.447 479.97 392.804 479.176 392.804Z" fill="#263238" stroke="#263238" stroke-width="1.01" stroke-linecap="round" stroke-linejoin="round"/>
<path d="M468.24 434.812H437.676V472.87H468.24V434.812Z" fill="#FF8900" stroke="#263238" stroke-width="1.01" stroke-linecap="round" stroke-linejoin="round"/>
<path d="M287.879 130.95H137.651C128.574 130.95 121.215 138.309 121.215 147.386V471.84C121.215 480.918 128.574 488.277 137.651 488.277H287.879C296.957 488.277 304.316 480.918 304.316 471.84V147.386C304.316 138.309 296.957 130.95 287.879 130.95Z" fill="#263238"/>
<path opacity="0.2" d="M136.971 130.95C132.786 130.95 128.773 132.612 125.813 135.572C122.854 138.531 121.191 142.545 121.191 146.73V472.497C121.189 474.806 121.695 477.086 122.673 479.178C123.652 481.269 125.078 483.12 126.851 484.598L233.678 130.95H136.971Z" fill="white"/>
<path d="M218.995 477.942C218.995 476.71 218.63 475.507 217.946 474.483C217.262 473.459 216.289 472.661 215.152 472.19C214.014 471.719 212.762 471.595 211.554 471.835C210.347 472.076 209.237 472.669 208.367 473.539C207.496 474.41 206.903 475.519 206.663 476.727C206.422 477.935 206.546 479.187 207.017 480.324C207.488 481.462 208.286 482.434 209.31 483.119C210.334 483.803 211.538 484.168 212.769 484.168C214.42 484.168 216.004 483.512 217.171 482.344C218.339 481.177 218.995 479.593 218.995 477.942V477.942Z" stroke="white" stroke-linecap="round" stroke-linejoin="round"/>
<path d="M287.879 130.95H137.651C128.574 130.95 121.215 138.309 121.215 147.386V471.84C121.215 480.918 128.574 488.277 137.651 488.277H287.879C296.957 488.277 304.316 480.918 304.316 471.84V147.386C304.316 138.309 296.957 130.95 287.879 130.95Z" stroke="#263238" stroke-linecap="round" stroke-linejoin="round"/>
<path d="M296.186 155.22H129.363V467.074H296.186V155.22Z" fill="#FF8900"/>
<path d="M264.887 309.104L238.444 285.208L212.77 285.649L187.096 285.208L160.653 309.104L98.1211 350.286V471.795H209.465H216.075H327.419V350.286L264.887 309.104Z" fill="white" stroke="#263238" stroke-width="1.01" stroke-linecap="round" stroke-linejoin="round"/>
<path d="M210.63 398.996L199.23 415.161C199.23 415.161 212.814 409.003 225.9 403.672C238.986 398.34 255.434 381.518 259.125 375.372C262.815 369.225 268.181 360.191 268.181 360.191L251.744 347.524H269.414C269.414 347.524 268.996 328.28 263.664 312.647" stroke="#263238" stroke-width="1.01" stroke-linecap="round" stroke-linejoin="round"/>
<path d="M205.423 406.06C203.51 405.256 201.574 404.453 199.638 403.672C186.518 398.34 170.104 381.518 166.414 375.372C162.724 369.225 157.358 360.191 157.358 360.191L173.806 347.524H156.215C156.215 347.524 156.634 328.28 161.965 312.647" stroke="#263238" stroke-width="1.01" stroke-linecap="round" stroke-linejoin="round"/>
<path d="M184.823 287.019C184.823 287.019 179.717 368.081 210.632 398.996C210.632 398.996 243.245 376.605 243.245 287.992L184.823 287.019Z" fill="white"/>
<path d="M202.082 194.772H228.379C235.917 194.772 243.147 197.767 248.478 203.097C253.809 208.428 256.803 215.658 256.803 223.196V282.185C256.805 287.196 255.819 292.159 253.903 296.789C251.987 301.419 249.177 305.627 245.635 309.171C242.092 312.716 237.886 315.528 233.257 317.447C228.628 319.366 223.666 320.355 218.655 320.356H211.863C206.852 320.356 201.889 319.369 197.26 317.451C192.63 315.534 188.423 312.723 184.88 309.179C181.336 305.636 178.526 301.429 176.608 296.799C174.69 292.17 173.703 287.208 173.703 282.196V223.196C173.703 215.658 176.698 208.428 182.028 203.097C187.359 197.767 194.589 194.772 202.128 194.772H202.082Z" fill="#FF8900"/>
<path opacity="0.5" d="M202.082 194.772H228.379C235.917 194.772 243.147 197.767 248.478 203.097C253.809 208.428 256.803 215.658 256.803 223.196V282.185C256.805 287.196 255.819 292.159 253.903 296.789C251.987 301.419 249.177 305.627 245.635 309.171C242.092 312.716 237.886 315.528 233.257 317.447C228.628 319.366 223.666 320.355 218.655 320.356H211.863C206.852 320.356 201.889 319.369 197.26 317.451C192.63 315.534 188.423 312.723 184.88 309.179C181.336 305.636 178.526 301.429 176.608 296.799C174.69 292.17 173.703 287.208 173.703 282.196V223.196C173.703 215.658 176.698 208.428 182.028 203.097C187.359 197.767 194.589 194.772 202.128 194.772H202.082Z" fill="white"/>
<path d="M184.823 287.019C184.823 287.019 179.717 368.081 210.632 398.996C210.632 398.996 243.245 376.605 243.245 287.992L184.823 287.019Z" stroke="#263238" stroke-width="1.01" stroke-linecap="round" stroke-linejoin="round"/>
<path d="M197.828 280.114C197.828 280.114 194.998 315.489 212.08 328.982C212.08 328.982 230.101 319.213 230.101 280.544L197.828 280.114Z" stroke="#263238" stroke-width="1.01" stroke-linecap="round" stroke-linejoin="round"/>
<path d="M192.121 340.087L212.078 328.982L234.481 344.468" stroke="#263238" stroke-width="1.01" stroke-linecap="round" stroke-linejoin="round"/>
<path d="M217.445 346.902L221.339 335.706L212.079 328.982L199.91 335.706L206.238 345.894L196.254 375.881C199.854 384.846 204.54 392.861 210.63 398.962C210.63 398.962 219.301 393.008 227.701 375.088L217.445 346.902Z" fill="#FF8900" stroke="#263238" stroke-width="1.01" stroke-linecap="round" stroke-linejoin="round"/>
<path d="M257.337 408.021C266.204 406.576 272.22 398.216 270.774 389.349C269.329 380.482 260.969 374.466 252.102 375.912C243.235 377.357 237.219 385.717 238.664 394.584C240.11 403.451 248.47 409.467 257.337 408.021Z" fill="white" stroke="#263238" stroke-width="1.01" stroke-linecap="round" stroke-linejoin="round"/>
<path d="M265.514 396.405C267.97 390.432 265.119 383.599 259.146 381.144C253.173 378.688 246.34 381.539 243.884 387.512C241.428 393.485 244.28 400.318 250.253 402.774C256.226 405.23 263.059 402.378 265.514 396.405Z" fill="white" stroke="#263238" stroke-width="1.01" stroke-linecap="round" stroke-linejoin="round"/>
<path d="M254.697 394.457C254.037 394.457 253.403 394.195 252.936 393.728C252.469 393.26 252.207 392.627 252.207 391.967V296.392C252.207 295.731 252.469 295.098 252.936 294.631C253.403 294.164 254.037 293.901 254.697 293.901C255.358 293.901 255.991 294.164 256.458 294.631C256.925 295.098 257.188 295.731 257.188 296.392V391.967C257.189 392.294 257.126 392.618 257.001 392.921C256.877 393.224 256.693 393.499 256.462 393.731C256.23 393.962 255.955 394.146 255.652 394.27C255.349 394.395 255.025 394.458 254.697 394.457Z" fill="#263238"/>
<path d="M176.104 429.119H175.866C173.602 428.734 151.879 407.611 149.83 401.951C147.781 396.291 148.358 387.235 148.381 386.895C148.402 386.565 148.553 386.256 148.802 386.038C149.05 385.819 149.375 385.708 149.705 385.729C150.036 385.75 150.344 385.901 150.563 386.15C150.781 386.398 150.892 386.723 150.871 387.054C150.871 387.133 150.362 395.94 152.173 401.136C153.837 405.879 173.172 424.817 176.228 426.662C177.926 426.13 184.152 420.549 186.416 414.833C186.476 414.68 186.566 414.541 186.68 414.424C186.794 414.306 186.93 414.212 187.08 414.147C187.23 414.081 187.392 414.047 187.556 414.044C187.72 414.041 187.882 414.071 188.035 414.131C188.187 414.191 188.326 414.281 188.444 414.395C188.562 414.509 188.656 414.645 188.721 414.795C188.786 414.945 188.821 415.107 188.824 415.271C188.827 415.435 188.797 415.597 188.737 415.75C186.382 421.806 178.968 429.119 176.104 429.119Z" fill="white" stroke="#263238" stroke-width="1.01" stroke-linecap="round" stroke-linejoin="round"/>
<path d="M156.805 429.119C153.929 429.119 146.526 421.806 144.126 415.682C144.005 415.374 144.01 415.031 144.142 414.727C144.274 414.424 144.52 414.185 144.828 414.063C145.136 413.942 145.479 413.947 145.783 414.079C146.086 414.21 146.325 414.457 146.447 414.765C148.711 420.482 154.926 426.085 156.635 426.594C159.691 424.749 179.026 405.811 180.69 401.068C182.501 395.872 182.003 387.065 181.992 386.986C181.971 386.655 182.082 386.33 182.3 386.082C182.519 385.834 182.827 385.682 183.158 385.661C183.488 385.64 183.813 385.751 184.061 385.97C184.31 386.189 184.461 386.497 184.482 386.827C184.482 387.212 185.026 396.223 183.033 401.883C181.041 407.543 159.363 428.711 156.997 429.051L156.805 429.119Z" fill="white" stroke="#263238" stroke-width="1.01" stroke-linecap="round" stroke-linejoin="round"/>
<path d="M166.756 344.638C166.096 344.635 165.465 344.371 164.998 343.905C164.532 343.439 164.269 342.807 164.266 342.147V300.456C164.266 299.795 164.528 299.162 164.995 298.695C165.462 298.228 166.096 297.965 166.756 297.965C167.417 297.965 168.05 298.228 168.517 298.695C168.984 299.162 169.246 299.795 169.246 300.456V342.147C169.246 342.474 169.182 342.798 169.057 343.1C168.932 343.402 168.748 343.677 168.517 343.908C168.286 344.139 168.011 344.323 167.709 344.448C167.407 344.573 167.083 344.638 166.756 344.638Z" fill="#263238"/>
<path d="M183.019 391.921C182.36 391.918 181.728 391.655 181.262 391.188C180.795 390.722 180.532 390.09 180.529 389.431V359.433C180.529 355.644 179.024 352.01 176.345 349.331C173.666 346.652 170.032 345.147 166.243 345.147C162.454 345.147 158.821 346.652 156.142 349.331C153.462 352.01 151.957 355.644 151.957 359.433V389.408C151.957 390.068 151.695 390.702 151.228 391.169C150.761 391.636 150.127 391.898 149.467 391.898C148.806 391.898 148.173 391.636 147.706 391.169C147.239 390.702 146.977 390.068 146.977 389.408V359.41C146.977 354.306 149.004 349.411 152.613 345.802C156.222 342.194 161.117 340.166 166.221 340.166C171.324 340.166 176.219 342.194 179.828 345.802C183.437 349.411 185.465 354.306 185.465 359.41V389.408C185.468 390.064 185.213 390.695 184.756 391.165C184.299 391.635 183.675 391.906 183.019 391.921Z" fill="#263238"/>
<path d="M141.826 411.045L141.406 411.371C140.142 412.353 139.913 414.174 140.895 415.437L142.735 417.807C143.717 419.07 145.538 419.299 146.802 418.317L147.222 417.991C148.486 417.009 148.714 415.189 147.733 413.925L145.892 411.556C144.91 410.292 143.09 410.063 141.826 411.045Z" fill="white" stroke="#263238" stroke-width="1.01" stroke-linecap="round" stroke-linejoin="round"/>
<path d="M185.252 417.976L185.672 418.302C186.936 419.284 188.757 419.055 189.739 417.792L191.579 415.422C192.561 414.159 192.332 412.338 191.068 411.356L190.648 411.03C189.384 410.048 187.563 410.277 186.582 411.541L184.741 413.91C183.76 415.174 183.988 416.994 185.252 417.976Z" fill="white" stroke="#263238" stroke-width="1.01" stroke-linecap="round" stroke-linejoin="round"/>
<path d="M171.509 234.63H170.456C167.192 234.63 164.547 237.275 164.547 240.539V251.146C164.547 254.409 167.192 257.055 170.456 257.055H171.509C174.772 257.055 177.418 254.409 177.418 251.146V240.539C177.418 237.275 174.772 234.63 171.509 234.63Z" fill="white" stroke="#263238" stroke-width="1.01" stroke-linecap="round" stroke-linejoin="round"/>
<path d="M258.493 234.63H257.44C254.177 234.63 251.531 237.275 251.531 240.539V251.146C251.531 254.409 254.177 257.055 257.44 257.055H258.493C261.757 257.055 264.402 254.409 264.402 251.146V240.539C264.402 237.275 261.757 234.63 258.493 234.63Z" fill="white" stroke="#263238" stroke-width="1.01" stroke-linecap="round" stroke-linejoin="round"/>
<path d="M202.086 178.449H228.382C235.921 178.449 243.151 181.443 248.481 186.774C253.812 192.105 256.807 199.335 256.807 206.873V265.862C256.807 275.982 252.786 285.688 245.63 292.845C238.474 300.001 228.768 304.021 218.647 304.021H211.855C206.844 304.021 201.882 303.034 197.252 301.117C192.622 299.199 188.415 296.388 184.872 292.845C181.329 289.301 178.518 285.095 176.6 280.465C174.682 275.835 173.695 270.873 173.695 265.862V206.873C173.695 199.34 176.685 192.116 182.009 186.786C187.332 181.456 194.553 178.458 202.086 178.449Z" fill="white" stroke="#263238" stroke-width="1.01" stroke-linecap="round" stroke-linejoin="round"/>
<path d="M205.459 228.087H192.35C191.169 228.087 190.211 229.045 190.211 230.226V230.611C190.211 231.793 191.169 232.751 192.35 232.751H205.459C206.641 232.751 207.598 231.793 207.598 230.611V230.226C207.598 229.045 206.641 228.087 205.459 228.087Z" fill="#263238" stroke="#263238" stroke-width="1.01" stroke-linecap="round" stroke-linejoin="round"/>
<path d="M239.814 228.087H226.706C225.524 228.087 224.566 229.045 224.566 230.226V230.611C224.566 231.793 225.524 232.751 226.706 232.751H239.814C240.996 232.751 241.954 231.793 241.954 230.611V230.226C241.954 229.045 240.996 228.087 239.814 228.087Z" fill="#263238" stroke="#263238" stroke-width="1.01" stroke-linecap="round" stroke-linejoin="round"/>
<path d="M203.759 242.305C203.759 244.999 202.525 247.172 200.997 247.172C199.469 247.172 198.246 244.999 198.246 242.305C198.246 239.611 199.48 237.426 200.997 237.426C202.514 237.426 203.759 239.611 203.759 242.305Z" fill="#263238" stroke="#263238" stroke-width="1.01" stroke-linecap="round" stroke-linejoin="round"/>
<path d="M234.755 242.305C234.755 244.999 233.521 247.172 231.993 247.172C230.464 247.172 229.23 244.999 229.23 242.305C229.23 239.611 230.464 237.426 231.993 237.426C233.521 237.426 234.755 239.611 234.755 242.305Z" fill="#263238" stroke="#263238" stroke-width="1.01" stroke-linecap="round" stroke-linejoin="round"/>
<path d="M230.102 178.449H200.364C193.282 178.449 186.489 181.262 181.482 186.27C176.474 191.278 173.66 198.07 173.66 205.153V267.899C173.66 277.48 177.466 286.667 184.24 293.442C191.014 300.216 200.202 304.022 209.782 304.022H220.74C225.484 304.023 230.182 303.09 234.565 301.275C238.948 299.46 242.931 296.799 246.286 293.445C249.64 290.09 252.301 286.108 254.116 281.725C255.93 277.341 256.864 272.643 256.862 267.899V205.153C256.862 201.641 256.17 198.164 254.824 194.92C253.479 191.677 251.506 188.731 249.021 186.25C246.535 183.77 243.585 181.804 240.338 180.465C237.092 179.127 233.613 178.441 230.102 178.449ZM250.478 259.059C250.478 259.059 250.478 266.688 242.848 274.329C242.848 274.329 234.788 263.722 231.392 262.873C229.196 262.33 221.023 262.488 215.476 262.67C209.941 262.488 201.756 262.33 199.628 262.873C196.232 263.722 188.172 274.329 188.172 274.329C180.543 266.688 180.543 259.059 180.543 259.059V224.272L184.516 219.042C186.036 217.098 186.907 214.726 187.006 212.26C187.106 209.795 186.429 207.36 185.071 205.3C183.643 203.112 183.022 200.495 183.313 197.899C183.605 195.302 184.79 192.888 186.667 191.071L186.746 191.003C188.564 189.245 190.92 188.15 193.436 187.895C195.952 187.641 198.48 188.241 200.613 189.599L206.545 194.252C209.131 196.271 212.319 197.368 215.601 197.368C218.882 197.368 222.07 196.271 224.657 194.252L230.566 189.599C232.71 188.233 235.252 187.628 237.782 187.883C240.312 188.137 242.683 189.236 244.512 191.003L244.58 191.071C246.459 192.923 247.636 195.372 247.908 197.996C248.181 200.621 247.532 203.259 246.074 205.458C244.763 207.512 244.123 209.923 244.243 212.357C244.363 214.79 245.236 217.127 246.742 219.042L250.851 224.272L250.478 259.059Z" fill="#263238" stroke="#263238" stroke-width="1.01" stroke-linecap="round" stroke-linejoin="round"/>
<path d="M221.6 257.609C221.6 257.609 226.694 256.93 226.694 259.873C226.694 262.816 223.717 264.956 217.785 262.839" fill="white"/>
<path d="M221.6 257.609C221.6 257.609 226.694 256.93 226.694 259.873C226.694 262.816 223.717 264.956 217.785 262.839" stroke="#263238" stroke-width="1.01" stroke-linecap="round" stroke-linejoin="round"/>
<path d="M221.168 233.6V258.209C221.168 259.558 220.633 260.852 219.68 261.807C218.728 262.762 217.435 263.3 216.086 263.303H211.558C208.32 263.53 207.188 262.737 206.803 261.368C206.683 260.911 206.659 260.435 206.734 259.97C206.808 259.504 206.978 259.058 207.234 258.662C207.234 257.394 212.644 257.394 212.644 257.394" fill="white"/>
<path d="M221.168 233.6V258.209C221.168 259.558 220.633 260.852 219.68 261.807C218.728 262.762 217.435 263.3 216.086 263.303H211.558C208.32 263.53 207.188 262.737 206.803 261.368C206.683 260.911 206.659 260.435 206.734 259.97C206.808 259.504 206.978 259.058 207.234 258.662V258.662C207.234 257.394 212.644 257.394 212.644 257.394" stroke="#263238" stroke-width="1.01" stroke-linecap="round" stroke-linejoin="round"/>
<path d="M215.837 277.34C211.113 277.367 206.464 276.153 202.355 273.82C201.951 273.549 201.669 273.131 201.568 272.655C201.467 272.18 201.556 271.683 201.815 271.272C202.075 270.86 202.485 270.566 202.958 270.452C203.431 270.338 203.929 270.413 204.348 270.662C207.906 272.605 211.899 273.615 215.954 273.595C220.009 273.575 223.992 272.527 227.531 270.548C227.748 270.421 227.989 270.338 228.239 270.306C228.489 270.274 228.742 270.292 228.985 270.361C229.227 270.429 229.453 270.546 229.65 270.704C229.846 270.862 230.008 271.058 230.126 271.28C230.245 271.503 230.317 271.747 230.339 271.998C230.36 272.249 230.331 272.501 230.253 272.741C230.174 272.98 230.048 273.201 229.882 273.39C229.716 273.58 229.513 273.734 229.286 273.842C225.163 276.108 220.541 277.31 215.837 277.34Z" fill="white" stroke="#263238" stroke-width="1.01" stroke-linecap="round" stroke-linejoin="round"/>
<path d="M229.469 249.663H237.687" stroke="#263238" stroke-width="1.01" stroke-linecap="round" stroke-linejoin="round"/>
<path d="M196.82 249.663H205.039" stroke="#263238" stroke-width="1.01" stroke-linecap="round" stroke-linejoin="round"/>
<path d="M164.264 459.864C172.379 459.864 178.957 453.285 178.957 445.17C178.957 437.056 172.379 430.477 164.264 430.477C156.149 430.477 149.57 437.056 149.57 445.17C149.57 453.285 156.149 459.864 164.264 459.864Z" stroke="#263238" stroke-width="0.724166" stroke-linecap="round" stroke-linejoin="round"/>
<path d="M164.239 448.804C163.453 448.804 162.698 448.492 162.142 447.936C161.586 447.379 161.273 446.625 161.273 445.839V436.443C161.273 435.656 161.586 434.902 162.142 434.346C162.698 433.79 163.453 433.477 164.239 433.477C165.026 433.477 165.78 433.79 166.336 434.346C166.893 434.902 167.205 435.656 167.205 436.443V445.839C167.205 446.625 166.893 447.379 166.336 447.936C165.78 448.492 165.026 448.804 164.239 448.804Z" fill="#263238"/>
<path d="M164.265 450.944C162.875 450.941 161.544 450.387 160.562 449.405C159.58 448.423 159.026 447.092 159.023 445.702V441.288C159.023 441.143 159.081 441.005 159.183 440.903C159.284 440.802 159.423 440.744 159.567 440.744C159.639 440.743 159.71 440.756 159.777 440.782C159.843 440.809 159.904 440.849 159.954 440.9C160.005 440.951 160.045 441.011 160.072 441.078C160.099 441.144 160.112 441.216 160.11 441.288V445.702C160.166 446.768 160.628 447.772 161.402 448.507C162.176 449.242 163.203 449.651 164.27 449.651C165.338 449.651 166.364 449.242 167.138 448.507C167.912 447.772 168.375 446.768 168.43 445.702V441.288C168.429 441.216 168.442 441.144 168.469 441.078C168.495 441.011 168.535 440.951 168.586 440.9C168.637 440.849 168.697 440.809 168.764 440.782C168.831 440.756 168.902 440.743 168.974 440.744C169.118 440.744 169.256 440.802 169.358 440.903C169.46 441.005 169.517 441.143 169.517 441.288V445.702C169.514 447.094 168.959 448.427 167.975 449.409C166.99 450.392 165.656 450.944 164.265 450.944Z" fill="#263238"/>
<path d="M164.263 456.581C164.192 456.581 164.122 456.567 164.056 456.539C163.991 456.512 163.932 456.472 163.882 456.421C163.833 456.37 163.794 456.31 163.768 456.245C163.742 456.179 163.729 456.108 163.731 456.038V450.378C163.731 450.227 163.79 450.083 163.896 449.977C164.003 449.871 164.146 449.812 164.297 449.812C164.447 449.812 164.591 449.871 164.697 449.977C164.803 450.083 164.863 450.227 164.863 450.378V456.038C164.865 456.114 164.85 456.191 164.82 456.262C164.79 456.333 164.745 456.396 164.688 456.448C164.631 456.499 164.563 456.538 164.49 456.561C164.416 456.584 164.339 456.591 164.263 456.581Z" fill="#263238"/>
<path d="M167.886 456.875H160.653C160.51 456.872 160.373 456.814 160.272 456.713C160.17 456.612 160.112 456.475 160.109 456.332C160.109 456.188 160.167 456.05 160.269 455.948C160.37 455.846 160.509 455.789 160.653 455.789H167.886C168.03 455.789 168.169 455.846 168.27 455.948C168.372 456.05 168.43 456.188 168.43 456.332C168.427 456.475 168.368 456.612 168.267 456.713C168.166 456.814 168.029 456.872 167.886 456.875Z" fill="#263238"/>
<path d="M261.561 459.864C269.675 459.864 276.254 453.285 276.254 445.17C276.254 437.056 269.675 430.477 261.561 430.477C253.446 430.477 246.867 437.056 246.867 445.17C246.867 453.285 253.446 459.864 261.561 459.864Z" stroke="#263238" stroke-width="0.724166" stroke-linecap="round" stroke-linejoin="round"/>
<path d="M270.626 440.869L266.336 443.348V441.31C266.333 440.847 266.147 440.403 265.818 440.077C265.489 439.75 265.045 439.567 264.581 439.567H254.891C254.661 439.565 254.434 439.609 254.221 439.696C254.008 439.783 253.814 439.911 253.651 440.074C253.488 440.236 253.359 440.428 253.271 440.64C253.182 440.853 253.137 441.08 253.137 441.31V449.121C253.135 449.352 253.18 449.581 253.267 449.794C253.355 450.008 253.484 450.202 253.647 450.365C253.811 450.528 254.005 450.657 254.218 450.745C254.432 450.833 254.661 450.877 254.891 450.876H264.581C264.812 450.876 265.04 450.83 265.253 450.742C265.466 450.654 265.659 450.525 265.822 450.362C265.985 450.199 266.114 450.005 266.202 449.792C266.29 449.58 266.336 449.351 266.336 449.121V447.14L270.626 449.619V440.869Z" fill="#263238"/>
<path d="M212.916 459.864C221.031 459.864 227.609 453.285 227.609 445.17C227.609 437.056 221.031 430.477 212.916 430.477C204.801 430.477 198.223 437.056 198.223 445.17C198.223 453.285 204.801 459.864 212.916 459.864Z" fill="#263238" stroke="#263238" stroke-width="0.724166" stroke-linecap="round" stroke-linejoin="round"/>
<path d="M220.355 442.069H205.481C205.069 442.069 204.662 442.159 204.289 442.334C203.916 442.508 203.586 442.763 203.322 443.08C203.058 443.396 202.868 443.767 202.763 444.165C202.659 444.564 202.644 444.98 202.718 445.386L203.149 447.718C203.18 447.875 203.264 448.018 203.388 448.121C203.512 448.224 203.667 448.281 203.828 448.284H208.356C208.542 448.284 208.72 448.21 208.852 448.078C208.984 447.946 209.058 447.768 209.058 447.582V445.057H216.868V447.582C216.868 447.768 216.942 447.946 217.074 448.078C217.206 448.21 217.384 448.284 217.57 448.284H222.098C222.261 448.284 222.419 448.228 222.545 448.124C222.671 448.021 222.757 447.877 222.789 447.718L223.219 445.386C223.296 444.972 223.278 444.546 223.168 444.14C223.058 443.734 222.858 443.358 222.583 443.04C222.308 442.721 221.965 442.469 221.58 442.301C221.194 442.132 220.775 442.053 220.355 442.069Z" fill="#FF8900"/>
<path d="M289.622 158.458H275.789V166.042H289.622V158.458Z" stroke="#263238" stroke-width="0.821067" stroke-linecap="round" stroke-linejoin="round"/>
<path d="M286.577 158.458H275.789V166.042H286.577V158.458Z" fill="#263238" stroke="#263238" stroke-width="0.725073" stroke-linecap="round" stroke-linejoin="round"/>
<path d="M291.533 160.574H289.586V163.914H291.533V160.574Z" fill="#263238" stroke="#263238" stroke-width="0.725073" stroke-linecap="round" stroke-linejoin="round"/>
<path d="M134.762 160.801H132.227V165.148H134.762V160.801Z" fill="#263238" stroke="#263238" stroke-width="0.883086" stroke-linecap="round" stroke-linejoin="round"/>
<path d="M138.747 159.284H136.211V165.159H138.747V159.284Z" fill="#263238" stroke="#263238" stroke-width="0.883086" stroke-linecap="round" stroke-linejoin="round"/>
<path d="M142.735 157.473H140.199V165.148H142.735V157.473Z" fill="#263238" stroke="#263238" stroke-width="0.883086" stroke-linecap="round" stroke-linejoin="round"/>
<path d="M296.186 155.22H129.363V467.074H296.186V155.22Z" stroke="#263238" stroke-linecap="round" stroke-linejoin="round"/>
<path d="M90.9219 488.277H514.414" stroke="#263238" stroke-width="1.01" stroke-linecap="round" stroke-linejoin="round"/>
<path d="M67.7148 488.277H78.9103" stroke="#263238" stroke-width="1.01" stroke-linecap="round" stroke-linejoin="round"/>
</svg>
